<?xml version="1.0" encoding="utf-8"?>
<svg xmlns="http://www.w3.org/2000/svg" xmlns:xlink="http://www.w3.org/1999/xlink" width="600" height="400" viewBox="0 0 2400 1600">
<defs>
  <clipPath id="clip850">
    <rect x="0" y="0" width="2400" height="1600"/>
  </clipPath>
</defs>
<path clip-path="url(#clip850)" d="M0 1600 L2400 1600 L2400 0 L0 0  Z" fill="#ffffff" fill-rule="evenodd" fill-opacity="1"/>
<defs>
  <clipPath id="clip851">
    <rect x="219" y="123" width="2134" height="1301"/>
  </clipPath>
</defs>
<path clip-path="url(#clip850)" d="M219.542 1423.18 L2352.76 1423.18 L2352.76 123.472 L219.542 123.472  Z" fill="#ffffff" fill-rule="evenodd" fill-opacity="1"/>
<polyline clip-path="url(#clip851)" style="stroke:#000000; stroke-linecap:round; stroke-linejoin:round; stroke-width:2; stroke-opacity:0.1; fill:none" points="279.916,1423.18 279.916,123.472 "/>
<polyline clip-path="url(#clip851)" style="stroke:#000000; stroke-linecap:round; stroke-linejoin:round; stroke-width:2; stroke-opacity:0.1; fill:none" points="783.033,1423.18 783.033,123.472 "/>
<polyline clip-path="url(#clip851)" style="stroke:#000000; stroke-linecap:round; stroke-linejoin:round; stroke-width:2; stroke-opacity:0.1; fill:none" points="1286.15,1423.18 1286.15,123.472 "/>
<polyline clip-path="url(#clip851)" style="stroke:#000000; stroke-linecap:round; stroke-linejoin:round; stroke-width:2; stroke-opacity:0.1; fill:none" points="1789.27,1423.18 1789.27,123.472 "/>
<polyline clip-path="url(#clip851)" style="stroke:#000000; stroke-linecap:round; stroke-linejoin:round; stroke-width:2; stroke-opacity:0.1; fill:none" points="2292.38,1423.18 2292.38,123.472 "/>
<polyline clip-path="url(#clip851)" style="stroke:#000000; stroke-linecap:round; stroke-linejoin:round; stroke-width:2; stroke-opacity:0.1; fill:none" points="219.542,1396.03 2352.76,1396.03 "/>
<polyline clip-path="url(#clip851)" style="stroke:#000000; stroke-linecap:round; stroke-linejoin:round; stroke-width:2; stroke-opacity:0.1; fill:none" points="219.542,1139.74 2352.76,1139.74 "/>
<polyline clip-path="url(#clip851)" style="stroke:#000000; stroke-linecap:round; stroke-linejoin:round; stroke-width:2; stroke-opacity:0.1; fill:none" points="219.542,883.448 2352.76,883.448 "/>
<polyline clip-path="url(#clip851)" style="stroke:#000000; stroke-linecap:round; stroke-linejoin:round; stroke-width:2; stroke-opacity:0.1; fill:none" points="219.542,627.155 2352.76,627.155 "/>
<polyline clip-path="url(#clip851)" style="stroke:#000000; stroke-linecap:round; stroke-linejoin:round; stroke-width:2; stroke-opacity:0.1; fill:none" points="219.542,370.862 2352.76,370.862 "/>
<polyline clip-path="url(#clip850)" style="stroke:#000000; stroke-linecap:round; stroke-linejoin:round; stroke-width:4; stroke-opacity:1; fill:none" points="219.542,1423.18 2352.76,1423.18 "/>
<polyline clip-path="url(#clip850)" style="stroke:#000000; stroke-linecap:round; stroke-linejoin:round; stroke-width:4; stroke-opacity:1; fill:none" points="279.916,1423.18 279.916,1404.28 "/>
<polyline clip-path="url(#clip850)" style="stroke:#000000; stroke-linecap:round; stroke-linejoin:round; stroke-width:4; stroke-opacity:1; fill:none" points="783.033,1423.18 783.033,1404.28 "/>
<polyline clip-path="url(#clip850)" style="stroke:#000000; stroke-linecap:round; stroke-linejoin:round; stroke-width:4; stroke-opacity:1; fill:none" points="1286.15,1423.18 1286.15,1404.28 "/>
<polyline clip-path="url(#clip850)" style="stroke:#000000; stroke-linecap:round; stroke-linejoin:round; stroke-width:4; stroke-opacity:1; fill:none" points="1789.27,1423.18 1789.27,1404.28 "/>
<polyline clip-path="url(#clip850)" style="stroke:#000000; stroke-linecap:round; stroke-linejoin:round; stroke-width:4; stroke-opacity:1; fill:none" points="2292.38,1423.18 2292.38,1404.28 "/>
<path clip-path="url(#clip850)" d="M279.916 1454.1 Q276.305 1454.1 274.476 1457.66 Q272.671 1461.2 272.671 1468.33 Q272.671 1475.44 274.476 1479.01 Q276.305 1482.55 279.916 1482.55 Q283.55 1482.55 285.356 1479.01 Q287.185 1475.44 287.185 1468.33 Q287.185 1461.2 285.356 1457.66 Q283.55 1454.1 279.916 1454.1 M279.916 1450.39 Q285.726 1450.39 288.782 1455 Q291.861 1459.58 291.861 1468.33 Q291.861 1477.06 288.782 1481.67 Q285.726 1486.25 279.916 1486.25 Q274.106 1486.25 271.027 1481.67 Q267.972 1477.06 267.972 1468.33 Q267.972 1459.58 271.027 1455 Q274.106 1450.39 279.916 1450.39 Z" fill="#000000" fill-rule="nonzero" fill-opacity="1" /><path clip-path="url(#clip850)" d="M762.304 1481.64 L778.623 1481.64 L778.623 1485.58 L756.679 1485.58 L756.679 1481.64 Q759.341 1478.89 763.924 1474.26 Q768.53 1469.61 769.711 1468.27 Q771.956 1465.74 772.836 1464.01 Q773.739 1462.25 773.739 1460.56 Q773.739 1457.8 771.794 1456.07 Q769.873 1454.33 766.771 1454.33 Q764.572 1454.33 762.118 1455.09 Q759.688 1455.86 756.91 1457.41 L756.91 1452.69 Q759.734 1451.55 762.188 1450.97 Q764.642 1450.39 766.679 1450.39 Q772.049 1450.39 775.243 1453.08 Q778.438 1455.77 778.438 1460.26 Q778.438 1462.39 777.628 1464.31 Q776.841 1466.2 774.734 1468.8 Q774.155 1469.47 771.054 1472.69 Q767.952 1475.88 762.304 1481.64 Z" fill="#000000" fill-rule="nonzero" fill-opacity="1" /><path clip-path="url(#clip850)" d="M788.484 1451.02 L806.84 1451.02 L806.84 1454.96 L792.766 1454.96 L792.766 1463.43 Q793.785 1463.08 794.803 1462.92 Q795.822 1462.73 796.84 1462.73 Q802.627 1462.73 806.007 1465.9 Q809.387 1469.08 809.387 1474.49 Q809.387 1480.07 805.914 1483.17 Q802.442 1486.25 796.123 1486.25 Q793.947 1486.25 791.678 1485.88 Q789.433 1485.51 787.026 1484.77 L787.026 1480.07 Q789.109 1481.2 791.331 1481.76 Q793.553 1482.32 796.03 1482.32 Q800.035 1482.32 802.373 1480.21 Q804.711 1478.1 804.711 1474.49 Q804.711 1470.88 802.373 1468.77 Q800.035 1466.67 796.03 1466.67 Q794.155 1466.67 792.28 1467.08 Q790.428 1467.5 788.484 1468.38 L788.484 1451.02 Z" fill="#000000" fill-rule="nonzero" fill-opacity="1" /><path clip-path="url(#clip850)" d="M1260.85 1451.02 L1279.2 1451.02 L1279.2 1454.96 L1265.13 1454.96 L1265.13 1463.43 Q1266.15 1463.08 1267.17 1462.92 Q1268.19 1462.73 1269.2 1462.73 Q1274.99 1462.73 1278.37 1465.9 Q1281.75 1469.08 1281.75 1474.49 Q1281.75 1480.07 1278.28 1483.17 Q1274.81 1486.25 1268.49 1486.25 Q1266.31 1486.25 1264.04 1485.88 Q1261.8 1485.51 1259.39 1484.77 L1259.39 1480.07 Q1261.47 1481.2 1263.7 1481.76 Q1265.92 1482.32 1268.39 1482.32 Q1272.4 1482.32 1274.74 1480.21 Q1277.08 1478.1 1277.08 1474.49 Q1277.08 1470.88 1274.74 1468.77 Q1272.4 1466.67 1268.39 1466.67 Q1266.52 1466.67 1264.64 1467.08 Q1262.79 1467.5 1260.85 1468.38 L1260.85 1451.02 Z" fill="#000000" fill-rule="nonzero" fill-opacity="1" /><path clip-path="url(#clip850)" d="M1300.96 1454.1 Q1297.35 1454.1 1295.52 1457.66 Q1293.72 1461.2 1293.72 1468.33 Q1293.72 1475.44 1295.52 1479.01 Q1297.35 1482.55 1300.96 1482.55 Q1304.6 1482.55 1306.4 1479.01 Q1308.23 1475.44 1308.23 1468.33 Q1308.23 1461.2 1306.4 1457.66 Q1304.6 1454.1 1300.96 1454.1 M1300.96 1450.39 Q1306.77 1450.39 1309.83 1455 Q1312.91 1459.58 1312.91 1468.33 Q1312.91 1477.06 1309.83 1481.67 Q1306.77 1486.25 1300.96 1486.25 Q1295.15 1486.25 1292.07 1481.67 Q1289.02 1477.06 1289.02 1468.33 Q1289.02 1459.58 1292.07 1455 Q1295.15 1450.39 1300.96 1450.39 Z" fill="#000000" fill-rule="nonzero" fill-opacity="1" /><path clip-path="url(#clip850)" d="M1763.12 1451.02 L1785.34 1451.02 L1785.34 1453.01 L1772.8 1485.58 L1767.91 1485.58 L1779.72 1454.96 L1763.12 1454.96 L1763.12 1451.02 Z" fill="#000000" fill-rule="nonzero" fill-opacity="1" /><path clip-path="url(#clip850)" d="M1794.51 1451.02 L1812.86 1451.02 L1812.86 1454.96 L1798.79 1454.96 L1798.79 1463.43 Q1799.81 1463.08 1800.83 1462.92 Q1801.85 1462.73 1802.86 1462.73 Q1808.65 1462.73 1812.03 1465.9 Q1815.41 1469.08 1815.41 1474.49 Q1815.41 1480.07 1811.94 1483.17 Q1808.47 1486.25 1802.15 1486.25 Q1799.97 1486.25 1797.7 1485.88 Q1795.46 1485.51 1793.05 1484.77 L1793.05 1480.07 Q1795.13 1481.2 1797.36 1481.76 Q1799.58 1482.32 1802.05 1482.32 Q1806.06 1482.32 1808.4 1480.21 Q1810.74 1478.1 1810.74 1474.49 Q1810.74 1470.88 1808.4 1468.77 Q1806.06 1466.67 1802.05 1466.67 Q1800.18 1466.67 1798.3 1467.08 Q1796.45 1467.5 1794.51 1468.38 L1794.51 1451.02 Z" fill="#000000" fill-rule="nonzero" fill-opacity="1" /><path clip-path="url(#clip850)" d="M2251.99 1481.64 L2259.63 1481.64 L2259.63 1455.28 L2251.32 1456.95 L2251.32 1452.69 L2259.58 1451.02 L2264.26 1451.02 L2264.26 1481.64 L2271.9 1481.64 L2271.9 1485.58 L2251.99 1485.58 L2251.99 1481.64 Z" fill="#000000" fill-rule="nonzero" fill-opacity="1" /><path clip-path="url(#clip850)" d="M2291.34 1454.1 Q2287.73 1454.1 2285.9 1457.66 Q2284.09 1461.2 2284.09 1468.33 Q2284.09 1475.44 2285.9 1479.01 Q2287.73 1482.55 2291.34 1482.55 Q2294.97 1482.55 2296.78 1479.01 Q2298.61 1475.44 2298.61 1468.33 Q2298.61 1461.2 2296.78 1457.66 Q2294.97 1454.1 2291.34 1454.1 M2291.34 1450.39 Q2297.15 1450.39 2300.21 1455 Q2303.28 1459.58 2303.28 1468.33 Q2303.28 1477.06 2300.21 1481.67 Q2297.15 1486.25 2291.34 1486.25 Q2285.53 1486.25 2282.45 1481.67 Q2279.4 1477.06 2279.4 1468.33 Q2279.4 1459.58 2282.45 1455 Q2285.53 1450.39 2291.34 1450.39 Z" fill="#000000" fill-rule="nonzero" fill-opacity="1" /><path clip-path="url(#clip850)" d="M2321.5 1454.1 Q2317.89 1454.1 2316.06 1457.66 Q2314.26 1461.2 2314.26 1468.33 Q2314.26 1475.44 2316.06 1479.01 Q2317.89 1482.55 2321.5 1482.55 Q2325.14 1482.55 2326.94 1479.01 Q2328.77 1475.44 2328.77 1468.33 Q2328.77 1461.2 2326.94 1457.66 Q2325.14 1454.1 2321.5 1454.1 M2321.5 1450.39 Q2327.31 1450.39 2330.37 1455 Q2333.45 1459.58 2333.45 1468.33 Q2333.45 1477.06 2330.37 1481.67 Q2327.31 1486.25 2321.5 1486.25 Q2315.69 1486.25 2312.61 1481.67 Q2309.56 1477.06 2309.56 1468.33 Q2309.56 1459.58 2312.61 1455 Q2315.69 1450.39 2321.5 1450.39 Z" fill="#000000" fill-rule="nonzero" fill-opacity="1" /><path clip-path="url(#clip850)" d="M1192.32 1520.52 L1222.36 1520.52 L1222.36 1525.93 L1198.75 1525.93 L1198.75 1540 L1221.38 1540 L1221.38 1545.41 L1198.75 1545.41 L1198.75 1562.63 L1222.94 1562.63 L1222.94 1568.04 L1192.32 1568.04 L1192.32 1520.52 Z" fill="#000000" fill-rule="nonzero" fill-opacity="1" /><path clip-path="url(#clip850)" d="M1238.92 1562.7 L1238.92 1581.6 L1233.03 1581.6 L1233.03 1532.4 L1238.92 1532.4 L1238.92 1537.81 Q1240.76 1534.62 1243.56 1533.1 Q1246.4 1531.54 1250.31 1531.54 Q1256.8 1531.54 1260.85 1536.69 Q1264.92 1541.85 1264.92 1550.25 Q1264.92 1558.65 1260.85 1563.81 Q1256.8 1568.97 1250.31 1568.97 Q1246.4 1568.97 1243.56 1567.44 Q1240.76 1565.88 1238.92 1562.7 M1258.84 1550.25 Q1258.84 1543.79 1256.17 1540.13 Q1253.52 1536.44 1248.88 1536.44 Q1244.23 1536.44 1241.56 1540.13 Q1238.92 1543.79 1238.92 1550.25 Q1238.92 1556.71 1241.56 1560.4 Q1244.23 1564.07 1248.88 1564.07 Q1253.52 1564.07 1256.17 1560.4 Q1258.84 1556.71 1258.84 1550.25 Z" fill="#000000" fill-rule="nonzero" fill-opacity="1" /><path clip-path="url(#clip850)" d="M1288.44 1536.5 Q1283.73 1536.5 1280.99 1540.19 Q1278.26 1543.85 1278.26 1550.25 Q1278.26 1556.65 1280.96 1560.34 Q1283.7 1564 1288.44 1564 Q1293.12 1564 1295.86 1560.31 Q1298.59 1556.62 1298.59 1550.25 Q1298.59 1543.92 1295.86 1540.23 Q1293.12 1536.5 1288.44 1536.5 M1288.44 1531.54 Q1296.08 1531.54 1300.44 1536.5 Q1304.8 1541.47 1304.8 1550.25 Q1304.8 1559 1300.44 1564 Q1296.08 1568.97 1288.44 1568.97 Q1280.77 1568.97 1276.41 1564 Q1272.08 1559 1272.08 1550.25 Q1272.08 1541.47 1276.41 1536.5 Q1280.77 1531.54 1288.44 1531.54 Z" fill="#000000" fill-rule="nonzero" fill-opacity="1" /><path clip-path="url(#clip850)" d="M1340.16 1533.76 L1340.16 1539.24 Q1337.68 1537.87 1335.16 1537.2 Q1332.68 1536.5 1330.14 1536.5 Q1324.44 1536.5 1321.29 1540.13 Q1318.14 1543.73 1318.14 1550.25 Q1318.14 1556.78 1321.29 1560.4 Q1324.44 1564 1330.14 1564 Q1332.68 1564 1335.16 1563.33 Q1337.68 1562.63 1340.16 1561.26 L1340.16 1566.68 Q1337.71 1567.82 1335.07 1568.39 Q1332.46 1568.97 1329.5 1568.97 Q1321.45 1568.97 1316.7 1563.91 Q1311.96 1558.85 1311.96 1550.25 Q1311.96 1541.53 1316.74 1536.53 Q1321.54 1531.54 1329.88 1531.54 Q1332.59 1531.54 1335.16 1532.11 Q1337.74 1532.65 1340.16 1533.76 Z" fill="#000000" fill-rule="nonzero" fill-opacity="1" /><path clip-path="url(#clip850)" d="M1379.98 1546.53 L1379.98 1568.04 L1374.12 1568.04 L1374.12 1546.72 Q1374.12 1541.66 1372.15 1539.14 Q1370.18 1536.63 1366.23 1536.63 Q1361.49 1536.63 1358.75 1539.65 Q1356.01 1542.68 1356.01 1547.9 L1356.01 1568.04 L1350.12 1568.04 L1350.12 1518.52 L1356.01 1518.52 L1356.01 1537.93 Q1358.11 1534.72 1360.95 1533.13 Q1363.81 1531.54 1367.53 1531.54 Q1373.68 1531.54 1376.83 1535.36 Q1379.98 1539.14 1379.98 1546.53 Z" fill="#000000" fill-rule="nonzero" fill-opacity="1" /><polyline clip-path="url(#clip850)" style="stroke:#000000; stroke-linecap:round; stroke-linejoin:round; stroke-width:4; stroke-opacity:1; fill:none" points="219.542,1423.18 219.542,123.472 "/>
<polyline clip-path="url(#clip850)" style="stroke:#000000; stroke-linecap:round; stroke-linejoin:round; stroke-width:4; stroke-opacity:1; fill:none" points="219.542,1396.03 238.44,1396.03 "/>
<polyline clip-path="url(#clip850)" style="stroke:#000000; stroke-linecap:round; stroke-linejoin:round; stroke-width:4; stroke-opacity:1; fill:none" points="219.542,1139.74 238.44,1139.74 "/>
<polyline clip-path="url(#clip850)" style="stroke:#000000; stroke-linecap:round; stroke-linejoin:round; stroke-width:4; stroke-opacity:1; fill:none" points="219.542,883.448 238.44,883.448 "/>
<polyline clip-path="url(#clip850)" style="stroke:#000000; stroke-linecap:round; stroke-linejoin:round; stroke-width:4; stroke-opacity:1; fill:none" points="219.542,627.155 238.44,627.155 "/>
<polyline clip-path="url(#clip850)" style="stroke:#000000; stroke-linecap:round; stroke-linejoin:round; stroke-width:4; stroke-opacity:1; fill:none" points="219.542,370.862 238.44,370.862 "/>
<path clip-path="url(#clip850)" d="M126.367 1381.83 Q122.755 1381.83 120.927 1385.4 Q119.121 1388.94 119.121 1396.07 Q119.121 1403.18 120.927 1406.74 Q122.755 1410.28 126.367 1410.28 Q130.001 1410.28 131.806 1406.74 Q133.635 1403.18 133.635 1396.07 Q133.635 1388.94 131.806 1385.4 Q130.001 1381.83 126.367 1381.83 M126.367 1378.13 Q132.177 1378.13 135.232 1382.74 Q138.311 1387.32 138.311 1396.07 Q138.311 1404.8 135.232 1409.4 Q132.177 1413.99 126.367 1413.99 Q120.556 1413.99 117.478 1409.4 Q114.422 1404.8 114.422 1396.07 Q114.422 1387.32 117.478 1382.74 Q120.556 1378.13 126.367 1378.13 Z" fill="#000000" fill-rule="nonzero" fill-opacity="1" /><path clip-path="url(#clip850)" d="M146.529 1407.43 L151.413 1407.43 L151.413 1413.31 L146.529 1413.31 L146.529 1407.43 Z" fill="#000000" fill-rule="nonzero" fill-opacity="1" /><path clip-path="url(#clip850)" d="M171.598 1381.83 Q167.987 1381.83 166.158 1385.4 Q164.352 1388.94 164.352 1396.07 Q164.352 1403.18 166.158 1406.74 Q167.987 1410.28 171.598 1410.28 Q175.232 1410.28 177.038 1406.74 Q178.866 1403.18 178.866 1396.07 Q178.866 1388.94 177.038 1385.4 Q175.232 1381.83 171.598 1381.83 M171.598 1378.13 Q177.408 1378.13 180.464 1382.74 Q183.542 1387.32 183.542 1396.07 Q183.542 1404.8 180.464 1409.4 Q177.408 1413.99 171.598 1413.99 Q165.788 1413.99 162.709 1409.4 Q159.653 1404.8 159.653 1396.07 Q159.653 1387.32 162.709 1382.74 Q165.788 1378.13 171.598 1378.13 Z" fill="#000000" fill-rule="nonzero" fill-opacity="1" /><path clip-path="url(#clip850)" d="M127.015 1125.54 Q123.404 1125.54 121.575 1129.1 Q119.769 1132.65 119.769 1139.78 Q119.769 1146.88 121.575 1150.45 Q123.404 1153.99 127.015 1153.99 Q130.649 1153.99 132.455 1150.45 Q134.283 1146.88 134.283 1139.78 Q134.283 1132.65 132.455 1129.1 Q130.649 1125.54 127.015 1125.54 M127.015 1121.84 Q132.825 1121.84 135.88 1126.44 Q138.959 1131.03 138.959 1139.78 Q138.959 1148.5 135.88 1153.11 Q132.825 1157.69 127.015 1157.69 Q121.205 1157.69 118.126 1153.11 Q115.07 1148.5 115.07 1139.78 Q115.07 1131.03 118.126 1126.44 Q121.205 1121.84 127.015 1121.84 Z" fill="#000000" fill-rule="nonzero" fill-opacity="1" /><path clip-path="url(#clip850)" d="M147.177 1151.14 L152.061 1151.14 L152.061 1157.02 L147.177 1157.02 L147.177 1151.14 Z" fill="#000000" fill-rule="nonzero" fill-opacity="1" /><path clip-path="url(#clip850)" d="M176.413 1138.39 Q179.769 1139.1 181.644 1141.37 Q183.542 1143.64 183.542 1146.98 Q183.542 1152.09 180.024 1154.89 Q176.505 1157.69 170.024 1157.69 Q167.848 1157.69 165.533 1157.25 Q163.241 1156.84 160.788 1155.98 L160.788 1151.47 Q162.732 1152.6 165.047 1153.18 Q167.362 1153.76 169.885 1153.76 Q174.283 1153.76 176.575 1152.02 Q178.889 1150.29 178.889 1146.98 Q178.889 1143.92 176.737 1142.21 Q174.607 1140.47 170.788 1140.47 L166.76 1140.47 L166.76 1136.63 L170.973 1136.63 Q174.422 1136.63 176.251 1135.26 Q178.079 1133.87 178.079 1131.28 Q178.079 1128.62 176.181 1127.21 Q174.306 1125.77 170.788 1125.77 Q168.866 1125.77 166.667 1126.19 Q164.468 1126.6 161.829 1127.48 L161.829 1123.32 Q164.491 1122.58 166.806 1122.21 Q169.144 1121.84 171.204 1121.84 Q176.528 1121.84 179.63 1124.27 Q182.732 1126.67 182.732 1130.79 Q182.732 1133.67 181.089 1135.66 Q179.445 1137.62 176.413 1138.39 Z" fill="#000000" fill-rule="nonzero" fill-opacity="1" /><path clip-path="url(#clip850)" d="M126.205 869.247 Q122.593 869.247 120.765 872.812 Q118.959 876.353 118.959 883.483 Q118.959 890.59 120.765 894.154 Q122.593 897.696 126.205 897.696 Q129.839 897.696 131.644 894.154 Q133.473 890.59 133.473 883.483 Q133.473 876.353 131.644 872.812 Q129.839 869.247 126.205 869.247 M126.205 865.543 Q132.015 865.543 135.07 870.15 Q138.149 874.733 138.149 883.483 Q138.149 892.21 135.07 896.816 Q132.015 901.4 126.205 901.4 Q120.394 901.4 117.316 896.816 Q114.26 892.21 114.26 883.483 Q114.26 874.733 117.316 870.15 Q120.394 865.543 126.205 865.543 Z" fill="#000000" fill-rule="nonzero" fill-opacity="1" /><path clip-path="url(#clip850)" d="M146.366 894.849 L151.251 894.849 L151.251 900.728 L146.366 900.728 L146.366 894.849 Z" fill="#000000" fill-rule="nonzero" fill-opacity="1" /><path clip-path="url(#clip850)" d="M172.014 881.585 Q168.866 881.585 167.015 883.738 Q165.186 885.89 165.186 889.64 Q165.186 893.367 167.015 895.543 Q168.866 897.696 172.014 897.696 Q175.163 897.696 176.991 895.543 Q178.843 893.367 178.843 889.64 Q178.843 885.89 176.991 883.738 Q175.163 881.585 172.014 881.585 M181.297 866.932 L181.297 871.191 Q179.538 870.358 177.732 869.918 Q175.95 869.479 174.19 869.479 Q169.561 869.479 167.107 872.604 Q164.677 875.728 164.329 882.048 Q165.695 880.034 167.755 878.969 Q169.815 877.881 172.292 877.881 Q177.501 877.881 180.51 881.053 Q183.542 884.201 183.542 889.64 Q183.542 894.965 180.394 898.182 Q177.246 901.4 172.014 901.4 Q166.019 901.4 162.848 896.816 Q159.677 892.21 159.677 883.483 Q159.677 875.289 163.565 870.428 Q167.454 865.543 174.005 865.543 Q175.764 865.543 177.547 865.891 Q179.352 866.238 181.297 866.932 Z" fill="#000000" fill-rule="nonzero" fill-opacity="1" /><path clip-path="url(#clip850)" d="M126.552 612.954 Q122.941 612.954 121.112 616.519 Q119.306 620.06 119.306 627.19 Q119.306 634.296 121.112 637.861 Q122.941 641.403 126.552 641.403 Q130.186 641.403 131.992 637.861 Q133.82 634.296 133.82 627.19 Q133.82 620.06 131.992 616.519 Q130.186 612.954 126.552 612.954 M126.552 609.25 Q132.362 609.25 135.417 613.857 Q138.496 618.44 138.496 627.19 Q138.496 635.917 135.417 640.523 Q132.362 645.107 126.552 645.107 Q120.742 645.107 117.663 640.523 Q114.607 635.917 114.607 627.19 Q114.607 618.44 117.663 613.857 Q120.742 609.25 126.552 609.25 Z" fill="#000000" fill-rule="nonzero" fill-opacity="1" /><path clip-path="url(#clip850)" d="M146.714 638.556 L151.598 638.556 L151.598 644.435 L146.714 644.435 L146.714 638.556 Z" fill="#000000" fill-rule="nonzero" fill-opacity="1" /><path clip-path="url(#clip850)" d="M161.922 643.718 L161.922 639.458 Q163.681 640.292 165.487 640.732 Q167.292 641.171 169.028 641.171 Q173.658 641.171 176.089 638.07 Q178.542 634.945 178.889 628.602 Q177.547 630.593 175.487 631.658 Q173.427 632.722 170.927 632.722 Q165.741 632.722 162.709 629.597 Q159.7 626.449 159.7 621.009 Q159.7 615.685 162.848 612.468 Q165.996 609.25 171.227 609.25 Q177.223 609.25 180.371 613.857 Q183.542 618.44 183.542 627.19 Q183.542 635.361 179.653 640.245 Q175.788 645.107 169.237 645.107 Q167.477 645.107 165.672 644.759 Q163.866 644.412 161.922 643.718 M171.227 629.065 Q174.376 629.065 176.204 626.912 Q178.056 624.759 178.056 621.009 Q178.056 617.283 176.204 615.13 Q174.376 612.954 171.227 612.954 Q168.079 612.954 166.227 615.13 Q164.399 617.283 164.399 621.009 Q164.399 624.759 166.227 626.912 Q168.079 629.065 171.227 629.065 Z" fill="#000000" fill-rule="nonzero" fill-opacity="1" /><path clip-path="url(#clip850)" d="M118.774 384.207 L126.413 384.207 L126.413 357.841 L118.103 359.508 L118.103 355.249 L126.367 353.582 L131.042 353.582 L131.042 384.207 L138.681 384.207 L138.681 388.142 L118.774 388.142 L118.774 384.207 Z" fill="#000000" fill-rule="nonzero" fill-opacity="1" /><path clip-path="url(#clip850)" d="M148.126 382.263 L153.01 382.263 L153.01 388.142 L148.126 388.142 L148.126 382.263 Z" fill="#000000" fill-rule="nonzero" fill-opacity="1" /><path clip-path="url(#clip850)" d="M167.223 384.207 L183.542 384.207 L183.542 388.142 L161.598 388.142 L161.598 384.207 Q164.26 381.452 168.843 376.823 Q173.45 372.17 174.63 370.827 Q176.876 368.304 177.755 366.568 Q178.658 364.809 178.658 363.119 Q178.658 360.365 176.714 358.628 Q174.792 356.892 171.69 356.892 Q169.491 356.892 167.038 357.656 Q164.607 358.42 161.829 359.971 L161.829 355.249 Q164.653 354.115 167.107 353.536 Q169.561 352.957 171.598 352.957 Q176.968 352.957 180.163 355.642 Q183.357 358.328 183.357 362.818 Q183.357 364.948 182.547 366.869 Q181.76 368.767 179.653 371.36 Q179.075 372.031 175.973 375.249 Q172.871 378.443 167.223 384.207 Z" fill="#000000" fill-rule="nonzero" fill-opacity="1" /><path clip-path="url(#clip850)" d="M16.4842 840.023 L16.4842 833.593 L58.5933 833.593 L58.5933 810.454 L64.0042 810.454 L64.0042 840.023 L16.4842 840.023 Z" fill="#000000" fill-rule="nonzero" fill-opacity="1" /><path clip-path="url(#clip850)" d="M32.4621 791.293 Q32.4621 796.004 36.1542 798.741 Q39.8145 801.478 46.212 801.478 Q52.6095 801.478 56.3017 798.773 Q59.9619 796.036 59.9619 791.293 Q59.9619 786.614 56.2698 783.877 Q52.5777 781.14 46.212 781.14 Q39.8781 781.14 36.186 783.877 Q32.4621 786.614 32.4621 791.293 M27.4968 791.293 Q27.4968 783.654 32.4621 779.294 Q37.4273 774.933 46.212 774.933 Q54.9649 774.933 59.9619 779.294 Q64.9272 783.654 64.9272 791.293 Q64.9272 798.964 59.9619 803.324 Q54.9649 807.653 46.212 807.653 Q37.4273 807.653 32.4621 803.324 Q27.4968 798.964 27.4968 791.293 Z" fill="#000000" fill-rule="nonzero" fill-opacity="1" /><path clip-path="url(#clip850)" d="M29.4065 742.5 L34.9447 742.5 Q33.6716 744.983 33.035 747.656 Q32.3984 750.33 32.3984 753.194 Q32.3984 757.555 33.7352 759.751 Q35.072 761.915 37.7456 761.915 Q39.7826 761.915 40.9603 760.356 Q42.1061 758.796 43.1565 754.086 L43.6021 752.08 Q44.9389 745.842 47.3897 743.232 Q49.8086 740.59 54.1691 740.59 Q59.1344 740.59 62.0308 744.537 Q64.9272 748.452 64.9272 755.327 Q64.9272 758.192 64.3543 761.311 Q63.8132 764.398 62.6992 767.836 L56.6518 767.836 Q58.3387 764.589 59.198 761.438 Q60.0256 758.287 60.0256 755.2 Q60.0256 751.062 58.6251 748.834 Q57.1929 746.606 54.6147 746.606 Q52.2276 746.606 50.9545 748.229 Q49.6813 749.821 48.5037 755.263 L48.0262 757.3 Q46.8804 762.743 44.5251 765.162 Q42.138 767.581 38.0002 767.581 Q32.9713 767.581 30.2341 764.016 Q27.4968 760.451 27.4968 753.895 Q27.4968 750.648 27.9743 747.784 Q28.4517 744.919 29.4065 742.5 Z" fill="#000000" fill-rule="nonzero" fill-opacity="1" /><path clip-path="url(#clip850)" d="M29.4065 708.539 L34.9447 708.539 Q33.6716 711.022 33.035 713.695 Q32.3984 716.369 32.3984 719.233 Q32.3984 723.594 33.7352 725.79 Q35.072 727.954 37.7456 727.954 Q39.7826 727.954 40.9603 726.395 Q42.1061 724.835 43.1565 720.125 L43.6021 718.119 Q44.9389 711.881 47.3897 709.271 Q49.8086 706.629 54.1691 706.629 Q59.1344 706.629 62.0308 710.576 Q64.9272 714.491 64.9272 721.366 Q64.9272 724.23 64.3543 727.35 Q63.8132 730.437 62.6992 733.875 L56.6518 733.875 Q58.3387 730.628 59.198 727.477 Q60.0256 724.326 60.0256 721.239 Q60.0256 717.101 58.6251 714.873 Q57.1929 712.645 54.6147 712.645 Q52.2276 712.645 50.9545 714.268 Q49.6813 715.86 48.5037 721.302 L48.0262 723.339 Q46.8804 728.782 44.5251 731.201 Q42.138 733.62 38.0002 733.62 Q32.9713 733.62 30.2341 730.055 Q27.4968 726.49 27.4968 719.934 Q27.4968 716.687 27.9743 713.823 Q28.4517 710.958 29.4065 708.539 Z" fill="#000000" fill-rule="nonzero" fill-opacity="1" /><path clip-path="url(#clip850)" d="M666.928 12.096 L675.111 12.096 L675.111 65.6895 L704.561 65.6895 L704.561 72.576 L666.928 72.576 L666.928 12.096 Z" fill="#000000" fill-rule="nonzero" fill-opacity="1" /><path clip-path="url(#clip850)" d="M728.947 32.4315 Q722.952 32.4315 719.468 37.1306 Q715.984 41.7891 715.984 49.9314 Q715.984 58.0738 719.428 62.7728 Q722.911 67.4314 728.947 67.4314 Q734.902 67.4314 738.386 62.7323 Q741.87 58.0333 741.87 49.9314 Q741.87 41.8701 738.386 37.1711 Q734.902 32.4315 728.947 32.4315 M728.947 26.1121 Q738.669 26.1121 744.219 32.4315 Q749.769 38.7509 749.769 49.9314 Q749.769 61.0714 744.219 67.4314 Q738.669 73.7508 728.947 73.7508 Q719.184 73.7508 713.635 67.4314 Q708.126 61.0714 708.126 49.9314 Q708.126 38.7509 713.635 32.4315 Q719.184 26.1121 728.947 26.1121 Z" fill="#000000" fill-rule="nonzero" fill-opacity="1" /><path clip-path="url(#clip850)" d="M791.048 28.5427 L791.048 35.5912 Q787.888 33.9709 784.485 33.1607 Q781.082 32.3505 777.436 32.3505 Q771.887 32.3505 769.092 34.0519 Q766.337 35.7533 766.337 39.156 Q766.337 41.7486 768.322 43.2475 Q770.307 44.7058 776.302 46.0426 L778.854 46.6097 Q786.794 48.3111 790.116 51.4303 Q793.478 54.509 793.478 60.0587 Q793.478 66.3781 788.455 70.0644 Q783.472 73.7508 774.722 73.7508 Q771.077 73.7508 767.107 73.0216 Q763.177 72.3329 758.802 70.9151 L758.802 63.2184 Q762.934 65.3654 766.945 66.4591 Q770.955 67.5124 774.884 67.5124 Q780.151 67.5124 782.986 65.73 Q785.822 63.9071 785.822 60.6258 Q785.822 57.5877 783.756 55.9673 Q781.73 54.3469 774.803 52.8481 L772.211 52.2405 Q765.284 50.7821 762.205 47.7845 Q759.126 44.7463 759.126 39.4801 Q759.126 33.0797 763.663 29.5959 Q768.2 26.1121 776.545 26.1121 Q780.677 26.1121 784.323 26.7198 Q787.969 27.3274 791.048 28.5427 Z" fill="#000000" fill-rule="nonzero" fill-opacity="1" /><path clip-path="url(#clip850)" d="M834.271 28.5427 L834.271 35.5912 Q831.111 33.9709 827.708 33.1607 Q824.305 32.3505 820.66 32.3505 Q815.11 32.3505 812.315 34.0519 Q809.56 35.7533 809.56 39.156 Q809.56 41.7486 811.545 43.2475 Q813.53 44.7058 819.525 46.0426 L822.077 46.6097 Q830.017 48.3111 833.339 51.4303 Q836.701 54.509 836.701 60.0587 Q836.701 66.3781 831.678 70.0644 Q826.695 73.7508 817.946 73.7508 Q814.3 73.7508 810.33 73.0216 Q806.4 72.3329 802.025 70.9151 L802.025 63.2184 Q806.157 65.3654 810.168 66.4591 Q814.178 67.5124 818.108 67.5124 Q823.374 67.5124 826.209 65.73 Q829.045 63.9071 829.045 60.6258 Q829.045 57.5877 826.979 55.9673 Q824.954 54.3469 818.027 52.8481 L815.434 52.2405 Q808.507 50.7821 805.428 47.7845 Q802.35 44.7463 802.35 39.4801 Q802.35 33.0797 806.887 29.5959 Q811.424 26.1121 819.768 26.1121 Q823.9 26.1121 827.546 26.7198 Q831.192 27.3274 834.271 28.5427 Z" fill="#000000" fill-rule="nonzero" fill-opacity="1" /><path clip-path="url(#clip850)" d="M875.266 12.096 L913.506 12.096 L913.506 18.9825 L883.449 18.9825 L883.449 36.8875 L912.251 36.8875 L912.251 43.7741 L883.449 43.7741 L883.449 65.6895 L914.236 65.6895 L914.236 72.576 L875.266 72.576 L875.266 12.096 Z" fill="#000000" fill-rule="nonzero" fill-opacity="1" /><path clip-path="url(#clip850)" d="M922.013 27.2059 L929.913 27.2059 L944.091 65.2844 L958.269 27.2059 L966.168 27.2059 L949.154 72.576 L939.027 72.576 L922.013 27.2059 Z" fill="#000000" fill-rule="nonzero" fill-opacity="1" /><path clip-path="url(#clip850)" d="M994.038 32.4315 Q988.043 32.4315 984.559 37.1306 Q981.075 41.7891 981.075 49.9314 Q981.075 58.0738 984.519 62.7728 Q988.002 67.4314 994.038 67.4314 Q999.993 67.4314 1003.48 62.7323 Q1006.96 58.0333 1006.96 49.9314 Q1006.96 41.8701 1003.48 37.1711 Q999.993 32.4315 994.038 32.4315 M994.038 26.1121 Q1003.76 26.1121 1009.31 32.4315 Q1014.86 38.7509 1014.86 49.9314 Q1014.86 61.0714 1009.31 67.4314 Q1003.76 73.7508 994.038 73.7508 Q984.276 73.7508 978.726 67.4314 Q973.217 61.0714 973.217 49.9314 Q973.217 38.7509 978.726 32.4315 Q984.276 26.1121 994.038 26.1121 Z" fill="#000000" fill-rule="nonzero" fill-opacity="1" /><path clip-path="url(#clip850)" d="M1027.22 9.54393 L1034.67 9.54393 L1034.67 72.576 L1027.22 72.576 L1027.22 9.54393 Z" fill="#000000" fill-rule="nonzero" fill-opacity="1" /><path clip-path="url(#clip850)" d="M1049.5 54.671 L1049.5 27.2059 L1056.95 27.2059 L1056.95 54.3874 Q1056.95 60.8284 1059.46 64.0691 Q1061.97 67.2693 1067 67.2693 Q1073.03 67.2693 1076.51 63.421 Q1080.04 59.5726 1080.04 52.9291 L1080.04 27.2059 L1087.49 27.2059 L1087.49 72.576 L1080.04 72.576 L1080.04 65.6084 Q1077.32 69.7404 1073.72 71.7658 Q1070.15 73.7508 1065.42 73.7508 Q1057.6 73.7508 1053.55 68.8897 Q1049.5 64.0286 1049.5 54.671 M1068.25 26.1121 L1068.25 26.1121 Z" fill="#000000" fill-rule="nonzero" fill-opacity="1" /><path clip-path="url(#clip850)" d="M1110.22 14.324 L1110.22 27.2059 L1125.57 27.2059 L1125.57 32.9987 L1110.22 32.9987 L1110.22 57.6282 Q1110.22 63.1779 1111.72 64.7578 Q1113.26 66.3376 1117.91 66.3376 L1125.57 66.3376 L1125.57 72.576 L1117.91 72.576 Q1109.29 72.576 1106.01 69.3758 Q1102.72 66.1351 1102.72 57.6282 L1102.72 32.9987 L1097.26 32.9987 L1097.26 27.2059 L1102.72 27.2059 L1102.72 14.324 L1110.22 14.324 Z" fill="#000000" fill-rule="nonzero" fill-opacity="1" /><path clip-path="url(#clip850)" d="M1135.37 27.2059 L1142.83 27.2059 L1142.83 72.576 L1135.37 72.576 L1135.37 27.2059 M1135.37 9.54393 L1142.83 9.54393 L1142.83 18.9825 L1135.37 18.9825 L1135.37 9.54393 Z" fill="#000000" fill-rule="nonzero" fill-opacity="1" /><path clip-path="url(#clip850)" d="M1176 32.4315 Q1170.01 32.4315 1166.53 37.1306 Q1163.04 41.7891 1163.04 49.9314 Q1163.04 58.0738 1166.49 62.7728 Q1169.97 67.4314 1176 67.4314 Q1181.96 67.4314 1185.44 62.7323 Q1188.93 58.0333 1188.93 49.9314 Q1188.93 41.8701 1185.44 37.1711 Q1181.96 32.4315 1176 32.4315 M1176 26.1121 Q1185.73 26.1121 1191.28 32.4315 Q1196.83 38.7509 1196.83 49.9314 Q1196.83 61.0714 1191.28 67.4314 Q1185.73 73.7508 1176 73.7508 Q1166.24 73.7508 1160.69 67.4314 Q1155.18 61.0714 1155.18 49.9314 Q1155.18 38.7509 1160.69 32.4315 Q1166.24 26.1121 1176 26.1121 Z" fill="#000000" fill-rule="nonzero" fill-opacity="1" /><path clip-path="url(#clip850)" d="M1246.9 45.1919 L1246.9 72.576 L1239.44 72.576 L1239.44 45.4349 Q1239.44 38.994 1236.93 35.7938 Q1234.42 32.5936 1229.4 32.5936 Q1223.36 32.5936 1219.88 36.4419 Q1216.39 40.2903 1216.39 46.9338 L1216.39 72.576 L1208.9 72.576 L1208.9 27.2059 L1216.39 27.2059 L1216.39 34.2544 Q1219.07 30.163 1222.67 28.1376 Q1226.32 26.1121 1231.06 26.1121 Q1238.87 26.1121 1242.89 30.9732 Q1246.9 35.7938 1246.9 45.1919 Z" fill="#000000" fill-rule="nonzero" fill-opacity="1" /><path clip-path="url(#clip850)" d="M1296.64 18.8205 L1296.64 65.8515 L1306.53 65.8515 Q1319.04 65.8515 1324.84 60.1802 Q1330.67 54.509 1330.67 42.2752 Q1330.67 30.1225 1324.84 24.4918 Q1319.04 18.8205 1306.53 18.8205 L1296.64 18.8205 M1288.46 12.096 L1305.27 12.096 Q1322.85 12.096 1331.07 19.4281 Q1339.3 26.7198 1339.3 42.2752 Q1339.3 57.9117 1331.03 65.2439 Q1322.77 72.576 1305.27 72.576 L1288.46 72.576 L1288.46 12.096 Z" fill="#000000" fill-rule="nonzero" fill-opacity="1" /><path clip-path="url(#clip850)" d="M1351.25 54.671 L1351.25 27.2059 L1358.7 27.2059 L1358.7 54.3874 Q1358.7 60.8284 1361.21 64.0691 Q1363.72 67.2693 1368.75 67.2693 Q1374.78 67.2693 1378.27 63.421 Q1381.79 59.5726 1381.79 52.9291 L1381.79 27.2059 L1389.24 27.2059 L1389.24 72.576 L1381.79 72.576 L1381.79 65.6084 Q1379.08 69.7404 1375.47 71.7658 Q1371.91 73.7508 1367.17 73.7508 Q1359.35 73.7508 1355.3 68.8897 Q1351.25 64.0286 1351.25 54.671 M1370 26.1121 L1370 26.1121 Z" fill="#000000" fill-rule="nonzero" fill-opacity="1" /><path clip-path="url(#clip850)" d="M1430.89 34.1734 Q1429.63 33.4443 1428.13 33.1202 Q1426.67 32.7556 1424.89 32.7556 Q1418.57 32.7556 1415.17 36.8875 Q1411.81 40.9789 1411.81 48.6757 L1411.81 72.576 L1404.31 72.576 L1404.31 27.2059 L1411.81 27.2059 L1411.81 34.2544 Q1414.16 30.1225 1417.92 28.1376 Q1421.69 26.1121 1427.08 26.1121 Q1427.85 26.1121 1428.78 26.2337 Q1429.71 26.3147 1430.85 26.5172 L1430.89 34.1734 Z" fill="#000000" fill-rule="nonzero" fill-opacity="1" /><path clip-path="url(#clip850)" d="M1438.71 27.2059 L1446.16 27.2059 L1446.16 72.576 L1438.71 72.576 L1438.71 27.2059 M1438.71 9.54393 L1446.16 9.54393 L1446.16 18.9825 L1438.71 18.9825 L1438.71 9.54393 Z" fill="#000000" fill-rule="nonzero" fill-opacity="1" /><path clip-path="url(#clip850)" d="M1499.47 45.1919 L1499.47 72.576 L1492.02 72.576 L1492.02 45.4349 Q1492.02 38.994 1489.5 35.7938 Q1486.99 32.5936 1481.97 32.5936 Q1475.93 32.5936 1472.45 36.4419 Q1468.97 40.2903 1468.97 46.9338 L1468.97 72.576 L1461.47 72.576 L1461.47 27.2059 L1468.97 27.2059 L1468.97 34.2544 Q1471.64 30.163 1475.25 28.1376 Q1478.89 26.1121 1483.63 26.1121 Q1491.45 26.1121 1495.46 30.9732 Q1499.47 35.7938 1499.47 45.1919 Z" fill="#000000" fill-rule="nonzero" fill-opacity="1" /><path clip-path="url(#clip850)" d="M1544.19 49.3643 Q1544.19 41.2625 1540.83 36.8065 Q1537.51 32.3505 1531.47 32.3505 Q1525.48 32.3505 1522.11 36.8065 Q1518.79 41.2625 1518.79 49.3643 Q1518.79 57.4256 1522.11 61.8816 Q1525.48 66.3376 1531.47 66.3376 Q1537.51 66.3376 1540.83 61.8816 Q1544.19 57.4256 1544.19 49.3643 M1551.65 66.9452 Q1551.65 78.5308 1546.5 84.1616 Q1541.36 89.8329 1530.74 89.8329 Q1526.81 89.8329 1523.33 89.2252 Q1519.85 88.6581 1516.56 87.4428 L1516.56 80.1917 Q1519.85 81.9741 1523.05 82.8248 Q1526.25 83.6755 1529.57 83.6755 Q1536.9 83.6755 1540.55 79.8271 Q1544.19 76.0193 1544.19 68.282 L1544.19 64.5957 Q1541.88 68.6061 1538.28 70.5911 Q1534.67 72.576 1529.65 72.576 Q1521.3 72.576 1516.2 66.2161 Q1511.1 59.8562 1511.1 49.3643 Q1511.1 38.832 1516.2 32.472 Q1521.3 26.1121 1529.65 26.1121 Q1534.67 26.1121 1538.28 28.0971 Q1541.88 30.082 1544.19 34.0924 L1544.19 27.2059 L1551.65 27.2059 L1551.65 66.9452 Z" fill="#000000" fill-rule="nonzero" fill-opacity="1" /><path clip-path="url(#clip850)" d="M1585.31 12.096 L1636.47 12.096 L1636.47 18.9825 L1615 18.9825 L1615 72.576 L1606.78 72.576 L1606.78 18.9825 L1585.31 18.9825 L1585.31 12.096 Z" fill="#000000" fill-rule="nonzero" fill-opacity="1" /><path clip-path="url(#clip850)" d="M1658.14 34.1734 Q1656.89 33.4443 1655.39 33.1202 Q1653.93 32.7556 1652.15 32.7556 Q1645.83 32.7556 1642.43 36.8875 Q1639.06 40.9789 1639.06 48.6757 L1639.06 72.576 L1631.57 72.576 L1631.57 27.2059 L1639.06 27.2059 L1639.06 34.2544 Q1641.41 30.1225 1645.18 28.1376 Q1648.95 26.1121 1654.34 26.1121 Q1655.11 26.1121 1656.04 26.2337 Q1656.97 26.3147 1658.1 26.5172 L1658.14 34.1734 Z" fill="#000000" fill-rule="nonzero" fill-opacity="1" /><path clip-path="url(#clip850)" d="M1686.58 49.7694 Q1677.55 49.7694 1674.06 51.8354 Q1670.58 53.9013 1670.58 58.8839 Q1670.58 62.8538 1673.17 65.2034 Q1675.81 67.5124 1680.3 67.5124 Q1686.5 67.5124 1690.23 63.1374 Q1693.99 58.7219 1693.99 51.4303 L1693.99 49.7694 L1686.58 49.7694 M1701.45 46.6907 L1701.45 72.576 L1693.99 72.576 L1693.99 65.6895 Q1691.44 69.8214 1687.63 71.8063 Q1683.83 73.7508 1678.32 73.7508 Q1671.35 73.7508 1667.22 69.8619 Q1663.13 65.9325 1663.13 59.3701 Q1663.13 51.7138 1668.23 47.825 Q1673.37 43.9361 1683.54 43.9361 L1693.99 43.9361 L1693.99 43.2069 Q1693.99 38.0623 1690.59 35.2672 Q1687.23 32.4315 1681.11 32.4315 Q1677.22 32.4315 1673.54 33.3632 Q1669.85 34.295 1666.45 36.1584 L1666.45 29.2718 Q1670.54 27.692 1674.39 26.9223 Q1678.24 26.1121 1681.88 26.1121 Q1691.73 26.1121 1696.59 31.2163 Q1701.45 36.3204 1701.45 46.6907 Z" fill="#000000" fill-rule="nonzero" fill-opacity="1" /><path clip-path="url(#clip850)" d="M1716.8 27.2059 L1724.25 27.2059 L1724.25 72.576 L1716.8 72.576 L1716.8 27.2059 M1716.8 9.54393 L1724.25 9.54393 L1724.25 18.9825 L1716.8 18.9825 L1716.8 9.54393 Z" fill="#000000" fill-rule="nonzero" fill-opacity="1" /><path clip-path="url(#clip850)" d="M1777.56 45.1919 L1777.56 72.576 L1770.11 72.576 L1770.11 45.4349 Q1770.11 38.994 1767.6 35.7938 Q1765.09 32.5936 1760.06 32.5936 Q1754.03 32.5936 1750.54 36.4419 Q1747.06 40.2903 1747.06 46.9338 L1747.06 72.576 L1739.57 72.576 L1739.57 27.2059 L1747.06 27.2059 L1747.06 34.2544 Q1749.73 30.163 1753.34 28.1376 Q1756.99 26.1121 1761.73 26.1121 Q1769.54 26.1121 1773.55 30.9732 Q1777.56 35.7938 1777.56 45.1919 Z" fill="#000000" fill-rule="nonzero" fill-opacity="1" /><path clip-path="url(#clip850)" d="M1792.43 27.2059 L1799.88 27.2059 L1799.88 72.576 L1792.43 72.576 L1792.43 27.2059 M1792.43 9.54393 L1799.88 9.54393 L1799.88 18.9825 L1792.43 18.9825 L1792.43 9.54393 Z" fill="#000000" fill-rule="nonzero" fill-opacity="1" /><path clip-path="url(#clip850)" d="M1853.19 45.1919 L1853.19 72.576 L1845.74 72.576 L1845.74 45.4349 Q1845.74 38.994 1843.23 35.7938 Q1840.72 32.5936 1835.69 32.5936 Q1829.66 32.5936 1826.18 36.4419 Q1822.69 40.2903 1822.69 46.9338 L1822.69 72.576 L1815.2 72.576 L1815.2 27.2059 L1822.69 27.2059 L1822.69 34.2544 Q1825.36 30.163 1828.97 28.1376 Q1832.62 26.1121 1837.36 26.1121 Q1845.17 26.1121 1849.18 30.9732 Q1853.19 35.7938 1853.19 45.1919 Z" fill="#000000" fill-rule="nonzero" fill-opacity="1" /><path clip-path="url(#clip850)" d="M1897.92 49.3643 Q1897.92 41.2625 1894.55 36.8065 Q1891.23 32.3505 1885.2 32.3505 Q1879.2 32.3505 1875.84 36.8065 Q1872.52 41.2625 1872.52 49.3643 Q1872.52 57.4256 1875.84 61.8816 Q1879.2 66.3376 1885.2 66.3376 Q1891.23 66.3376 1894.55 61.8816 Q1897.92 57.4256 1897.92 49.3643 M1905.37 66.9452 Q1905.37 78.5308 1900.23 84.1616 Q1895.08 89.8329 1884.47 89.8329 Q1880.54 89.8329 1877.05 89.2252 Q1873.57 88.6581 1870.29 87.4428 L1870.29 80.1917 Q1873.57 81.9741 1876.77 82.8248 Q1879.97 83.6755 1883.29 83.6755 Q1890.62 83.6755 1894.27 79.8271 Q1897.92 76.0193 1897.92 68.282 L1897.92 64.5957 Q1895.61 68.6061 1892 70.5911 Q1888.4 72.576 1883.37 72.576 Q1875.03 72.576 1869.92 66.2161 Q1864.82 59.8562 1864.82 49.3643 Q1864.82 38.832 1869.92 32.472 Q1875.03 26.1121 1883.37 26.1121 Q1888.4 26.1121 1892 28.0971 Q1895.61 30.082 1897.92 34.0924 L1897.92 27.2059 L1905.37 27.2059 L1905.37 66.9452 Z" fill="#000000" fill-rule="nonzero" fill-opacity="1" /><polyline clip-path="url(#clip851)" style="stroke:#009af9; stroke-linecap:round; stroke-linejoin:round; stroke-width:4; stroke-opacity:1; fill:none" points="279.916,194.101 300.041,214.343 320.165,261.987 340.29,308.311 360.415,353.981 380.539,398.936 400.664,442.84 420.789,485.745 440.913,527.17 461.038,567.033 481.163,605.945 501.287,643.694 521.412,680.393 541.537,715.956 561.661,750.374 581.786,783.868 601.911,816.757 622.035,848.497 642.16,879.311 662.285,909.099 682.409,937.474 702.534,964.081 722.659,987.954 742.783,1009.71 762.908,1028.87 783.033,1045.22 803.157,1059.85 823.282,1073.19 843.407,1085.74 863.531,1098.18 883.656,1110.38 903.781,1122.21 923.905,1133.61 944.03,1144.76 964.155,1155.72 984.279,1166.41 1004.4,1176.72 1024.53,1186.66 1044.65,1196.45 1064.78,1205.74 1084.9,1214.64 1105.03,1223.25 1125.15,1231.37 1145.28,1238.85 1165.4,1245.73 1185.53,1252.21 1205.65,1258.5 1225.78,1264.67 1245.9,1270.71 1266.02,1276.75 1286.15,1282.69 1306.27,1288.65 1326.4,1294.57 1346.52,1300.44 1366.65,1306.25 1386.77,1311.79 1406.9,1316.99 1427.02,1322.06 1447.15,1326.91 1467.27,1331.24 1487.4,1335.46 1507.52,1339.6 1527.64,1343.47 1547.77,1346.81 1567.89,1349.61 1588.02,1351.96 1608.14,1354.05 1628.27,1355.99 1648.39,1357.84 1668.52,1359.62 1688.64,1361.37 1708.77,1363.1 1728.89,1364.82 1749.02,1366.56 1769.14,1368.3 1789.27,1369.83 1809.39,1371.31 1829.51,1372.68 1849.64,1373.92 1869.76,1375.14 1889.89,1376.31 1910.01,1377.36 1930.14,1378.31 1950.26,1379.16 1970.39,1379.96 1990.51,1380.76 2010.64,1381.47 2030.76,1382.14 2050.89,1382.69 2071.01,1383.08 2091.14,1383.42 2111.26,1383.76 2131.38,1384.07 2151.51,1384.38 2171.63,1384.68 2191.76,1384.98 2211.88,1385.28 2232.01,1385.58 2252.13,1385.86 2272.26,1386.13 2292.38,1386.4 "/>
<polyline clip-path="url(#clip851)" style="stroke:#e26f46; stroke-linecap:round; stroke-linejoin:round; stroke-width:4; stroke-opacity:1; fill:none" points="279.916,160.256 300.041,196.409 320.165,235.672 340.29,273.24 360.415,309.234 380.539,344.501 400.664,378.47 420.789,410.671 440.913,441.271 461.038,469.985 481.163,496.58 501.287,521.296 521.412,544.682 541.537,566.976 561.661,588.32 581.786,609.118 601.911,629.347 622.035,649.274 642.16,668.987 662.285,688.37 682.409,707.392 702.534,725.711 722.659,743.362 742.783,760.653 762.908,777.465 783.033,794.256 803.157,811.598 823.282,828.787 843.407,845.97 863.531,863.242 883.656,880.424 903.781,897.355 923.905,913.89 944.03,930.394 964.155,946.775 984.279,962.892 1004.4,978.997 1024.53,995.226 1044.65,1011.23 1064.78,1026.75 1084.9,1041.91 1105.03,1056.36 1125.15,1069.99 1145.28,1082.84 1165.4,1095.13 1185.53,1106.79 1205.65,1118.26 1225.78,1129.39 1245.9,1140.24 1266.02,1150.96 1286.15,1161.4 1306.27,1171.63 1326.4,1181.69 1346.52,1191.45 1366.65,1200.99 1386.77,1210.08 1406.9,1218.98 1427.02,1227.69 1447.15,1235.83 1467.27,1243.66 1487.4,1251.42 1507.52,1259.01 1527.64,1266.12 1547.77,1272.64 1567.89,1278.36 1588.02,1283.56 1608.14,1288.63 1628.27,1293.24 1648.39,1297.7 1668.52,1301.94 1688.64,1306.14 1708.77,1310.21 1728.89,1314.15 1749.02,1317.95 1769.14,1321.72 1789.27,1325.42 1809.39,1328.92 1829.51,1332.14 1849.64,1335.11 1869.76,1337.85 1889.89,1340.22 1910.01,1342.24 1930.14,1344.15 1950.26,1345.98 1970.39,1347.81 1990.51,1349.55 2010.64,1351.13 2030.76,1352.65 2050.89,1353.96 2071.01,1355.17 2091.14,1356.31 2111.26,1357.36 2131.38,1358.42 2151.51,1359.36 2171.63,1360.24 2191.76,1361.08 2211.88,1361.87 2232.01,1362.63 2252.13,1363.39 2272.26,1364.1 2292.38,1364.76 "/>
<path clip-path="url(#clip850)" d="M1717.87 322.316 L2281.65 322.316 L2281.65 166.796 L1717.87 166.796  Z" fill="#ffffff" fill-rule="evenodd" fill-opacity="1"/>
<polyline clip-path="url(#clip850)" style="stroke:#000000; stroke-linecap:round; stroke-linejoin:round; stroke-width:4; stroke-opacity:1; fill:none" points="1717.87,322.316 2281.65,322.316 2281.65,166.796 1717.87,166.796 1717.87,322.316 "/>
<polyline clip-path="url(#clip850)" style="stroke:#009af9; stroke-linecap:round; stroke-linejoin:round; stroke-width:4; stroke-opacity:1; fill:none" points="1741.57,218.636 1883.78,218.636 "/>
<path clip-path="url(#clip850)" d="M1907.49 201.356 L1936.72 201.356 L1936.72 205.291 L1924.45 205.291 L1924.45 235.916 L1919.75 235.916 L1919.75 205.291 L1907.49 205.291 L1907.49 201.356 Z" fill="#000000" fill-rule="nonzero" fill-opacity="1" /><path clip-path="url(#clip850)" d="M1949.11 213.971 Q1948.39 213.555 1947.53 213.37 Q1946.7 213.161 1945.68 213.161 Q1942.07 213.161 1940.12 215.522 Q1938.2 217.86 1938.2 222.258 L1938.2 235.916 L1933.92 235.916 L1933.92 209.99 L1938.2 209.99 L1938.2 214.018 Q1939.55 211.657 1941.7 210.522 Q1943.85 209.365 1946.93 209.365 Q1947.37 209.365 1947.9 209.434 Q1948.43 209.481 1949.08 209.596 L1949.11 213.971 Z" fill="#000000" fill-rule="nonzero" fill-opacity="1" /><path clip-path="url(#clip850)" d="M1965.36 222.883 Q1960.19 222.883 1958.2 224.064 Q1956.21 225.244 1956.21 228.092 Q1956.21 230.36 1957.69 231.703 Q1959.2 233.022 1961.77 233.022 Q1965.31 233.022 1967.44 230.522 Q1969.59 227.999 1969.59 223.832 L1969.59 222.883 L1965.36 222.883 M1973.85 221.124 L1973.85 235.916 L1969.59 235.916 L1969.59 231.981 Q1968.13 234.342 1965.96 235.476 Q1963.78 236.587 1960.63 236.587 Q1956.65 236.587 1954.29 234.365 Q1951.95 232.119 1951.95 228.369 Q1951.95 223.994 1954.87 221.772 Q1957.81 219.55 1963.62 219.55 L1969.59 219.55 L1969.59 219.133 Q1969.59 216.194 1967.65 214.596 Q1965.73 212.976 1962.23 212.976 Q1960.01 212.976 1957.9 213.508 Q1955.8 214.041 1953.85 215.106 L1953.85 211.17 Q1956.19 210.268 1958.39 209.828 Q1960.59 209.365 1962.67 209.365 Q1968.3 209.365 1971.07 212.282 Q1973.85 215.198 1973.85 221.124 Z" fill="#000000" fill-rule="nonzero" fill-opacity="1" /><path clip-path="url(#clip850)" d="M1982.62 209.99 L1986.88 209.99 L1986.88 235.916 L1982.62 235.916 L1982.62 209.99 M1982.62 199.897 L1986.88 199.897 L1986.88 205.291 L1982.62 205.291 L1982.62 199.897 Z" fill="#000000" fill-rule="nonzero" fill-opacity="1" /><path clip-path="url(#clip850)" d="M2017.35 220.268 L2017.35 235.916 L2013.09 235.916 L2013.09 220.407 Q2013.09 216.726 2011.65 214.897 Q2010.22 213.069 2007.35 213.069 Q2003.9 213.069 2001.91 215.268 Q1999.92 217.467 1999.92 221.263 L1999.92 235.916 L1995.63 235.916 L1995.63 209.99 L1999.92 209.99 L1999.92 214.018 Q2001.44 211.68 2003.5 210.522 Q2005.59 209.365 2008.29 209.365 Q2012.76 209.365 2015.05 212.143 Q2017.35 214.897 2017.35 220.268 Z" fill="#000000" fill-rule="nonzero" fill-opacity="1" /><path clip-path="url(#clip850)" d="M2025.84 209.99 L2030.1 209.99 L2030.1 235.916 L2025.84 235.916 L2025.84 209.99 M2025.84 199.897 L2030.1 199.897 L2030.1 205.291 L2025.84 205.291 L2025.84 199.897 Z" fill="#000000" fill-rule="nonzero" fill-opacity="1" /><path clip-path="url(#clip850)" d="M2060.56 220.268 L2060.56 235.916 L2056.3 235.916 L2056.3 220.407 Q2056.3 216.726 2054.87 214.897 Q2053.43 213.069 2050.56 213.069 Q2047.11 213.069 2045.12 215.268 Q2043.13 217.467 2043.13 221.263 L2043.13 235.916 L2038.85 235.916 L2038.85 209.99 L2043.13 209.99 L2043.13 214.018 Q2044.66 211.68 2046.72 210.522 Q2048.8 209.365 2051.51 209.365 Q2055.98 209.365 2058.27 212.143 Q2060.56 214.897 2060.56 220.268 Z" fill="#000000" fill-rule="nonzero" fill-opacity="1" /><path clip-path="url(#clip850)" d="M2086.12 222.652 Q2086.12 218.022 2084.2 215.476 Q2082.3 212.93 2078.85 212.93 Q2075.42 212.93 2073.5 215.476 Q2071.6 218.022 2071.6 222.652 Q2071.6 227.258 2073.5 229.805 Q2075.42 232.351 2078.85 232.351 Q2082.3 232.351 2084.2 229.805 Q2086.12 227.258 2086.12 222.652 M2090.38 232.698 Q2090.38 239.318 2087.44 242.536 Q2084.5 245.777 2078.43 245.777 Q2076.19 245.777 2074.2 245.43 Q2072.21 245.105 2070.33 244.411 L2070.33 240.268 Q2072.21 241.286 2074.04 241.772 Q2075.86 242.258 2077.76 242.258 Q2081.95 242.258 2084.04 240.059 Q2086.12 237.883 2086.12 233.462 L2086.12 231.356 Q2084.8 233.647 2082.74 234.781 Q2080.68 235.916 2077.81 235.916 Q2073.04 235.916 2070.12 232.281 Q2067.21 228.647 2067.21 222.652 Q2067.21 216.633 2070.12 212.999 Q2073.04 209.365 2077.81 209.365 Q2080.68 209.365 2082.74 210.499 Q2084.8 211.633 2086.12 213.925 L2086.12 209.99 L2090.38 209.99 L2090.38 232.698 Z" fill="#000000" fill-rule="nonzero" fill-opacity="1" /><path clip-path="url(#clip850)" d="M2114.41 201.356 L2119.08 201.356 L2119.08 231.981 L2135.91 231.981 L2135.91 235.916 L2114.41 235.916 L2114.41 201.356 Z" fill="#000000" fill-rule="nonzero" fill-opacity="1" /><path clip-path="url(#clip850)" d="M2149.85 212.976 Q2146.42 212.976 2144.43 215.661 Q2142.44 218.323 2142.44 222.976 Q2142.44 227.629 2144.41 230.314 Q2146.4 232.976 2149.85 232.976 Q2153.25 232.976 2155.24 230.291 Q2157.23 227.606 2157.23 222.976 Q2157.23 218.37 2155.24 215.684 Q2153.25 212.976 2149.85 212.976 M2149.85 209.365 Q2155.4 209.365 2158.57 212.976 Q2161.74 216.587 2161.74 222.976 Q2161.74 229.342 2158.57 232.976 Q2155.4 236.587 2149.85 236.587 Q2144.27 236.587 2141.1 232.976 Q2137.95 229.342 2137.95 222.976 Q2137.95 216.587 2141.1 212.976 Q2144.27 209.365 2149.85 209.365 Z" fill="#000000" fill-rule="nonzero" fill-opacity="1" /><path clip-path="url(#clip850)" d="M2185.33 210.754 L2185.33 214.782 Q2183.53 213.856 2181.58 213.393 Q2179.64 212.93 2177.55 212.93 Q2174.38 212.93 2172.78 213.902 Q2171.21 214.874 2171.21 216.819 Q2171.21 218.3 2172.35 219.157 Q2173.48 219.99 2176.91 220.754 L2178.36 221.078 Q2182.9 222.05 2184.8 223.832 Q2186.72 225.592 2186.72 228.763 Q2186.72 232.374 2183.85 234.481 Q2181 236.587 2176 236.587 Q2173.92 236.587 2171.65 236.17 Q2169.41 235.777 2166.91 234.967 L2166.91 230.569 Q2169.27 231.795 2171.56 232.42 Q2173.85 233.022 2176.09 233.022 Q2179.1 233.022 2180.72 232.004 Q2182.34 230.962 2182.34 229.087 Q2182.34 227.351 2181.16 226.425 Q2180.01 225.499 2176.05 224.643 L2174.57 224.295 Q2170.61 223.462 2168.85 221.749 Q2167.09 220.013 2167.09 217.004 Q2167.09 213.346 2169.68 211.356 Q2172.28 209.365 2177.04 209.365 Q2179.41 209.365 2181.49 209.712 Q2183.57 210.059 2185.33 210.754 Z" fill="#000000" fill-rule="nonzero" fill-opacity="1" /><path clip-path="url(#clip850)" d="M2210.03 210.754 L2210.03 214.782 Q2208.22 213.856 2206.28 213.393 Q2204.34 212.93 2202.25 212.93 Q2199.08 212.93 2197.48 213.902 Q2195.91 214.874 2195.91 216.819 Q2195.91 218.3 2197.04 219.157 Q2198.18 219.99 2201.6 220.754 L2203.06 221.078 Q2207.6 222.05 2209.5 223.832 Q2211.42 225.592 2211.42 228.763 Q2211.42 232.374 2208.55 234.481 Q2205.7 236.587 2200.7 236.587 Q2198.62 236.587 2196.35 236.17 Q2194.1 235.777 2191.6 234.967 L2191.6 230.569 Q2193.97 231.795 2196.26 232.42 Q2198.55 233.022 2200.79 233.022 Q2203.8 233.022 2205.42 232.004 Q2207.04 230.962 2207.04 229.087 Q2207.04 227.351 2205.86 226.425 Q2204.71 225.499 2200.75 224.643 L2199.27 224.295 Q2195.31 223.462 2193.55 221.749 Q2191.79 220.013 2191.79 217.004 Q2191.79 213.346 2194.38 211.356 Q2196.97 209.365 2201.74 209.365 Q2204.1 209.365 2206.19 209.712 Q2208.27 210.059 2210.03 210.754 Z" fill="#000000" fill-rule="nonzero" fill-opacity="1" /><polyline clip-path="url(#clip850)" style="stroke:#e26f46; stroke-linecap:round; stroke-linejoin:round; stroke-width:4; stroke-opacity:1; fill:none" points="1741.57,270.476 1883.78,270.476 "/>
<path clip-path="url(#clip850)" d="M1920.68 287.756 L1907.49 253.196 L1912.37 253.196 L1923.32 282.293 L1934.29 253.196 L1939.15 253.196 L1925.98 287.756 L1920.68 287.756 Z" fill="#000000" fill-rule="nonzero" fill-opacity="1" /><path clip-path="url(#clip850)" d="M1952.11 274.723 Q1946.95 274.723 1944.96 275.904 Q1942.97 277.084 1942.97 279.932 Q1942.97 282.2 1944.45 283.543 Q1945.96 284.862 1948.53 284.862 Q1952.07 284.862 1954.2 282.362 Q1956.35 279.839 1956.35 275.672 L1956.35 274.723 L1952.11 274.723 M1960.61 272.964 L1960.61 287.756 L1956.35 287.756 L1956.35 283.821 Q1954.89 286.182 1952.72 287.316 Q1950.54 288.427 1947.39 288.427 Q1943.41 288.427 1941.05 286.205 Q1938.71 283.959 1938.71 280.209 Q1938.71 275.834 1941.63 273.612 Q1944.57 271.39 1950.38 271.39 L1956.35 271.39 L1956.35 270.973 Q1956.35 268.034 1954.41 266.436 Q1952.49 264.816 1948.99 264.816 Q1946.77 264.816 1944.66 265.348 Q1942.55 265.881 1940.61 266.946 L1940.61 263.01 Q1942.95 262.108 1945.15 261.668 Q1947.35 261.205 1949.43 261.205 Q1955.05 261.205 1957.83 264.122 Q1960.61 267.038 1960.61 272.964 Z" fill="#000000" fill-rule="nonzero" fill-opacity="1" /><path clip-path="url(#clip850)" d="M1969.38 251.737 L1973.64 251.737 L1973.64 287.756 L1969.38 287.756 L1969.38 251.737 Z" fill="#000000" fill-rule="nonzero" fill-opacity="1" /><path clip-path="url(#clip850)" d="M1982.55 261.83 L1986.81 261.83 L1986.81 287.756 L1982.55 287.756 L1982.55 261.83 M1982.55 251.737 L1986.81 251.737 L1986.81 257.131 L1982.55 257.131 L1982.55 251.737 Z" fill="#000000" fill-rule="nonzero" fill-opacity="1" /><path clip-path="url(#clip850)" d="M2012.79 265.765 L2012.79 251.737 L2017.04 251.737 L2017.04 287.756 L2012.79 287.756 L2012.79 283.867 Q2011.44 286.182 2009.38 287.316 Q2007.35 288.427 2004.48 288.427 Q1999.78 288.427 1996.81 284.677 Q1993.87 280.927 1993.87 274.816 Q1993.87 268.705 1996.81 264.955 Q1999.78 261.205 2004.48 261.205 Q2007.35 261.205 2009.38 262.339 Q2011.44 263.45 2012.79 265.765 M1998.27 274.816 Q1998.27 279.515 2000.19 282.2 Q2002.14 284.862 2005.52 284.862 Q2008.9 284.862 2010.84 282.2 Q2012.79 279.515 2012.79 274.816 Q2012.79 270.117 2010.84 267.455 Q2008.9 264.77 2005.52 264.77 Q2002.14 264.77 2000.19 267.455 Q1998.27 270.117 1998.27 274.816 Z" fill="#000000" fill-rule="nonzero" fill-opacity="1" /><path clip-path="url(#clip850)" d="M2037.6 274.723 Q2032.44 274.723 2030.45 275.904 Q2028.46 277.084 2028.46 279.932 Q2028.46 282.2 2029.94 283.543 Q2031.44 284.862 2034.01 284.862 Q2037.55 284.862 2039.68 282.362 Q2041.84 279.839 2041.84 275.672 L2041.84 274.723 L2037.6 274.723 M2046.1 272.964 L2046.1 287.756 L2041.84 287.756 L2041.84 283.821 Q2040.38 286.182 2038.2 287.316 Q2036.03 288.427 2032.88 288.427 Q2028.9 288.427 2026.54 286.205 Q2024.2 283.959 2024.2 280.209 Q2024.2 275.834 2027.11 273.612 Q2030.05 271.39 2035.86 271.39 L2041.84 271.39 L2041.84 270.973 Q2041.84 268.034 2039.89 266.436 Q2037.97 264.816 2034.48 264.816 Q2032.25 264.816 2030.15 265.348 Q2028.04 265.881 2026.1 266.946 L2026.1 263.01 Q2028.43 262.108 2030.63 261.668 Q2032.83 261.205 2034.92 261.205 Q2040.54 261.205 2043.32 264.122 Q2046.1 267.038 2046.1 272.964 Z" fill="#000000" fill-rule="nonzero" fill-opacity="1" /><path clip-path="url(#clip850)" d="M2059.08 254.469 L2059.08 261.83 L2067.85 261.83 L2067.85 265.14 L2059.08 265.14 L2059.08 279.214 Q2059.08 282.385 2059.94 283.288 Q2060.82 284.191 2063.48 284.191 L2067.85 284.191 L2067.85 287.756 L2063.48 287.756 Q2058.55 287.756 2056.67 285.927 Q2054.8 284.075 2054.8 279.214 L2054.8 265.14 L2051.67 265.14 L2051.67 261.83 L2054.8 261.83 L2054.8 254.469 L2059.08 254.469 Z" fill="#000000" fill-rule="nonzero" fill-opacity="1" /><path clip-path="url(#clip850)" d="M2073.46 261.83 L2077.72 261.83 L2077.72 287.756 L2073.46 287.756 L2073.46 261.83 M2073.46 251.737 L2077.72 251.737 L2077.72 257.131 L2073.46 257.131 L2073.46 251.737 Z" fill="#000000" fill-rule="nonzero" fill-opacity="1" /><path clip-path="url(#clip850)" d="M2096.67 264.816 Q2093.25 264.816 2091.26 267.501 Q2089.27 270.163 2089.27 274.816 Q2089.27 279.469 2091.23 282.154 Q2093.23 284.816 2096.67 284.816 Q2100.08 284.816 2102.07 282.131 Q2104.06 279.446 2104.06 274.816 Q2104.06 270.21 2102.07 267.524 Q2100.08 264.816 2096.67 264.816 M2096.67 261.205 Q2102.23 261.205 2105.4 264.816 Q2108.57 268.427 2108.57 274.816 Q2108.57 281.182 2105.4 284.816 Q2102.23 288.427 2096.67 288.427 Q2091.1 288.427 2087.92 284.816 Q2084.78 281.182 2084.78 274.816 Q2084.78 268.427 2087.92 264.816 Q2091.1 261.205 2096.67 261.205 Z" fill="#000000" fill-rule="nonzero" fill-opacity="1" /><path clip-path="url(#clip850)" d="M2137.18 272.108 L2137.18 287.756 L2132.92 287.756 L2132.92 272.247 Q2132.92 268.566 2131.49 266.737 Q2130.05 264.909 2127.18 264.909 Q2123.73 264.909 2121.74 267.108 Q2119.75 269.307 2119.75 273.103 L2119.75 287.756 L2115.47 287.756 L2115.47 261.83 L2119.75 261.83 L2119.75 265.858 Q2121.28 263.52 2123.34 262.362 Q2125.42 261.205 2128.13 261.205 Q2132.6 261.205 2134.89 263.983 Q2137.18 266.737 2137.18 272.108 Z" fill="#000000" fill-rule="nonzero" fill-opacity="1" /><path clip-path="url(#clip850)" d="M2160.93 253.196 L2165.61 253.196 L2165.61 283.821 L2182.44 283.821 L2182.44 287.756 L2160.93 287.756 L2160.93 253.196 Z" fill="#000000" fill-rule="nonzero" fill-opacity="1" /><path clip-path="url(#clip850)" d="M2196.37 264.816 Q2192.95 264.816 2190.96 267.501 Q2188.97 270.163 2188.97 274.816 Q2188.97 279.469 2190.93 282.154 Q2192.92 284.816 2196.37 284.816 Q2199.78 284.816 2201.77 282.131 Q2203.76 279.446 2203.76 274.816 Q2203.76 270.21 2201.77 267.524 Q2199.78 264.816 2196.37 264.816 M2196.37 261.205 Q2201.93 261.205 2205.1 264.816 Q2208.27 268.427 2208.27 274.816 Q2208.27 281.182 2205.1 284.816 Q2201.93 288.427 2196.37 288.427 Q2190.79 288.427 2187.62 284.816 Q2184.47 281.182 2184.47 274.816 Q2184.47 268.427 2187.62 264.816 Q2190.79 261.205 2196.37 261.205 Z" fill="#000000" fill-rule="nonzero" fill-opacity="1" /><path clip-path="url(#clip850)" d="M2231.86 262.594 L2231.86 266.622 Q2230.05 265.696 2228.11 265.233 Q2226.16 264.77 2224.08 264.77 Q2220.91 264.77 2219.31 265.742 Q2217.74 266.714 2217.74 268.659 Q2217.74 270.14 2218.87 270.997 Q2220.01 271.83 2223.43 272.594 L2224.89 272.918 Q2229.43 273.89 2231.33 275.672 Q2233.25 277.432 2233.25 280.603 Q2233.25 284.214 2230.38 286.321 Q2227.53 288.427 2222.53 288.427 Q2220.45 288.427 2218.18 288.01 Q2215.93 287.617 2213.43 286.807 L2213.43 282.409 Q2215.79 283.635 2218.09 284.26 Q2220.38 284.862 2222.62 284.862 Q2225.63 284.862 2227.25 283.844 Q2228.87 282.802 2228.87 280.927 Q2228.87 279.191 2227.69 278.265 Q2226.53 277.339 2222.58 276.483 L2221.09 276.135 Q2217.14 275.302 2215.38 273.589 Q2213.62 271.853 2213.62 268.844 Q2213.62 265.186 2216.21 263.196 Q2218.8 261.205 2223.57 261.205 Q2225.93 261.205 2228.02 261.552 Q2230.1 261.899 2231.86 262.594 Z" fill="#000000" fill-rule="nonzero" fill-opacity="1" /><path clip-path="url(#clip850)" d="M2256.56 262.594 L2256.56 266.622 Q2254.75 265.696 2252.81 265.233 Q2250.86 264.77 2248.78 264.77 Q2245.61 264.77 2244.01 265.742 Q2242.44 266.714 2242.44 268.659 Q2242.44 270.14 2243.57 270.997 Q2244.71 271.83 2248.13 272.594 L2249.59 272.918 Q2254.13 273.89 2256.03 275.672 Q2257.95 277.432 2257.95 280.603 Q2257.95 284.214 2255.08 286.321 Q2252.23 288.427 2247.23 288.427 Q2245.15 288.427 2242.88 288.01 Q2240.63 287.617 2238.13 286.807 L2238.13 282.409 Q2240.49 283.635 2242.78 284.26 Q2245.08 284.862 2247.32 284.862 Q2250.33 284.862 2251.95 283.844 Q2253.57 282.802 2253.57 280.927 Q2253.57 279.191 2252.39 278.265 Q2251.23 277.339 2247.28 276.483 L2245.79 276.135 Q2241.84 275.302 2240.08 273.589 Q2238.32 271.853 2238.32 268.844 Q2238.32 265.186 2240.91 263.196 Q2243.5 261.205 2248.27 261.205 Q2250.63 261.205 2252.71 261.552 Q2254.8 261.899 2256.56 262.594 Z" fill="#000000" fill-rule="nonzero" fill-opacity="1" /></svg>
