<?xml version="1.0" encoding="utf-8"?>
<svg xmlns="http://www.w3.org/2000/svg" xmlns:xlink="http://www.w3.org/1999/xlink" width="600" height="400" viewBox="0 0 2400 1600">
<defs>
  <clipPath id="clip280">
    <rect x="0" y="0" width="2400" height="1600"/>
  </clipPath>
</defs>
<path clip-path="url(#clip280)" d="M0 1600 L2400 1600 L2400 0 L0 0  Z" fill="#ffffff" fill-rule="evenodd" fill-opacity="1"/>
<defs>
  <clipPath id="clip281">
    <rect x="249" y="123" width="2104" height="1301"/>
  </clipPath>
</defs>
<path clip-path="url(#clip280)" d="M249.542 1423.18 L2352.76 1423.18 L2352.76 123.472 L249.542 123.472  Z" fill="#ffffff" fill-rule="evenodd" fill-opacity="1"/>
<polyline clip-path="url(#clip281)" style="stroke:#000000; stroke-linecap:round; stroke-linejoin:round; stroke-width:2; stroke-opacity:0.1; fill:none" points="309.067,1423.18 309.067,123.472 "/>
<polyline clip-path="url(#clip281)" style="stroke:#000000; stroke-linecap:round; stroke-linejoin:round; stroke-width:2; stroke-opacity:0.1; fill:none" points="805.108,1423.18 805.108,123.472 "/>
<polyline clip-path="url(#clip281)" style="stroke:#000000; stroke-linecap:round; stroke-linejoin:round; stroke-width:2; stroke-opacity:0.1; fill:none" points="1301.15,1423.18 1301.15,123.472 "/>
<polyline clip-path="url(#clip281)" style="stroke:#000000; stroke-linecap:round; stroke-linejoin:round; stroke-width:2; stroke-opacity:0.1; fill:none" points="1797.19,1423.18 1797.19,123.472 "/>
<polyline clip-path="url(#clip281)" style="stroke:#000000; stroke-linecap:round; stroke-linejoin:round; stroke-width:2; stroke-opacity:0.1; fill:none" points="2293.23,1423.18 2293.23,123.472 "/>
<polyline clip-path="url(#clip281)" style="stroke:#000000; stroke-linecap:round; stroke-linejoin:round; stroke-width:2; stroke-opacity:0.1; fill:none" points="249.542,1388.72 2352.76,1388.72 "/>
<polyline clip-path="url(#clip281)" style="stroke:#000000; stroke-linecap:round; stroke-linejoin:round; stroke-width:2; stroke-opacity:0.1; fill:none" points="249.542,1090.72 2352.76,1090.72 "/>
<polyline clip-path="url(#clip281)" style="stroke:#000000; stroke-linecap:round; stroke-linejoin:round; stroke-width:2; stroke-opacity:0.1; fill:none" points="249.542,792.72 2352.76,792.72 "/>
<polyline clip-path="url(#clip281)" style="stroke:#000000; stroke-linecap:round; stroke-linejoin:round; stroke-width:2; stroke-opacity:0.1; fill:none" points="249.542,494.723 2352.76,494.723 "/>
<polyline clip-path="url(#clip281)" style="stroke:#000000; stroke-linecap:round; stroke-linejoin:round; stroke-width:2; stroke-opacity:0.1; fill:none" points="249.542,196.726 2352.76,196.726 "/>
<polyline clip-path="url(#clip280)" style="stroke:#000000; stroke-linecap:round; stroke-linejoin:round; stroke-width:4; stroke-opacity:1; fill:none" points="249.542,1423.18 2352.76,1423.18 "/>
<polyline clip-path="url(#clip280)" style="stroke:#000000; stroke-linecap:round; stroke-linejoin:round; stroke-width:4; stroke-opacity:1; fill:none" points="309.067,1423.18 309.067,1404.28 "/>
<polyline clip-path="url(#clip280)" style="stroke:#000000; stroke-linecap:round; stroke-linejoin:round; stroke-width:4; stroke-opacity:1; fill:none" points="805.108,1423.18 805.108,1404.28 "/>
<polyline clip-path="url(#clip280)" style="stroke:#000000; stroke-linecap:round; stroke-linejoin:round; stroke-width:4; stroke-opacity:1; fill:none" points="1301.15,1423.18 1301.15,1404.28 "/>
<polyline clip-path="url(#clip280)" style="stroke:#000000; stroke-linecap:round; stroke-linejoin:round; stroke-width:4; stroke-opacity:1; fill:none" points="1797.19,1423.18 1797.19,1404.28 "/>
<polyline clip-path="url(#clip280)" style="stroke:#000000; stroke-linecap:round; stroke-linejoin:round; stroke-width:4; stroke-opacity:1; fill:none" points="2293.23,1423.18 2293.23,1404.28 "/>
<path clip-path="url(#clip280)" d="M309.067 1454.1 Q305.456 1454.1 303.627 1457.66 Q301.822 1461.2 301.822 1468.33 Q301.822 1475.44 303.627 1479.01 Q305.456 1482.55 309.067 1482.55 Q312.701 1482.55 314.507 1479.01 Q316.335 1475.44 316.335 1468.33 Q316.335 1461.2 314.507 1457.66 Q312.701 1454.1 309.067 1454.1 M309.067 1450.39 Q314.877 1450.39 317.933 1455 Q321.011 1459.58 321.011 1468.33 Q321.011 1477.06 317.933 1481.67 Q314.877 1486.25 309.067 1486.25 Q303.257 1486.25 300.178 1481.67 Q297.123 1477.06 297.123 1468.33 Q297.123 1459.58 300.178 1455 Q303.257 1450.39 309.067 1450.39 Z" fill="#000000" fill-rule="nonzero" fill-opacity="1" /><path clip-path="url(#clip280)" d="M784.379 1481.64 L800.698 1481.64 L800.698 1485.58 L778.754 1485.58 L778.754 1481.64 Q781.416 1478.89 785.999 1474.26 Q790.606 1469.61 791.786 1468.27 Q794.032 1465.74 794.911 1464.01 Q795.814 1462.25 795.814 1460.56 Q795.814 1457.8 793.87 1456.07 Q791.948 1454.33 788.846 1454.33 Q786.647 1454.33 784.194 1455.09 Q781.763 1455.86 778.985 1457.41 L778.985 1452.69 Q781.809 1451.55 784.263 1450.97 Q786.717 1450.39 788.754 1450.39 Q794.124 1450.39 797.319 1453.08 Q800.513 1455.77 800.513 1460.26 Q800.513 1462.39 799.703 1464.31 Q798.916 1466.2 796.809 1468.8 Q796.231 1469.47 793.129 1472.69 Q790.027 1475.88 784.379 1481.64 Z" fill="#000000" fill-rule="nonzero" fill-opacity="1" /><path clip-path="url(#clip280)" d="M810.559 1451.02 L828.916 1451.02 L828.916 1454.96 L814.842 1454.96 L814.842 1463.43 Q815.86 1463.08 816.879 1462.92 Q817.897 1462.73 818.916 1462.73 Q824.703 1462.73 828.082 1465.9 Q831.462 1469.08 831.462 1474.49 Q831.462 1480.07 827.99 1483.17 Q824.518 1486.25 818.198 1486.25 Q816.022 1486.25 813.754 1485.88 Q811.508 1485.51 809.101 1484.77 L809.101 1480.07 Q811.184 1481.2 813.407 1481.76 Q815.629 1482.32 818.106 1482.32 Q822.11 1482.32 824.448 1480.21 Q826.786 1478.1 826.786 1474.49 Q826.786 1470.88 824.448 1468.77 Q822.11 1466.67 818.106 1466.67 Q816.231 1466.67 814.356 1467.08 Q812.504 1467.5 810.559 1468.38 L810.559 1451.02 Z" fill="#000000" fill-rule="nonzero" fill-opacity="1" /><path clip-path="url(#clip280)" d="M1275.85 1451.02 L1294.2 1451.02 L1294.2 1454.96 L1280.13 1454.96 L1280.13 1463.43 Q1281.15 1463.08 1282.17 1462.92 Q1283.19 1462.73 1284.2 1462.73 Q1289.99 1462.73 1293.37 1465.9 Q1296.75 1469.08 1296.75 1474.49 Q1296.75 1480.07 1293.28 1483.17 Q1289.81 1486.25 1283.49 1486.25 Q1281.31 1486.25 1279.04 1485.88 Q1276.8 1485.51 1274.39 1484.77 L1274.39 1480.07 Q1276.47 1481.2 1278.7 1481.76 Q1280.92 1482.32 1283.39 1482.32 Q1287.4 1482.32 1289.74 1480.21 Q1292.07 1478.1 1292.07 1474.49 Q1292.07 1470.88 1289.74 1468.77 Q1287.4 1466.67 1283.39 1466.67 Q1281.52 1466.67 1279.64 1467.08 Q1277.79 1467.5 1275.85 1468.38 L1275.85 1451.02 Z" fill="#000000" fill-rule="nonzero" fill-opacity="1" /><path clip-path="url(#clip280)" d="M1315.96 1454.1 Q1312.35 1454.1 1310.52 1457.66 Q1308.72 1461.2 1308.72 1468.33 Q1308.72 1475.44 1310.52 1479.01 Q1312.35 1482.55 1315.96 1482.55 Q1319.6 1482.55 1321.4 1479.01 Q1323.23 1475.44 1323.23 1468.33 Q1323.23 1461.2 1321.4 1457.66 Q1319.6 1454.1 1315.96 1454.1 M1315.96 1450.39 Q1321.77 1450.39 1324.83 1455 Q1327.91 1459.58 1327.91 1468.33 Q1327.91 1477.06 1324.83 1481.67 Q1321.77 1486.25 1315.96 1486.25 Q1310.15 1486.25 1307.07 1481.67 Q1304.02 1477.06 1304.02 1468.33 Q1304.02 1459.58 1307.07 1455 Q1310.15 1450.39 1315.96 1450.39 Z" fill="#000000" fill-rule="nonzero" fill-opacity="1" /><path clip-path="url(#clip280)" d="M1771.04 1451.02 L1793.27 1451.02 L1793.27 1453.01 L1780.72 1485.58 L1775.84 1485.58 L1787.64 1454.96 L1771.04 1454.96 L1771.04 1451.02 Z" fill="#000000" fill-rule="nonzero" fill-opacity="1" /><path clip-path="url(#clip280)" d="M1802.43 1451.02 L1820.79 1451.02 L1820.79 1454.96 L1806.72 1454.96 L1806.72 1463.43 Q1807.73 1463.08 1808.75 1462.92 Q1809.77 1462.73 1810.79 1462.73 Q1816.58 1462.73 1819.96 1465.9 Q1823.34 1469.08 1823.34 1474.49 Q1823.34 1480.07 1819.86 1483.17 Q1816.39 1486.25 1810.07 1486.25 Q1807.9 1486.25 1805.63 1485.88 Q1803.38 1485.51 1800.97 1484.77 L1800.97 1480.07 Q1803.06 1481.2 1805.28 1481.76 Q1807.5 1482.32 1809.98 1482.32 Q1813.98 1482.32 1816.32 1480.21 Q1818.66 1478.1 1818.66 1474.49 Q1818.66 1470.88 1816.32 1468.77 Q1813.98 1466.67 1809.98 1466.67 Q1808.1 1466.67 1806.23 1467.08 Q1804.38 1467.5 1802.43 1468.38 L1802.43 1451.02 Z" fill="#000000" fill-rule="nonzero" fill-opacity="1" /><path clip-path="url(#clip280)" d="M2252.84 1481.64 L2260.48 1481.64 L2260.48 1455.28 L2252.17 1456.95 L2252.17 1452.69 L2260.43 1451.02 L2265.11 1451.02 L2265.11 1481.64 L2272.74 1481.64 L2272.74 1485.58 L2252.84 1485.58 L2252.84 1481.64 Z" fill="#000000" fill-rule="nonzero" fill-opacity="1" /><path clip-path="url(#clip280)" d="M2292.19 1454.1 Q2288.58 1454.1 2286.75 1457.66 Q2284.94 1461.2 2284.94 1468.33 Q2284.94 1475.44 2286.75 1479.01 Q2288.58 1482.55 2292.19 1482.55 Q2295.82 1482.55 2297.63 1479.01 Q2299.46 1475.44 2299.46 1468.33 Q2299.46 1461.2 2297.63 1457.66 Q2295.82 1454.1 2292.19 1454.1 M2292.19 1450.39 Q2298 1450.39 2301.06 1455 Q2304.13 1459.58 2304.13 1468.33 Q2304.13 1477.06 2301.06 1481.67 Q2298 1486.25 2292.19 1486.25 Q2286.38 1486.25 2283.3 1481.67 Q2280.24 1477.06 2280.24 1468.33 Q2280.24 1459.58 2283.3 1455 Q2286.38 1450.39 2292.19 1450.39 Z" fill="#000000" fill-rule="nonzero" fill-opacity="1" /><path clip-path="url(#clip280)" d="M2322.35 1454.1 Q2318.74 1454.1 2316.91 1457.66 Q2315.11 1461.2 2315.11 1468.33 Q2315.11 1475.44 2316.91 1479.01 Q2318.74 1482.55 2322.35 1482.55 Q2325.99 1482.55 2327.79 1479.01 Q2329.62 1475.44 2329.62 1468.33 Q2329.62 1461.2 2327.79 1457.66 Q2325.99 1454.1 2322.35 1454.1 M2322.35 1450.39 Q2328.16 1450.39 2331.22 1455 Q2334.3 1459.58 2334.3 1468.33 Q2334.3 1477.06 2331.22 1481.67 Q2328.16 1486.25 2322.35 1486.25 Q2316.54 1486.25 2313.46 1481.67 Q2310.41 1477.06 2310.41 1468.33 Q2310.41 1459.58 2313.46 1455 Q2316.54 1450.39 2322.35 1450.39 Z" fill="#000000" fill-rule="nonzero" fill-opacity="1" /><path clip-path="url(#clip280)" d="M1207.32 1520.52 L1237.36 1520.52 L1237.36 1525.93 L1213.75 1525.93 L1213.75 1540 L1236.38 1540 L1236.38 1545.41 L1213.75 1545.41 L1213.75 1562.63 L1237.94 1562.63 L1237.94 1568.04 L1207.32 1568.04 L1207.32 1520.52 Z" fill="#000000" fill-rule="nonzero" fill-opacity="1" /><path clip-path="url(#clip280)" d="M1253.92 1562.7 L1253.92 1581.6 L1248.03 1581.6 L1248.03 1532.4 L1253.92 1532.4 L1253.92 1537.81 Q1255.76 1534.62 1258.56 1533.1 Q1261.4 1531.54 1265.31 1531.54 Q1271.8 1531.54 1275.85 1536.69 Q1279.92 1541.85 1279.92 1550.25 Q1279.92 1558.65 1275.85 1563.81 Q1271.8 1568.97 1265.31 1568.97 Q1261.4 1568.97 1258.56 1567.44 Q1255.76 1565.88 1253.92 1562.7 M1273.84 1550.25 Q1273.84 1543.79 1271.17 1540.13 Q1268.52 1536.44 1263.88 1536.44 Q1259.23 1536.44 1256.56 1540.13 Q1253.92 1543.79 1253.92 1550.25 Q1253.92 1556.71 1256.56 1560.4 Q1259.23 1564.07 1263.88 1564.07 Q1268.52 1564.07 1271.17 1560.4 Q1273.84 1556.71 1273.84 1550.25 Z" fill="#000000" fill-rule="nonzero" fill-opacity="1" /><path clip-path="url(#clip280)" d="M1303.44 1536.5 Q1298.73 1536.5 1295.99 1540.19 Q1293.26 1543.85 1293.26 1550.25 Q1293.26 1556.65 1295.96 1560.34 Q1298.7 1564 1303.44 1564 Q1308.12 1564 1310.86 1560.31 Q1313.59 1556.62 1313.59 1550.25 Q1313.59 1543.92 1310.86 1540.23 Q1308.12 1536.5 1303.44 1536.5 M1303.44 1531.54 Q1311.08 1531.54 1315.44 1536.5 Q1319.8 1541.47 1319.8 1550.25 Q1319.8 1559 1315.44 1564 Q1311.08 1568.97 1303.44 1568.97 Q1295.77 1568.97 1291.41 1564 Q1287.08 1559 1287.08 1550.25 Q1287.08 1541.47 1291.41 1536.5 Q1295.77 1531.54 1303.44 1531.54 Z" fill="#000000" fill-rule="nonzero" fill-opacity="1" /><path clip-path="url(#clip280)" d="M1355.16 1533.76 L1355.16 1539.24 Q1352.68 1537.87 1350.16 1537.2 Q1347.68 1536.5 1345.14 1536.5 Q1339.44 1536.5 1336.29 1540.13 Q1333.14 1543.73 1333.14 1550.25 Q1333.14 1556.78 1336.29 1560.4 Q1339.44 1564 1345.14 1564 Q1347.68 1564 1350.16 1563.33 Q1352.68 1562.63 1355.16 1561.26 L1355.16 1566.68 Q1352.71 1567.82 1350.07 1568.39 Q1347.46 1568.97 1344.5 1568.97 Q1336.45 1568.97 1331.7 1563.91 Q1326.96 1558.85 1326.96 1550.25 Q1326.96 1541.53 1331.74 1536.53 Q1336.54 1531.54 1344.88 1531.54 Q1347.59 1531.54 1350.16 1532.11 Q1352.74 1532.65 1355.16 1533.76 Z" fill="#000000" fill-rule="nonzero" fill-opacity="1" /><path clip-path="url(#clip280)" d="M1394.98 1546.53 L1394.98 1568.04 L1389.12 1568.04 L1389.12 1546.72 Q1389.12 1541.66 1387.15 1539.14 Q1385.18 1536.63 1381.23 1536.63 Q1376.49 1536.63 1373.75 1539.65 Q1371.01 1542.68 1371.01 1547.9 L1371.01 1568.04 L1365.12 1568.04 L1365.12 1518.52 L1371.01 1518.52 L1371.01 1537.93 Q1373.11 1534.72 1375.95 1533.13 Q1378.81 1531.54 1382.53 1531.54 Q1388.68 1531.54 1391.83 1535.36 Q1394.98 1539.14 1394.98 1546.53 Z" fill="#000000" fill-rule="nonzero" fill-opacity="1" /><polyline clip-path="url(#clip280)" style="stroke:#000000; stroke-linecap:round; stroke-linejoin:round; stroke-width:4; stroke-opacity:1; fill:none" points="249.542,1423.18 249.542,123.472 "/>
<polyline clip-path="url(#clip280)" style="stroke:#000000; stroke-linecap:round; stroke-linejoin:round; stroke-width:4; stroke-opacity:1; fill:none" points="249.542,1388.72 268.44,1388.72 "/>
<polyline clip-path="url(#clip280)" style="stroke:#000000; stroke-linecap:round; stroke-linejoin:round; stroke-width:4; stroke-opacity:1; fill:none" points="249.542,1090.72 268.44,1090.72 "/>
<polyline clip-path="url(#clip280)" style="stroke:#000000; stroke-linecap:round; stroke-linejoin:round; stroke-width:4; stroke-opacity:1; fill:none" points="249.542,792.72 268.44,792.72 "/>
<polyline clip-path="url(#clip280)" style="stroke:#000000; stroke-linecap:round; stroke-linejoin:round; stroke-width:4; stroke-opacity:1; fill:none" points="249.542,494.723 268.44,494.723 "/>
<polyline clip-path="url(#clip280)" style="stroke:#000000; stroke-linecap:round; stroke-linejoin:round; stroke-width:4; stroke-opacity:1; fill:none" points="249.542,196.726 268.44,196.726 "/>
<path clip-path="url(#clip280)" d="M126.205 1374.51 Q122.593 1374.51 120.765 1378.08 Q118.959 1381.62 118.959 1388.75 Q118.959 1395.86 120.765 1399.42 Q122.593 1402.96 126.205 1402.96 Q129.839 1402.96 131.644 1399.42 Q133.473 1395.86 133.473 1388.75 Q133.473 1381.62 131.644 1378.08 Q129.839 1374.51 126.205 1374.51 M126.205 1370.81 Q132.015 1370.81 135.07 1375.42 Q138.149 1380 138.149 1388.75 Q138.149 1397.48 135.07 1402.08 Q132.015 1406.67 126.205 1406.67 Q120.394 1406.67 117.316 1402.08 Q114.26 1397.48 114.26 1388.75 Q114.26 1380 117.316 1375.42 Q120.394 1370.81 126.205 1370.81 Z" fill="#000000" fill-rule="nonzero" fill-opacity="1" /><path clip-path="url(#clip280)" d="M146.366 1400.12 L151.251 1400.12 L151.251 1406 L146.366 1406 L146.366 1400.12 Z" fill="#000000" fill-rule="nonzero" fill-opacity="1" /><path clip-path="url(#clip280)" d="M171.436 1374.51 Q167.825 1374.51 165.996 1378.08 Q164.19 1381.62 164.19 1388.75 Q164.19 1395.86 165.996 1399.42 Q167.825 1402.96 171.436 1402.96 Q175.07 1402.96 176.876 1399.42 Q178.704 1395.86 178.704 1388.75 Q178.704 1381.62 176.876 1378.08 Q175.07 1374.51 171.436 1374.51 M171.436 1370.81 Q177.246 1370.81 180.301 1375.42 Q183.38 1380 183.38 1388.75 Q183.38 1397.48 180.301 1402.08 Q177.246 1406.67 171.436 1406.67 Q165.626 1406.67 162.547 1402.08 Q159.491 1397.48 159.491 1388.75 Q159.491 1380 162.547 1375.42 Q165.626 1370.81 171.436 1370.81 Z" fill="#000000" fill-rule="nonzero" fill-opacity="1" /><path clip-path="url(#clip280)" d="M201.598 1374.51 Q197.987 1374.51 196.158 1378.08 Q194.352 1381.62 194.352 1388.75 Q194.352 1395.86 196.158 1399.42 Q197.987 1402.96 201.598 1402.96 Q205.232 1402.96 207.037 1399.42 Q208.866 1395.86 208.866 1388.75 Q208.866 1381.62 207.037 1378.08 Q205.232 1374.51 201.598 1374.51 M201.598 1370.81 Q207.408 1370.81 210.463 1375.42 Q213.542 1380 213.542 1388.75 Q213.542 1397.48 210.463 1402.08 Q207.408 1406.67 201.598 1406.67 Q195.787 1406.67 192.709 1402.08 Q189.653 1397.48 189.653 1388.75 Q189.653 1380 192.709 1375.42 Q195.787 1370.81 201.598 1370.81 Z" fill="#000000" fill-rule="nonzero" fill-opacity="1" /><path clip-path="url(#clip280)" d="M127.2 1076.52 Q123.589 1076.52 121.76 1080.08 Q119.955 1083.62 119.955 1090.75 Q119.955 1097.86 121.76 1101.42 Q123.589 1104.97 127.2 1104.97 Q130.834 1104.97 132.64 1101.42 Q134.468 1097.86 134.468 1090.75 Q134.468 1083.62 132.64 1080.08 Q130.834 1076.52 127.2 1076.52 M127.2 1072.81 Q133.01 1072.81 136.066 1077.42 Q139.144 1082 139.144 1090.75 Q139.144 1099.48 136.066 1104.09 Q133.01 1108.67 127.2 1108.67 Q121.39 1108.67 118.311 1104.09 Q115.256 1099.48 115.256 1090.75 Q115.256 1082 118.311 1077.42 Q121.39 1072.81 127.2 1072.81 Z" fill="#000000" fill-rule="nonzero" fill-opacity="1" /><path clip-path="url(#clip280)" d="M147.362 1102.12 L152.246 1102.12 L152.246 1108 L147.362 1108 L147.362 1102.12 Z" fill="#000000" fill-rule="nonzero" fill-opacity="1" /><path clip-path="url(#clip280)" d="M166.459 1104.06 L182.778 1104.06 L182.778 1108 L160.834 1108 L160.834 1104.06 Q163.496 1101.31 168.079 1096.68 Q172.686 1092.03 173.866 1090.68 Q176.112 1088.16 176.991 1086.42 Q177.894 1084.66 177.894 1082.97 Q177.894 1080.22 175.95 1078.48 Q174.028 1076.75 170.927 1076.75 Q168.727 1076.75 166.274 1077.51 Q163.843 1078.28 161.065 1079.83 L161.065 1075.1 Q163.89 1073.97 166.343 1073.39 Q168.797 1072.81 170.834 1072.81 Q176.204 1072.81 179.399 1075.5 Q182.593 1078.18 182.593 1082.67 Q182.593 1084.8 181.783 1086.72 Q180.996 1088.62 178.889 1091.22 Q178.311 1091.89 175.209 1095.1 Q172.107 1098.3 166.459 1104.06 Z" fill="#000000" fill-rule="nonzero" fill-opacity="1" /><path clip-path="url(#clip280)" d="M192.639 1073.44 L210.996 1073.44 L210.996 1077.37 L196.922 1077.37 L196.922 1085.85 Q197.94 1085.5 198.959 1085.34 Q199.977 1085.15 200.996 1085.15 Q206.783 1085.15 210.162 1088.32 Q213.542 1091.49 213.542 1096.91 Q213.542 1102.49 210.07 1105.59 Q206.598 1108.67 200.278 1108.67 Q198.102 1108.67 195.834 1108.3 Q193.588 1107.93 191.181 1107.19 L191.181 1102.49 Q193.264 1103.62 195.487 1104.18 Q197.709 1104.73 200.186 1104.73 Q204.19 1104.73 206.528 1102.63 Q208.866 1100.52 208.866 1096.91 Q208.866 1093.3 206.528 1091.19 Q204.19 1089.09 200.186 1089.09 Q198.311 1089.09 196.436 1089.5 Q194.584 1089.92 192.639 1090.8 L192.639 1073.44 Z" fill="#000000" fill-rule="nonzero" fill-opacity="1" /><path clip-path="url(#clip280)" d="M126.205 778.519 Q122.593 778.519 120.765 782.084 Q118.959 785.626 118.959 792.755 Q118.959 799.862 120.765 803.426 Q122.593 806.968 126.205 806.968 Q129.839 806.968 131.644 803.426 Q133.473 799.862 133.473 792.755 Q133.473 785.626 131.644 782.084 Q129.839 778.519 126.205 778.519 M126.205 774.815 Q132.015 774.815 135.07 779.422 Q138.149 784.005 138.149 792.755 Q138.149 801.482 135.07 806.088 Q132.015 810.672 126.205 810.672 Q120.394 810.672 117.316 806.088 Q114.26 801.482 114.26 792.755 Q114.26 784.005 117.316 779.422 Q120.394 774.815 126.205 774.815 Z" fill="#000000" fill-rule="nonzero" fill-opacity="1" /><path clip-path="url(#clip280)" d="M146.366 804.121 L151.251 804.121 L151.251 810 L146.366 810 L146.366 804.121 Z" fill="#000000" fill-rule="nonzero" fill-opacity="1" /><path clip-path="url(#clip280)" d="M161.482 775.44 L179.839 775.44 L179.839 779.376 L165.765 779.376 L165.765 787.848 Q166.783 787.501 167.802 787.338 Q168.82 787.153 169.839 787.153 Q175.626 787.153 179.005 790.325 Q182.385 793.496 182.385 798.913 Q182.385 804.491 178.913 807.593 Q175.44 810.672 169.121 810.672 Q166.945 810.672 164.677 810.301 Q162.431 809.931 160.024 809.19 L160.024 804.491 Q162.107 805.625 164.329 806.181 Q166.552 806.737 169.028 806.737 Q173.033 806.737 175.371 804.63 Q177.709 802.524 177.709 798.913 Q177.709 795.301 175.371 793.195 Q173.033 791.088 169.028 791.088 Q167.153 791.088 165.278 791.505 Q163.427 791.922 161.482 792.801 L161.482 775.44 Z" fill="#000000" fill-rule="nonzero" fill-opacity="1" /><path clip-path="url(#clip280)" d="M201.598 778.519 Q197.987 778.519 196.158 782.084 Q194.352 785.626 194.352 792.755 Q194.352 799.862 196.158 803.426 Q197.987 806.968 201.598 806.968 Q205.232 806.968 207.037 803.426 Q208.866 799.862 208.866 792.755 Q208.866 785.626 207.037 782.084 Q205.232 778.519 201.598 778.519 M201.598 774.815 Q207.408 774.815 210.463 779.422 Q213.542 784.005 213.542 792.755 Q213.542 801.482 210.463 806.088 Q207.408 810.672 201.598 810.672 Q195.787 810.672 192.709 806.088 Q189.653 801.482 189.653 792.755 Q189.653 784.005 192.709 779.422 Q195.787 774.815 201.598 774.815 Z" fill="#000000" fill-rule="nonzero" fill-opacity="1" /><path clip-path="url(#clip280)" d="M127.2 480.522 Q123.589 480.522 121.76 484.087 Q119.955 487.628 119.955 494.758 Q119.955 501.864 121.76 505.429 Q123.589 508.971 127.2 508.971 Q130.834 508.971 132.64 505.429 Q134.468 501.864 134.468 494.758 Q134.468 487.628 132.64 484.087 Q130.834 480.522 127.2 480.522 M127.2 476.818 Q133.01 476.818 136.066 481.425 Q139.144 486.008 139.144 494.758 Q139.144 503.485 136.066 508.091 Q133.01 512.674 127.2 512.674 Q121.39 512.674 118.311 508.091 Q115.256 503.485 115.256 494.758 Q115.256 486.008 118.311 481.425 Q121.39 476.818 127.2 476.818 Z" fill="#000000" fill-rule="nonzero" fill-opacity="1" /><path clip-path="url(#clip280)" d="M147.362 506.123 L152.246 506.123 L152.246 512.003 L147.362 512.003 L147.362 506.123 Z" fill="#000000" fill-rule="nonzero" fill-opacity="1" /><path clip-path="url(#clip280)" d="M161.251 477.443 L183.473 477.443 L183.473 479.434 L170.927 512.003 L166.042 512.003 L177.848 481.378 L161.251 481.378 L161.251 477.443 Z" fill="#000000" fill-rule="nonzero" fill-opacity="1" /><path clip-path="url(#clip280)" d="M192.639 477.443 L210.996 477.443 L210.996 481.378 L196.922 481.378 L196.922 489.85 Q197.94 489.503 198.959 489.341 Q199.977 489.156 200.996 489.156 Q206.783 489.156 210.162 492.327 Q213.542 495.499 213.542 500.915 Q213.542 506.494 210.07 509.596 Q206.598 512.674 200.278 512.674 Q198.102 512.674 195.834 512.304 Q193.588 511.934 191.181 511.193 L191.181 506.494 Q193.264 507.628 195.487 508.184 Q197.709 508.739 200.186 508.739 Q204.19 508.739 206.528 506.633 Q208.866 504.526 208.866 500.915 Q208.866 497.304 206.528 495.198 Q204.19 493.091 200.186 493.091 Q198.311 493.091 196.436 493.508 Q194.584 493.924 192.639 494.804 L192.639 477.443 Z" fill="#000000" fill-rule="nonzero" fill-opacity="1" /><path clip-path="url(#clip280)" d="M117.015 210.071 L124.654 210.071 L124.654 183.705 L116.343 185.372 L116.343 181.112 L124.607 179.446 L129.283 179.446 L129.283 210.071 L136.922 210.071 L136.922 214.006 L117.015 214.006 L117.015 210.071 Z" fill="#000000" fill-rule="nonzero" fill-opacity="1" /><path clip-path="url(#clip280)" d="M146.366 208.126 L151.251 208.126 L151.251 214.006 L146.366 214.006 L146.366 208.126 Z" fill="#000000" fill-rule="nonzero" fill-opacity="1" /><path clip-path="url(#clip280)" d="M171.436 182.524 Q167.825 182.524 165.996 186.089 Q164.19 189.631 164.19 196.76 Q164.19 203.867 165.996 207.432 Q167.825 210.973 171.436 210.973 Q175.07 210.973 176.876 207.432 Q178.704 203.867 178.704 196.76 Q178.704 189.631 176.876 186.089 Q175.07 182.524 171.436 182.524 M171.436 178.821 Q177.246 178.821 180.301 183.427 Q183.38 188.01 183.38 196.76 Q183.38 205.487 180.301 210.094 Q177.246 214.677 171.436 214.677 Q165.626 214.677 162.547 210.094 Q159.491 205.487 159.491 196.76 Q159.491 188.01 162.547 183.427 Q165.626 178.821 171.436 178.821 Z" fill="#000000" fill-rule="nonzero" fill-opacity="1" /><path clip-path="url(#clip280)" d="M201.598 182.524 Q197.987 182.524 196.158 186.089 Q194.352 189.631 194.352 196.76 Q194.352 203.867 196.158 207.432 Q197.987 210.973 201.598 210.973 Q205.232 210.973 207.037 207.432 Q208.866 203.867 208.866 196.76 Q208.866 189.631 207.037 186.089 Q205.232 182.524 201.598 182.524 M201.598 178.821 Q207.408 178.821 210.463 183.427 Q213.542 188.01 213.542 196.76 Q213.542 205.487 210.463 210.094 Q207.408 214.677 201.598 214.677 Q195.787 214.677 192.709 210.094 Q189.653 205.487 189.653 196.76 Q189.653 188.01 192.709 183.427 Q195.787 178.821 201.598 178.821 Z" fill="#000000" fill-rule="nonzero" fill-opacity="1" /><path clip-path="url(#clip280)" d="M57.2247 800.492 L44.4614 800.492 L44.4614 810.995 L39.1779 810.995 L39.1779 794.126 L59.58 794.126 Q62.2218 797.85 63.5904 802.338 Q64.9272 806.826 64.9272 811.918 Q64.9272 823.058 58.4342 829.36 Q51.9093 835.63 40.2919 835.63 Q28.6427 835.63 22.1496 829.36 Q15.6248 823.058 15.6248 811.918 Q15.6248 807.271 16.7706 803.102 Q17.9164 798.9 20.1444 795.367 L26.9876 795.367 Q23.9639 798.932 22.4361 802.942 Q20.9083 806.953 20.9083 811.377 Q20.9083 820.098 25.7781 824.49 Q30.6479 828.851 40.2919 828.851 Q49.9041 828.851 54.7739 824.49 Q59.6436 820.098 59.6436 811.377 Q59.6436 807.971 59.0707 805.298 Q58.466 802.624 57.2247 800.492 Z" fill="#000000" fill-rule="nonzero" fill-opacity="1" /><path clip-path="url(#clip280)" d="M46.0847 766.435 Q46.0847 773.533 47.7079 776.27 Q49.3312 779.007 53.2461 779.007 Q56.3653 779.007 58.2114 776.97 Q60.0256 774.901 60.0256 771.369 Q60.0256 766.499 56.5881 763.571 Q53.1188 760.61 47.3897 760.61 L46.0847 760.61 L46.0847 766.435 M43.6657 754.754 L64.0042 754.754 L64.0042 760.61 L58.5933 760.61 Q61.8398 762.616 63.3994 765.608 Q64.9272 768.599 64.9272 772.928 Q64.9272 778.403 61.8716 781.649 Q58.7843 784.864 53.6281 784.864 Q47.6125 784.864 44.5569 780.853 Q41.5014 776.811 41.5014 768.822 L41.5014 760.61 L40.9285 760.61 Q36.8862 760.61 34.6901 763.284 Q32.4621 765.926 32.4621 770.732 Q32.4621 773.787 33.1941 776.684 Q33.9262 779.58 35.3903 782.254 L29.9795 782.254 Q28.7381 779.039 28.1334 776.015 Q27.4968 772.992 27.4968 770.127 Q27.4968 762.393 31.5072 758.573 Q35.5176 754.754 43.6657 754.754 Z" fill="#000000" fill-rule="nonzero" fill-opacity="1" /><path clip-path="url(#clip280)" d="M58.657 737.026 L77.5631 737.026 L77.5631 742.914 L28.3562 742.914 L28.3562 737.026 L33.7671 737.026 Q30.5842 735.179 29.0564 732.379 Q27.4968 729.546 27.4968 725.631 Q27.4968 719.138 32.6531 715.096 Q37.8093 711.022 46.212 711.022 Q54.6147 711.022 59.771 715.096 Q64.9272 719.138 64.9272 725.631 Q64.9272 729.546 63.3994 732.379 Q61.8398 735.179 58.657 737.026 M46.212 717.101 Q39.7508 717.101 36.0905 719.774 Q32.3984 722.416 32.3984 727.063 Q32.3984 731.71 36.0905 734.384 Q39.7508 737.026 46.212 737.026 Q52.6732 737.026 56.3653 734.384 Q60.0256 731.71 60.0256 727.063 Q60.0256 722.416 56.3653 719.774 Q52.6732 717.101 46.212 717.101 Z" fill="#000000" fill-rule="nonzero" fill-opacity="1" /><path clip-path="url(#clip280)" d="M731.997 63.9476 L731.997 47.7034 L718.629 47.7034 L718.629 40.9789 L740.099 40.9789 L740.099 66.9452 Q735.359 70.3075 729.647 72.0494 Q723.936 73.7508 717.454 73.7508 Q703.276 73.7508 695.255 65.4869 Q687.275 57.1826 687.275 42.3968 Q687.275 27.5705 695.255 19.3066 Q703.276 11.0023 717.454 11.0023 Q723.369 11.0023 728.675 12.4606 Q734.022 13.9189 738.519 16.7545 L738.519 25.464 Q733.982 21.6156 728.878 19.6712 Q723.774 17.7268 718.143 17.7268 Q707.043 17.7268 701.453 23.9246 Q695.903 30.1225 695.903 42.3968 Q695.903 54.6305 701.453 60.8284 Q707.043 67.0263 718.143 67.0263 Q722.477 67.0263 725.88 66.2971 Q729.283 65.5274 731.997 63.9476 Z" fill="#000000" fill-rule="nonzero" fill-opacity="1" /><path clip-path="url(#clip280)" d="M775.342 49.7694 Q766.308 49.7694 762.824 51.8354 Q759.341 53.9013 759.341 58.8839 Q759.341 62.8538 761.933 65.2034 Q764.566 67.5124 769.063 67.5124 Q775.261 67.5124 778.987 63.1374 Q782.755 58.7219 782.755 51.4303 L782.755 49.7694 L775.342 49.7694 M790.208 46.6907 L790.208 72.576 L782.755 72.576 L782.755 65.6895 Q780.203 69.8214 776.395 71.8063 Q772.587 73.7508 767.078 73.7508 Q760.11 73.7508 755.978 69.8619 Q751.887 65.9325 751.887 59.3701 Q751.887 51.7138 756.991 47.825 Q762.136 43.9361 772.303 43.9361 L782.755 43.9361 L782.755 43.2069 Q782.755 38.0623 779.352 35.2672 Q775.99 32.4315 769.873 32.4315 Q765.984 32.4315 762.298 33.3632 Q758.611 34.295 755.209 36.1584 L755.209 29.2718 Q759.3 27.692 763.148 26.9223 Q766.997 26.1121 770.643 26.1121 Q780.486 26.1121 785.347 31.2163 Q790.208 36.3204 790.208 46.6907 Z" fill="#000000" fill-rule="nonzero" fill-opacity="1" /><path clip-path="url(#clip280)" d="M812.772 65.7705 L812.772 89.8329 L805.278 89.8329 L805.278 27.2059 L812.772 27.2059 L812.772 34.0924 Q815.121 30.0415 818.686 28.0971 Q822.292 26.1121 827.274 26.1121 Q835.538 26.1121 840.683 32.6746 Q845.868 39.2371 845.868 49.9314 Q845.868 60.6258 840.683 67.1883 Q835.538 73.7508 827.274 73.7508 Q822.292 73.7508 818.686 71.8063 Q815.121 69.8214 812.772 65.7705 M838.131 49.9314 Q838.131 41.7081 834.728 37.0496 Q831.366 32.3505 825.451 32.3505 Q819.537 32.3505 816.134 37.0496 Q812.772 41.7081 812.772 49.9314 Q812.772 58.1548 816.134 62.8538 Q819.537 67.5124 825.451 67.5124 Q831.366 67.5124 834.728 62.8538 Q838.131 58.1548 838.131 49.9314 Z" fill="#000000" fill-rule="nonzero" fill-opacity="1" /><path clip-path="url(#clip280)" d="M884.919 12.096 L923.159 12.096 L923.159 18.9825 L893.101 18.9825 L893.101 36.8875 L921.903 36.8875 L921.903 43.7741 L893.101 43.7741 L893.101 65.6895 L923.888 65.6895 L923.888 72.576 L884.919 72.576 L884.919 12.096 Z" fill="#000000" fill-rule="nonzero" fill-opacity="1" /><path clip-path="url(#clip280)" d="M931.666 27.2059 L939.565 27.2059 L953.743 65.2844 L967.922 27.2059 L975.821 27.2059 L958.807 72.576 L948.68 72.576 L931.666 27.2059 Z" fill="#000000" fill-rule="nonzero" fill-opacity="1" /><path clip-path="url(#clip280)" d="M1003.69 32.4315 Q997.696 32.4315 994.212 37.1306 Q990.728 41.7891 990.728 49.9314 Q990.728 58.0738 994.171 62.7728 Q997.655 67.4314 1003.69 67.4314 Q1009.65 67.4314 1013.13 62.7323 Q1016.61 58.0333 1016.61 49.9314 Q1016.61 41.8701 1013.13 37.1711 Q1009.65 32.4315 1003.69 32.4315 M1003.69 26.1121 Q1013.41 26.1121 1018.96 32.4315 Q1024.51 38.7509 1024.51 49.9314 Q1024.51 61.0714 1018.96 67.4314 Q1013.41 73.7508 1003.69 73.7508 Q993.928 73.7508 988.379 67.4314 Q982.869 61.0714 982.869 49.9314 Q982.869 38.7509 988.379 32.4315 Q993.928 26.1121 1003.69 26.1121 Z" fill="#000000" fill-rule="nonzero" fill-opacity="1" /><path clip-path="url(#clip280)" d="M1036.87 9.54393 L1044.32 9.54393 L1044.32 72.576 L1036.87 72.576 L1036.87 9.54393 Z" fill="#000000" fill-rule="nonzero" fill-opacity="1" /><path clip-path="url(#clip280)" d="M1059.15 54.671 L1059.15 27.2059 L1066.6 27.2059 L1066.6 54.3874 Q1066.6 60.8284 1069.11 64.0691 Q1071.62 67.2693 1076.65 67.2693 Q1082.68 67.2693 1086.17 63.421 Q1089.69 59.5726 1089.69 52.9291 L1089.69 27.2059 L1097.15 27.2059 L1097.15 72.576 L1089.69 72.576 L1089.69 65.6084 Q1086.98 69.7404 1083.37 71.7658 Q1079.81 73.7508 1075.07 73.7508 Q1067.25 73.7508 1063.2 68.8897 Q1059.15 64.0286 1059.15 54.671 M1077.9 26.1121 L1077.9 26.1121 Z" fill="#000000" fill-rule="nonzero" fill-opacity="1" /><path clip-path="url(#clip280)" d="M1119.87 14.324 L1119.87 27.2059 L1135.22 27.2059 L1135.22 32.9987 L1119.87 32.9987 L1119.87 57.6282 Q1119.87 63.1779 1121.37 64.7578 Q1122.91 66.3376 1127.57 66.3376 L1135.22 66.3376 L1135.22 72.576 L1127.57 72.576 Q1118.94 72.576 1115.66 69.3758 Q1112.38 66.1351 1112.38 57.6282 L1112.38 32.9987 L1106.91 32.9987 L1106.91 27.2059 L1112.38 27.2059 L1112.38 14.324 L1119.87 14.324 Z" fill="#000000" fill-rule="nonzero" fill-opacity="1" /><path clip-path="url(#clip280)" d="M1145.03 27.2059 L1152.48 27.2059 L1152.48 72.576 L1145.03 72.576 L1145.03 27.2059 M1145.03 9.54393 L1152.48 9.54393 L1152.48 18.9825 L1145.03 18.9825 L1145.03 9.54393 Z" fill="#000000" fill-rule="nonzero" fill-opacity="1" /><path clip-path="url(#clip280)" d="M1185.66 32.4315 Q1179.66 32.4315 1176.18 37.1306 Q1172.69 41.7891 1172.69 49.9314 Q1172.69 58.0738 1176.14 62.7728 Q1179.62 67.4314 1185.66 67.4314 Q1191.61 67.4314 1195.1 62.7323 Q1198.58 58.0333 1198.58 49.9314 Q1198.58 41.8701 1195.1 37.1711 Q1191.61 32.4315 1185.66 32.4315 M1185.66 26.1121 Q1195.38 26.1121 1200.93 32.4315 Q1206.48 38.7509 1206.48 49.9314 Q1206.48 61.0714 1200.93 67.4314 Q1195.38 73.7508 1185.66 73.7508 Q1175.9 73.7508 1170.35 67.4314 Q1164.84 61.0714 1164.84 49.9314 Q1164.84 38.7509 1170.35 32.4315 Q1175.9 26.1121 1185.66 26.1121 Z" fill="#000000" fill-rule="nonzero" fill-opacity="1" /><path clip-path="url(#clip280)" d="M1256.55 45.1919 L1256.55 72.576 L1249.09 72.576 L1249.09 45.4349 Q1249.09 38.994 1246.58 35.7938 Q1244.07 32.5936 1239.05 32.5936 Q1233.01 32.5936 1229.53 36.4419 Q1226.05 40.2903 1226.05 46.9338 L1226.05 72.576 L1218.55 72.576 L1218.55 27.2059 L1226.05 27.2059 L1226.05 34.2544 Q1228.72 30.163 1232.32 28.1376 Q1235.97 26.1121 1240.71 26.1121 Q1248.53 26.1121 1252.54 30.9732 Q1256.55 35.7938 1256.55 45.1919 Z" fill="#000000" fill-rule="nonzero" fill-opacity="1" /><path clip-path="url(#clip280)" d="M1306.29 18.8205 L1306.29 65.8515 L1316.18 65.8515 Q1328.7 65.8515 1334.49 60.1802 Q1340.32 54.509 1340.32 42.2752 Q1340.32 30.1225 1334.49 24.4918 Q1328.7 18.8205 1316.18 18.8205 L1306.29 18.8205 M1298.11 12.096 L1314.92 12.096 Q1332.5 12.096 1340.73 19.4281 Q1348.95 26.7198 1348.95 42.2752 Q1348.95 57.9117 1340.69 65.2439 Q1332.42 72.576 1314.92 72.576 L1298.11 72.576 L1298.11 12.096 Z" fill="#000000" fill-rule="nonzero" fill-opacity="1" /><path clip-path="url(#clip280)" d="M1360.9 54.671 L1360.9 27.2059 L1368.35 27.2059 L1368.35 54.3874 Q1368.35 60.8284 1370.87 64.0691 Q1373.38 67.2693 1378.4 67.2693 Q1384.44 67.2693 1387.92 63.421 Q1391.44 59.5726 1391.44 52.9291 L1391.44 27.2059 L1398.9 27.2059 L1398.9 72.576 L1391.44 72.576 L1391.44 65.6084 Q1388.73 69.7404 1385.12 71.7658 Q1381.56 73.7508 1376.82 73.7508 Q1369 73.7508 1364.95 68.8897 Q1360.9 64.0286 1360.9 54.671 M1379.66 26.1121 L1379.66 26.1121 Z" fill="#000000" fill-rule="nonzero" fill-opacity="1" /><path clip-path="url(#clip280)" d="M1440.54 34.1734 Q1439.28 33.4443 1437.79 33.1202 Q1436.33 32.7556 1434.55 32.7556 Q1428.23 32.7556 1424.82 36.8875 Q1421.46 40.9789 1421.46 48.6757 L1421.46 72.576 L1413.97 72.576 L1413.97 27.2059 L1421.46 27.2059 L1421.46 34.2544 Q1423.81 30.1225 1427.58 28.1376 Q1431.35 26.1121 1436.73 26.1121 Q1437.5 26.1121 1438.43 26.2337 Q1439.37 26.3147 1440.5 26.5172 L1440.54 34.1734 Z" fill="#000000" fill-rule="nonzero" fill-opacity="1" /><path clip-path="url(#clip280)" d="M1448.36 27.2059 L1455.81 27.2059 L1455.81 72.576 L1448.36 72.576 L1448.36 27.2059 M1448.36 9.54393 L1455.81 9.54393 L1455.81 18.9825 L1448.36 18.9825 L1448.36 9.54393 Z" fill="#000000" fill-rule="nonzero" fill-opacity="1" /><path clip-path="url(#clip280)" d="M1509.12 45.1919 L1509.12 72.576 L1501.67 72.576 L1501.67 45.4349 Q1501.67 38.994 1499.16 35.7938 Q1496.65 32.5936 1491.62 32.5936 Q1485.59 32.5936 1482.1 36.4419 Q1478.62 40.2903 1478.62 46.9338 L1478.62 72.576 L1471.12 72.576 L1471.12 27.2059 L1478.62 27.2059 L1478.62 34.2544 Q1481.29 30.163 1484.9 28.1376 Q1488.54 26.1121 1493.28 26.1121 Q1501.1 26.1121 1505.11 30.9732 Q1509.12 35.7938 1509.12 45.1919 Z" fill="#000000" fill-rule="nonzero" fill-opacity="1" /><path clip-path="url(#clip280)" d="M1553.84 49.3643 Q1553.84 41.2625 1550.48 36.8065 Q1547.16 32.3505 1541.12 32.3505 Q1535.13 32.3505 1531.77 36.8065 Q1528.45 41.2625 1528.45 49.3643 Q1528.45 57.4256 1531.77 61.8816 Q1535.13 66.3376 1541.12 66.3376 Q1547.16 66.3376 1550.48 61.8816 Q1553.84 57.4256 1553.84 49.3643 M1561.3 66.9452 Q1561.3 78.5308 1556.15 84.1616 Q1551.01 89.8329 1540.4 89.8329 Q1536.47 89.8329 1532.98 89.2252 Q1529.5 88.6581 1526.22 87.4428 L1526.22 80.1917 Q1529.5 81.9741 1532.7 82.8248 Q1535.9 83.6755 1539.22 83.6755 Q1546.55 83.6755 1550.2 79.8271 Q1553.84 76.0193 1553.84 68.282 L1553.84 64.5957 Q1551.54 68.6061 1547.93 70.5911 Q1544.32 72.576 1539.3 72.576 Q1530.96 72.576 1525.85 66.2161 Q1520.75 59.8562 1520.75 49.3643 Q1520.75 38.832 1525.85 32.472 Q1530.96 26.1121 1539.3 26.1121 Q1544.32 26.1121 1547.93 28.0971 Q1551.54 30.082 1553.84 34.0924 L1553.84 27.2059 L1561.3 27.2059 L1561.3 66.9452 Z" fill="#000000" fill-rule="nonzero" fill-opacity="1" /><path clip-path="url(#clip280)" d="M1594.96 12.096 L1646.12 12.096 L1646.12 18.9825 L1624.65 18.9825 L1624.65 72.576 L1616.43 72.576 L1616.43 18.9825 L1594.96 18.9825 L1594.96 12.096 Z" fill="#000000" fill-rule="nonzero" fill-opacity="1" /><path clip-path="url(#clip280)" d="M1667.8 34.1734 Q1666.54 33.4443 1665.04 33.1202 Q1663.58 32.7556 1661.8 32.7556 Q1655.48 32.7556 1652.08 36.8875 Q1648.72 40.9789 1648.72 48.6757 L1648.72 72.576 L1641.22 72.576 L1641.22 27.2059 L1648.72 27.2059 L1648.72 34.2544 Q1651.07 30.1225 1654.83 28.1376 Q1658.6 26.1121 1663.99 26.1121 Q1664.76 26.1121 1665.69 26.2337 Q1666.62 26.3147 1667.76 26.5172 L1667.8 34.1734 Z" fill="#000000" fill-rule="nonzero" fill-opacity="1" /><path clip-path="url(#clip280)" d="M1696.23 49.7694 Q1687.2 49.7694 1683.72 51.8354 Q1680.23 53.9013 1680.23 58.8839 Q1680.23 62.8538 1682.83 65.2034 Q1685.46 67.5124 1689.95 67.5124 Q1696.15 67.5124 1699.88 63.1374 Q1703.65 58.7219 1703.65 51.4303 L1703.65 49.7694 L1696.23 49.7694 M1711.1 46.6907 L1711.1 72.576 L1703.65 72.576 L1703.65 65.6895 Q1701.09 69.8214 1697.29 71.8063 Q1693.48 73.7508 1687.97 73.7508 Q1681 73.7508 1676.87 69.8619 Q1672.78 65.9325 1672.78 59.3701 Q1672.78 51.7138 1677.88 47.825 Q1683.03 43.9361 1693.2 43.9361 L1703.65 43.9361 L1703.65 43.2069 Q1703.65 38.0623 1700.24 35.2672 Q1696.88 32.4315 1690.76 32.4315 Q1686.88 32.4315 1683.19 33.3632 Q1679.5 34.295 1676.1 36.1584 L1676.1 29.2718 Q1680.19 27.692 1684.04 26.9223 Q1687.89 26.1121 1691.53 26.1121 Q1701.38 26.1121 1706.24 31.2163 Q1711.1 36.3204 1711.1 46.6907 Z" fill="#000000" fill-rule="nonzero" fill-opacity="1" /><path clip-path="url(#clip280)" d="M1726.45 27.2059 L1733.91 27.2059 L1733.91 72.576 L1726.45 72.576 L1726.45 27.2059 M1726.45 9.54393 L1733.91 9.54393 L1733.91 18.9825 L1726.45 18.9825 L1726.45 9.54393 Z" fill="#000000" fill-rule="nonzero" fill-opacity="1" /><path clip-path="url(#clip280)" d="M1787.22 45.1919 L1787.22 72.576 L1779.76 72.576 L1779.76 45.4349 Q1779.76 38.994 1777.25 35.7938 Q1774.74 32.5936 1769.72 32.5936 Q1763.68 32.5936 1760.2 36.4419 Q1756.71 40.2903 1756.71 46.9338 L1756.71 72.576 L1749.22 72.576 L1749.22 27.2059 L1756.71 27.2059 L1756.71 34.2544 Q1759.39 30.163 1762.99 28.1376 Q1766.64 26.1121 1771.38 26.1121 Q1779.2 26.1121 1783.21 30.9732 Q1787.22 35.7938 1787.22 45.1919 Z" fill="#000000" fill-rule="nonzero" fill-opacity="1" /><path clip-path="url(#clip280)" d="M1802.08 27.2059 L1809.54 27.2059 L1809.54 72.576 L1802.08 72.576 L1802.08 27.2059 M1802.08 9.54393 L1809.54 9.54393 L1809.54 18.9825 L1802.08 18.9825 L1802.08 9.54393 Z" fill="#000000" fill-rule="nonzero" fill-opacity="1" /><path clip-path="url(#clip280)" d="M1862.85 45.1919 L1862.85 72.576 L1855.39 72.576 L1855.39 45.4349 Q1855.39 38.994 1852.88 35.7938 Q1850.37 32.5936 1845.35 32.5936 Q1839.31 32.5936 1835.83 36.4419 Q1832.34 40.2903 1832.34 46.9338 L1832.34 72.576 L1824.85 72.576 L1824.85 27.2059 L1832.34 27.2059 L1832.34 34.2544 Q1835.02 30.163 1838.62 28.1376 Q1842.27 26.1121 1847.01 26.1121 Q1854.83 26.1121 1858.84 30.9732 Q1862.85 35.7938 1862.85 45.1919 Z" fill="#000000" fill-rule="nonzero" fill-opacity="1" /><path clip-path="url(#clip280)" d="M1907.57 49.3643 Q1907.57 41.2625 1904.21 36.8065 Q1900.89 32.3505 1894.85 32.3505 Q1888.85 32.3505 1885.49 36.8065 Q1882.17 41.2625 1882.17 49.3643 Q1882.17 57.4256 1885.49 61.8816 Q1888.85 66.3376 1894.85 66.3376 Q1900.89 66.3376 1904.21 61.8816 Q1907.57 57.4256 1907.57 49.3643 M1915.02 66.9452 Q1915.02 78.5308 1909.88 84.1616 Q1904.73 89.8329 1894.12 89.8329 Q1890.19 89.8329 1886.71 89.2252 Q1883.22 88.6581 1879.94 87.4428 L1879.94 80.1917 Q1883.22 81.9741 1886.42 82.8248 Q1889.62 83.6755 1892.95 83.6755 Q1900.28 83.6755 1903.92 79.8271 Q1907.57 76.0193 1907.57 68.282 L1907.57 64.5957 Q1905.26 68.6061 1901.66 70.5911 Q1898.05 72.576 1893.03 72.576 Q1884.68 72.576 1879.58 66.2161 Q1874.47 59.8562 1874.47 49.3643 Q1874.47 38.832 1879.58 32.472 Q1884.68 26.1121 1893.03 26.1121 Q1898.05 26.1121 1901.66 28.0971 Q1905.26 30.082 1907.57 34.0924 L1907.57 27.2059 L1915.02 27.2059 L1915.02 66.9452 Z" fill="#000000" fill-rule="nonzero" fill-opacity="1" /><polyline clip-path="url(#clip281)" style="stroke:#009af9; stroke-linecap:round; stroke-linejoin:round; stroke-width:4; stroke-opacity:1; fill:none" points="309.067,168.119 328.909,168.119 348.75,168.119 368.592,168.119 388.434,168.119 408.275,212.925 428.117,212.925 447.958,223.568 467.8,223.568 487.642,234.21 507.483,234.21 527.325,392.918 547.167,392.918 567.008,422.027 586.85,422.027 606.692,422.027 626.533,447.627 646.375,447.627 666.216,447.627 686.058,447.627 705.9,464.599 725.741,533.848 745.583,533.848 765.425,577.05 785.266,577.05 805.108,577.05 824.95,577.05 844.791,652.314 864.633,681.637 884.475,681.637 904.316,681.637 924.158,681.637 943.999,681.637 963.841,699.377 983.683,699.377 1003.52,729.747 1023.37,729.747 1043.21,766.143 1063.05,766.143 1082.89,766.143 1102.73,766.143 1122.57,785.664 1142.42,807.044 1162.26,818.456 1182.1,826.974 1201.94,826.974 1221.78,826.974 1241.62,853.131 1261.47,853.131 1281.31,853.131 1301.15,881.361 1320.99,912.137 1340.83,936.736 1360.67,961.841 1380.52,961.841 1400.36,961.841 1420.2,961.841 1440.04,961.841 1459.88,969.864 1479.72,969.864 1499.57,969.864 1519.41,969.864 1539.25,969.864 1559.09,969.864 1578.93,969.864 1598.77,973.364 1618.62,973.364 1638.46,984.429 1658.3,984.429 1678.14,984.429 1697.98,988.221 1717.82,1003.69 1737.67,1003.69 1757.51,1003.69 1777.35,1003.69 1797.19,1003.69 1817.03,1003.69 1836.87,1003.69 1856.71,1017 1876.56,1017 1896.4,1199.9 1916.24,1199.9 1936.08,1199.9 1955.92,1199.9 1975.76,1199.9 1995.61,1199.9 2015.45,1199.9 2035.29,1199.9 2055.13,1199.9 2074.97,1199.9 2094.81,1199.9 2114.66,1199.9 2134.5,1204.31 2154.34,1204.31 2174.18,1204.31 2194.02,1204.31 2213.86,1212.14 2233.71,1212.14 2253.55,1212.14 2273.39,1212.14 2293.23,1212.14 "/>
<polyline clip-path="url(#clip281)" style="stroke:#e26f46; stroke-linecap:round; stroke-linejoin:round; stroke-width:4; stroke-opacity:1; fill:none" points="309.067,160.256 328.909,166.25 348.75,166.25 368.592,192.409 388.434,221.021 408.275,220.395 428.117,220.395 447.958,220.395 467.8,246.666 487.642,246.666 507.483,267.486 527.325,267.486 547.167,474.03 567.008,513.912 586.85,513.912 606.692,513.912 626.533,524.971 646.375,524.971 666.216,553.943 686.058,553.943 705.9,553.943 725.741,553.943 745.583,594.289 765.425,604.111 785.266,667.65 805.108,716.442 824.95,740.792 844.791,800.303 864.633,800.303 884.475,838.254 904.316,883.787 924.158,925.404 943.999,952.18 963.841,952.18 983.683,971.922 1003.52,1007.03 1023.37,1007.03 1043.21,1018.78 1063.05,1100.31 1082.89,1100.31 1102.73,1100.31 1122.57,1100.31 1142.42,1125.2 1162.26,1183.46 1182.1,1183.46 1201.94,1214.7 1221.78,1214.7 1241.62,1239.93 1261.47,1239.93 1281.31,1264.29 1301.15,1264.29 1320.99,1264.29 1340.83,1264.29 1360.67,1279.8 1380.52,1279.8 1400.36,1292.77 1420.2,1292.77 1440.04,1301.65 1459.88,1301.65 1479.72,1301.65 1499.57,1301.65 1519.41,1321.11 1539.25,1321.11 1559.09,1330.26 1578.93,1330.26 1598.77,1330.26 1618.62,1330.26 1638.46,1330.26 1658.3,1330.26 1678.14,1330.26 1697.98,1330.26 1717.82,1330.26 1737.67,1342.82 1757.51,1342.82 1777.35,1355.18 1797.19,1377.45 1817.03,1377.45 1836.87,1377.45 1856.71,1377.45 1876.56,1377.45 1896.4,1377.45 1916.24,1377.45 1936.08,1377.45 1955.92,1377.45 1975.76,1381.77 1995.61,1381.77 2015.45,1386.4 2035.29,1386.4 2055.13,1386.4 2074.97,1386.4 2094.81,1386.4 2114.66,1386.4 2134.5,1386.4 2154.34,1386.4 2174.18,1386.4 2194.02,1386.4 2213.86,1386.4 2233.71,1386.4 2253.55,1386.4 2273.39,1386.4 2293.23,1386.4 "/>
<path clip-path="url(#clip280)" d="M1870.48 322.316 L2282.65 322.316 L2282.65 166.796 L1870.48 166.796  Z" fill="#ffffff" fill-rule="evenodd" fill-opacity="1"/>
<polyline clip-path="url(#clip280)" style="stroke:#000000; stroke-linecap:round; stroke-linejoin:round; stroke-width:4; stroke-opacity:1; fill:none" points="1870.48,322.316 2282.65,322.316 2282.65,166.796 1870.48,166.796 1870.48,322.316 "/>
<polyline clip-path="url(#clip280)" style="stroke:#009af9; stroke-linecap:round; stroke-linejoin:round; stroke-width:4; stroke-opacity:1; fill:none" points="1893.85,218.636 2034.06,218.636 "/>
<path clip-path="url(#clip280)" d="M2070.62 235.916 L2057.43 201.356 L2062.31 201.356 L2073.26 230.453 L2084.23 201.356 L2089.1 201.356 L2075.92 235.916 L2070.62 235.916 Z" fill="#000000" fill-rule="nonzero" fill-opacity="1" /><path clip-path="url(#clip280)" d="M2102.06 222.883 Q2096.9 222.883 2094.91 224.064 Q2092.91 225.244 2092.91 228.092 Q2092.91 230.36 2094.4 231.703 Q2095.9 233.022 2098.47 233.022 Q2102.01 233.022 2104.14 230.522 Q2106.29 227.999 2106.29 223.832 L2106.29 222.883 L2102.06 222.883 M2110.55 221.124 L2110.55 235.916 L2106.29 235.916 L2106.29 231.981 Q2104.84 234.342 2102.66 235.476 Q2100.48 236.587 2097.34 236.587 Q2093.35 236.587 2090.99 234.365 Q2088.66 232.119 2088.66 228.369 Q2088.66 223.994 2091.57 221.772 Q2094.51 219.55 2100.32 219.55 L2106.29 219.55 L2106.29 219.133 Q2106.29 216.194 2104.35 214.596 Q2102.43 212.976 2098.93 212.976 Q2096.71 212.976 2094.6 213.508 Q2092.5 214.041 2090.55 215.106 L2090.55 211.17 Q2092.89 210.268 2095.09 209.828 Q2097.29 209.365 2099.37 209.365 Q2105 209.365 2107.78 212.282 Q2110.55 215.198 2110.55 221.124 Z" fill="#000000" fill-rule="nonzero" fill-opacity="1" /><path clip-path="url(#clip280)" d="M2119.33 199.897 L2123.59 199.897 L2123.59 235.916 L2119.33 235.916 L2119.33 199.897 Z" fill="#000000" fill-rule="nonzero" fill-opacity="1" /><path clip-path="url(#clip280)" d="M2171.32 230.985 L2171.32 221.703 L2163.68 221.703 L2163.68 217.86 L2175.95 217.86 L2175.95 232.698 Q2173.24 234.619 2169.97 235.615 Q2166.71 236.587 2163.01 236.587 Q2154.91 236.587 2150.32 231.865 Q2145.76 227.119 2145.76 218.67 Q2145.76 210.198 2150.32 205.476 Q2154.91 200.731 2163.01 200.731 Q2166.39 200.731 2169.42 201.564 Q2172.47 202.397 2175.04 204.018 L2175.04 208.995 Q2172.45 206.796 2169.53 205.684 Q2166.62 204.573 2163.4 204.573 Q2157.06 204.573 2153.86 208.115 Q2150.69 211.657 2150.69 218.67 Q2150.69 225.661 2153.86 229.203 Q2157.06 232.744 2163.4 232.744 Q2165.88 232.744 2167.82 232.328 Q2169.77 231.888 2171.32 230.985 Z" fill="#000000" fill-rule="nonzero" fill-opacity="1" /><path clip-path="url(#clip280)" d="M2196.09 222.883 Q2190.92 222.883 2188.93 224.064 Q2186.94 225.244 2186.94 228.092 Q2186.94 230.36 2188.42 231.703 Q2189.93 233.022 2192.5 233.022 Q2196.04 233.022 2198.17 230.522 Q2200.32 227.999 2200.32 223.832 L2200.32 222.883 L2196.09 222.883 M2204.58 221.124 L2204.58 235.916 L2200.32 235.916 L2200.32 231.981 Q2198.86 234.342 2196.69 235.476 Q2194.51 236.587 2191.36 236.587 Q2187.38 236.587 2185.02 234.365 Q2182.68 232.119 2182.68 228.369 Q2182.68 223.994 2185.6 221.772 Q2188.54 219.55 2194.35 219.55 L2200.32 219.55 L2200.32 219.133 Q2200.32 216.194 2198.38 214.596 Q2196.46 212.976 2192.96 212.976 Q2190.74 212.976 2188.63 213.508 Q2186.53 214.041 2184.58 215.106 L2184.58 211.17 Q2186.92 210.268 2189.12 209.828 Q2191.32 209.365 2193.4 209.365 Q2199.03 209.365 2201.8 212.282 Q2204.58 215.198 2204.58 221.124 Z" fill="#000000" fill-rule="nonzero" fill-opacity="1" /><path clip-path="url(#clip280)" d="M2217.47 232.027 L2217.47 245.777 L2213.19 245.777 L2213.19 209.99 L2217.47 209.99 L2217.47 213.925 Q2218.82 211.61 2220.85 210.499 Q2222.91 209.365 2225.76 209.365 Q2230.48 209.365 2233.42 213.115 Q2236.39 216.865 2236.39 222.976 Q2236.39 229.087 2233.42 232.837 Q2230.48 236.587 2225.76 236.587 Q2222.91 236.587 2220.85 235.476 Q2218.82 234.342 2217.47 232.027 M2231.97 222.976 Q2231.97 218.277 2230.02 215.615 Q2228.1 212.93 2224.72 212.93 Q2221.34 212.93 2219.4 215.615 Q2217.47 218.277 2217.47 222.976 Q2217.47 227.675 2219.4 230.36 Q2221.34 233.022 2224.72 233.022 Q2228.1 233.022 2230.02 230.36 Q2231.97 227.675 2231.97 222.976 Z" fill="#000000" fill-rule="nonzero" fill-opacity="1" /><polyline clip-path="url(#clip280)" style="stroke:#e26f46; stroke-linecap:round; stroke-linejoin:round; stroke-width:4; stroke-opacity:1; fill:none" points="1893.85,270.476 2034.06,270.476 "/>
<path clip-path="url(#clip280)" d="M2057.43 253.196 L2086.66 253.196 L2086.66 257.131 L2074.4 257.131 L2074.4 287.756 L2069.7 287.756 L2069.7 257.131 L2057.43 257.131 L2057.43 253.196 Z" fill="#000000" fill-rule="nonzero" fill-opacity="1" /><path clip-path="url(#clip280)" d="M2105.11 273.728 L2105.11 275.811 L2085.53 275.811 Q2085.81 280.209 2088.17 282.524 Q2090.55 284.816 2094.79 284.816 Q2097.24 284.816 2099.54 284.214 Q2101.85 283.612 2104.12 282.409 L2104.12 286.436 Q2101.83 287.408 2099.42 287.918 Q2097.01 288.427 2094.54 288.427 Q2088.33 288.427 2084.7 284.816 Q2081.09 281.205 2081.09 275.047 Q2081.09 268.682 2084.51 264.955 Q2087.96 261.205 2093.79 261.205 Q2099.03 261.205 2102.06 264.585 Q2105.11 267.941 2105.11 273.728 M2100.85 272.478 Q2100.81 268.983 2098.89 266.899 Q2096.99 264.816 2093.84 264.816 Q2090.28 264.816 2088.12 266.83 Q2085.99 268.844 2085.67 272.501 L2100.85 272.478 Z" fill="#000000" fill-rule="nonzero" fill-opacity="1" /><path clip-path="url(#clip280)" d="M2128.63 262.594 L2128.63 266.622 Q2126.83 265.696 2124.88 265.233 Q2122.94 264.77 2120.85 264.77 Q2117.68 264.77 2116.09 265.742 Q2114.51 266.714 2114.51 268.659 Q2114.51 270.14 2115.65 270.997 Q2116.78 271.83 2120.21 272.594 L2121.66 272.918 Q2126.2 273.89 2128.1 275.672 Q2130.02 277.432 2130.02 280.603 Q2130.02 284.214 2127.15 286.321 Q2124.3 288.427 2119.3 288.427 Q2117.22 288.427 2114.95 288.01 Q2112.71 287.617 2110.21 286.807 L2110.21 282.409 Q2112.57 283.635 2114.86 284.26 Q2117.15 284.862 2119.4 284.862 Q2122.41 284.862 2124.03 283.844 Q2125.65 282.802 2125.65 280.927 Q2125.65 279.191 2124.47 278.265 Q2123.31 277.339 2119.35 276.483 L2117.87 276.135 Q2113.91 275.302 2112.15 273.589 Q2110.39 271.853 2110.39 268.844 Q2110.39 265.186 2112.98 263.196 Q2115.58 261.205 2120.35 261.205 Q2122.71 261.205 2124.79 261.552 Q2126.87 261.899 2128.63 262.594 Z" fill="#000000" fill-rule="nonzero" fill-opacity="1" /><path clip-path="url(#clip280)" d="M2141.02 254.469 L2141.02 261.83 L2149.79 261.83 L2149.79 265.14 L2141.02 265.14 L2141.02 279.214 Q2141.02 282.385 2141.87 283.288 Q2142.75 284.191 2145.41 284.191 L2149.79 284.191 L2149.79 287.756 L2145.41 287.756 Q2140.48 287.756 2138.61 285.927 Q2136.73 284.075 2136.73 279.214 L2136.73 265.14 L2133.61 265.14 L2133.61 261.83 L2136.73 261.83 L2136.73 254.469 L2141.02 254.469 Z" fill="#000000" fill-rule="nonzero" fill-opacity="1" /><path clip-path="url(#clip280)" d="M2194.21 282.825 L2194.21 273.543 L2186.57 273.543 L2186.57 269.7 L2198.84 269.7 L2198.84 284.538 Q2196.13 286.459 2192.87 287.455 Q2189.6 288.427 2185.9 288.427 Q2177.8 288.427 2173.22 283.705 Q2168.66 278.959 2168.66 270.51 Q2168.66 262.038 2173.22 257.316 Q2177.8 252.571 2185.9 252.571 Q2189.28 252.571 2192.31 253.404 Q2195.37 254.237 2197.94 255.858 L2197.94 260.835 Q2195.34 258.636 2192.43 257.524 Q2189.51 256.413 2186.29 256.413 Q2179.95 256.413 2176.76 259.955 Q2173.59 263.497 2173.59 270.51 Q2173.59 277.501 2176.76 281.043 Q2179.95 284.584 2186.29 284.584 Q2188.77 284.584 2190.72 284.168 Q2192.66 283.728 2194.21 282.825 Z" fill="#000000" fill-rule="nonzero" fill-opacity="1" /><path clip-path="url(#clip280)" d="M2218.98 274.723 Q2213.82 274.723 2211.83 275.904 Q2209.84 277.084 2209.84 279.932 Q2209.84 282.2 2211.32 283.543 Q2212.82 284.862 2215.39 284.862 Q2218.93 284.862 2221.06 282.362 Q2223.22 279.839 2223.22 275.672 L2223.22 274.723 L2218.98 274.723 M2227.47 272.964 L2227.47 287.756 L2223.22 287.756 L2223.22 283.821 Q2221.76 286.182 2219.58 287.316 Q2217.4 288.427 2214.26 288.427 Q2210.28 288.427 2207.91 286.205 Q2205.58 283.959 2205.58 280.209 Q2205.58 275.834 2208.49 273.612 Q2211.43 271.39 2217.24 271.39 L2223.22 271.39 L2223.22 270.973 Q2223.22 268.034 2221.27 266.436 Q2219.35 264.816 2215.85 264.816 Q2213.63 264.816 2211.53 265.348 Q2209.42 265.881 2207.47 266.946 L2207.47 263.01 Q2209.81 262.108 2212.01 261.668 Q2214.21 261.205 2216.29 261.205 Q2221.92 261.205 2224.7 264.122 Q2227.47 267.038 2227.47 272.964 Z" fill="#000000" fill-rule="nonzero" fill-opacity="1" /><path clip-path="url(#clip280)" d="M2240.37 283.867 L2240.37 297.617 L2236.09 297.617 L2236.09 261.83 L2240.37 261.83 L2240.37 265.765 Q2241.71 263.45 2243.75 262.339 Q2245.81 261.205 2248.65 261.205 Q2253.38 261.205 2256.32 264.955 Q2259.28 268.705 2259.28 274.816 Q2259.28 280.927 2256.32 284.677 Q2253.38 288.427 2248.65 288.427 Q2245.81 288.427 2243.75 287.316 Q2241.71 286.182 2240.37 283.867 M2254.86 274.816 Q2254.86 270.117 2252.91 267.455 Q2250.99 264.77 2247.61 264.77 Q2244.23 264.77 2242.29 267.455 Q2240.37 270.117 2240.37 274.816 Q2240.37 279.515 2242.29 282.2 Q2244.23 284.862 2247.61 284.862 Q2250.99 284.862 2252.91 282.2 Q2254.86 279.515 2254.86 274.816 Z" fill="#000000" fill-rule="nonzero" fill-opacity="1" /></svg>
