<?xml version="1.0" encoding="utf-8"?>
<svg xmlns="http://www.w3.org/2000/svg" xmlns:xlink="http://www.w3.org/1999/xlink" width="600" height="400" viewBox="0 0 2400 1600">
<defs>
  <clipPath id="clip130">
    <rect x="0" y="0" width="2400" height="1600"/>
  </clipPath>
</defs>
<path clip-path="url(#clip130)" d="M0 1600 L2400 1600 L2400 0 L0 0  Z" fill="#ffffff" fill-rule="evenodd" fill-opacity="1"/>
<defs>
  <clipPath id="clip131">
    <rect x="219" y="123" width="2134" height="1301"/>
  </clipPath>
</defs>
<path clip-path="url(#clip130)" d="M219.38 1423.18 L2352.76 1423.18 L2352.76 123.472 L219.38 123.472  Z" fill="#ffffff" fill-rule="evenodd" fill-opacity="1"/>
<polyline clip-path="url(#clip131)" style="stroke:#000000; stroke-linecap:round; stroke-linejoin:round; stroke-width:2; stroke-opacity:0.1; fill:none" points="279.759,1423.18 279.759,123.472 "/>
<polyline clip-path="url(#clip131)" style="stroke:#000000; stroke-linecap:round; stroke-linejoin:round; stroke-width:2; stroke-opacity:0.1; fill:none" points="782.913,1423.18 782.913,123.472 "/>
<polyline clip-path="url(#clip131)" style="stroke:#000000; stroke-linecap:round; stroke-linejoin:round; stroke-width:2; stroke-opacity:0.1; fill:none" points="1286.07,1423.18 1286.07,123.472 "/>
<polyline clip-path="url(#clip131)" style="stroke:#000000; stroke-linecap:round; stroke-linejoin:round; stroke-width:2; stroke-opacity:0.1; fill:none" points="1789.22,1423.18 1789.22,123.472 "/>
<polyline clip-path="url(#clip131)" style="stroke:#000000; stroke-linecap:round; stroke-linejoin:round; stroke-width:2; stroke-opacity:0.1; fill:none" points="2292.38,1423.18 2292.38,123.472 "/>
<polyline clip-path="url(#clip131)" style="stroke:#000000; stroke-linecap:round; stroke-linejoin:round; stroke-width:2; stroke-opacity:0.1; fill:none" points="219.38,1387.02 2352.76,1387.02 "/>
<polyline clip-path="url(#clip131)" style="stroke:#000000; stroke-linecap:round; stroke-linejoin:round; stroke-width:2; stroke-opacity:0.1; fill:none" points="219.38,1023.38 2352.76,1023.38 "/>
<polyline clip-path="url(#clip131)" style="stroke:#000000; stroke-linecap:round; stroke-linejoin:round; stroke-width:2; stroke-opacity:0.1; fill:none" points="219.38,659.75 2352.76,659.75 "/>
<polyline clip-path="url(#clip131)" style="stroke:#000000; stroke-linecap:round; stroke-linejoin:round; stroke-width:2; stroke-opacity:0.1; fill:none" points="219.38,296.116 2352.76,296.116 "/>
<polyline clip-path="url(#clip130)" style="stroke:#000000; stroke-linecap:round; stroke-linejoin:round; stroke-width:4; stroke-opacity:1; fill:none" points="219.38,1423.18 2352.76,1423.18 "/>
<polyline clip-path="url(#clip130)" style="stroke:#000000; stroke-linecap:round; stroke-linejoin:round; stroke-width:4; stroke-opacity:1; fill:none" points="279.759,1423.18 279.759,1404.28 "/>
<polyline clip-path="url(#clip130)" style="stroke:#000000; stroke-linecap:round; stroke-linejoin:round; stroke-width:4; stroke-opacity:1; fill:none" points="782.913,1423.18 782.913,1404.28 "/>
<polyline clip-path="url(#clip130)" style="stroke:#000000; stroke-linecap:round; stroke-linejoin:round; stroke-width:4; stroke-opacity:1; fill:none" points="1286.07,1423.18 1286.07,1404.28 "/>
<polyline clip-path="url(#clip130)" style="stroke:#000000; stroke-linecap:round; stroke-linejoin:round; stroke-width:4; stroke-opacity:1; fill:none" points="1789.22,1423.18 1789.22,1404.28 "/>
<polyline clip-path="url(#clip130)" style="stroke:#000000; stroke-linecap:round; stroke-linejoin:round; stroke-width:4; stroke-opacity:1; fill:none" points="2292.38,1423.18 2292.38,1404.28 "/>
<path clip-path="url(#clip130)" d="M279.759 1454.1 Q276.148 1454.1 274.319 1457.66 Q272.513 1461.2 272.513 1468.33 Q272.513 1475.44 274.319 1479.01 Q276.148 1482.55 279.759 1482.55 Q283.393 1482.55 285.199 1479.01 Q287.027 1475.44 287.027 1468.33 Q287.027 1461.2 285.199 1457.66 Q283.393 1454.1 279.759 1454.1 M279.759 1450.39 Q285.569 1450.39 288.624 1455 Q291.703 1459.58 291.703 1468.33 Q291.703 1477.06 288.624 1481.67 Q285.569 1486.25 279.759 1486.25 Q273.949 1486.25 270.87 1481.67 Q267.814 1477.06 267.814 1468.33 Q267.814 1459.58 270.87 1455 Q273.949 1450.39 279.759 1450.39 Z" fill="#000000" fill-rule="nonzero" fill-opacity="1" /><path clip-path="url(#clip130)" d="M762.184 1481.64 L778.504 1481.64 L778.504 1485.58 L756.559 1485.58 L756.559 1481.64 Q759.221 1478.89 763.805 1474.26 Q768.411 1469.61 769.592 1468.27 Q771.837 1465.74 772.717 1464.01 Q773.619 1462.25 773.619 1460.56 Q773.619 1457.8 771.675 1456.07 Q769.754 1454.33 766.652 1454.33 Q764.453 1454.33 761.999 1455.09 Q759.569 1455.86 756.791 1457.41 L756.791 1452.69 Q759.615 1451.55 762.069 1450.97 Q764.522 1450.39 766.559 1450.39 Q771.93 1450.39 775.124 1453.08 Q778.318 1455.77 778.318 1460.26 Q778.318 1462.39 777.508 1464.31 Q776.721 1466.2 774.615 1468.8 Q774.036 1469.47 770.934 1472.69 Q767.832 1475.88 762.184 1481.64 Z" fill="#000000" fill-rule="nonzero" fill-opacity="1" /><path clip-path="url(#clip130)" d="M788.365 1451.02 L806.721 1451.02 L806.721 1454.96 L792.647 1454.96 L792.647 1463.43 Q793.666 1463.08 794.684 1462.92 Q795.703 1462.73 796.721 1462.73 Q802.508 1462.73 805.888 1465.9 Q809.267 1469.08 809.267 1474.49 Q809.267 1480.07 805.795 1483.17 Q802.323 1486.25 796.004 1486.25 Q793.828 1486.25 791.559 1485.88 Q789.314 1485.51 786.906 1484.77 L786.906 1480.07 Q788.99 1481.2 791.212 1481.76 Q793.434 1482.32 795.911 1482.32 Q799.916 1482.32 802.254 1480.21 Q804.591 1478.1 804.591 1474.49 Q804.591 1470.88 802.254 1468.77 Q799.916 1466.67 795.911 1466.67 Q794.036 1466.67 792.161 1467.08 Q790.309 1467.5 788.365 1468.38 L788.365 1451.02 Z" fill="#000000" fill-rule="nonzero" fill-opacity="1" /><path clip-path="url(#clip130)" d="M1260.77 1451.02 L1279.12 1451.02 L1279.12 1454.96 L1265.05 1454.96 L1265.05 1463.43 Q1266.07 1463.08 1267.09 1462.92 Q1268.11 1462.73 1269.12 1462.73 Q1274.91 1462.73 1278.29 1465.9 Q1281.67 1469.08 1281.67 1474.49 Q1281.67 1480.07 1278.2 1483.17 Q1274.73 1486.25 1268.41 1486.25 Q1266.23 1486.25 1263.96 1485.88 Q1261.72 1485.51 1259.31 1484.77 L1259.31 1480.07 Q1261.39 1481.2 1263.61 1481.76 Q1265.84 1482.32 1268.31 1482.32 Q1272.32 1482.32 1274.66 1480.21 Q1276.99 1478.1 1276.99 1474.49 Q1276.99 1470.88 1274.66 1468.77 Q1272.32 1466.67 1268.31 1466.67 Q1266.44 1466.67 1264.56 1467.08 Q1262.71 1467.5 1260.77 1468.38 L1260.77 1451.02 Z" fill="#000000" fill-rule="nonzero" fill-opacity="1" /><path clip-path="url(#clip130)" d="M1300.88 1454.1 Q1297.27 1454.1 1295.44 1457.66 Q1293.64 1461.2 1293.64 1468.33 Q1293.64 1475.44 1295.44 1479.01 Q1297.27 1482.55 1300.88 1482.55 Q1304.52 1482.55 1306.32 1479.01 Q1308.15 1475.44 1308.15 1468.33 Q1308.15 1461.2 1306.32 1457.66 Q1304.52 1454.1 1300.88 1454.1 M1300.88 1450.39 Q1306.69 1450.39 1309.75 1455 Q1312.83 1459.58 1312.83 1468.33 Q1312.83 1477.06 1309.75 1481.67 Q1306.69 1486.25 1300.88 1486.25 Q1295.07 1486.25 1291.99 1481.67 Q1288.94 1477.06 1288.94 1468.33 Q1288.94 1459.58 1291.99 1455 Q1295.07 1450.39 1300.88 1450.39 Z" fill="#000000" fill-rule="nonzero" fill-opacity="1" /><path clip-path="url(#clip130)" d="M1763.08 1451.02 L1785.3 1451.02 L1785.3 1453.01 L1772.75 1485.58 L1767.87 1485.58 L1779.67 1454.96 L1763.08 1454.96 L1763.08 1451.02 Z" fill="#000000" fill-rule="nonzero" fill-opacity="1" /><path clip-path="url(#clip130)" d="M1794.47 1451.02 L1812.82 1451.02 L1812.82 1454.96 L1798.75 1454.96 L1798.75 1463.43 Q1799.77 1463.08 1800.79 1462.92 Q1801.8 1462.73 1802.82 1462.73 Q1808.61 1462.73 1811.99 1465.9 Q1815.37 1469.08 1815.37 1474.49 Q1815.37 1480.07 1811.9 1483.17 Q1808.42 1486.25 1802.1 1486.25 Q1799.93 1486.25 1797.66 1485.88 Q1795.41 1485.51 1793.01 1484.77 L1793.01 1480.07 Q1795.09 1481.2 1797.31 1481.76 Q1799.54 1482.32 1802.01 1482.32 Q1806.02 1482.32 1808.35 1480.21 Q1810.69 1478.1 1810.69 1474.49 Q1810.69 1470.88 1808.35 1468.77 Q1806.02 1466.67 1802.01 1466.67 Q1800.14 1466.67 1798.26 1467.08 Q1796.41 1467.5 1794.47 1468.38 L1794.47 1451.02 Z" fill="#000000" fill-rule="nonzero" fill-opacity="1" /><path clip-path="url(#clip130)" d="M2251.98 1481.64 L2259.62 1481.64 L2259.62 1455.28 L2251.31 1456.95 L2251.31 1452.69 L2259.58 1451.02 L2264.25 1451.02 L2264.25 1481.64 L2271.89 1481.64 L2271.89 1485.58 L2251.98 1485.58 L2251.98 1481.64 Z" fill="#000000" fill-rule="nonzero" fill-opacity="1" /><path clip-path="url(#clip130)" d="M2291.34 1454.1 Q2287.72 1454.1 2285.9 1457.66 Q2284.09 1461.2 2284.09 1468.33 Q2284.09 1475.44 2285.9 1479.01 Q2287.72 1482.55 2291.34 1482.55 Q2294.97 1482.55 2296.78 1479.01 Q2298.6 1475.44 2298.6 1468.33 Q2298.6 1461.2 2296.78 1457.66 Q2294.97 1454.1 2291.34 1454.1 M2291.34 1450.39 Q2297.15 1450.39 2300.2 1455 Q2303.28 1459.58 2303.28 1468.33 Q2303.28 1477.06 2300.2 1481.67 Q2297.15 1486.25 2291.34 1486.25 Q2285.53 1486.25 2282.45 1481.67 Q2279.39 1477.06 2279.39 1468.33 Q2279.39 1459.58 2282.45 1455 Q2285.53 1450.39 2291.34 1450.39 Z" fill="#000000" fill-rule="nonzero" fill-opacity="1" /><path clip-path="url(#clip130)" d="M2321.5 1454.1 Q2317.89 1454.1 2316.06 1457.66 Q2314.25 1461.2 2314.25 1468.33 Q2314.25 1475.44 2316.06 1479.01 Q2317.89 1482.55 2321.5 1482.55 Q2325.13 1482.55 2326.94 1479.01 Q2328.77 1475.44 2328.77 1468.33 Q2328.77 1461.2 2326.94 1457.66 Q2325.13 1454.1 2321.5 1454.1 M2321.5 1450.39 Q2327.31 1450.39 2330.36 1455 Q2333.44 1459.58 2333.44 1468.33 Q2333.44 1477.06 2330.36 1481.67 Q2327.31 1486.25 2321.5 1486.25 Q2315.69 1486.25 2312.61 1481.67 Q2309.55 1477.06 2309.55 1468.33 Q2309.55 1459.58 2312.61 1455 Q2315.69 1450.39 2321.5 1450.39 Z" fill="#000000" fill-rule="nonzero" fill-opacity="1" /><path clip-path="url(#clip130)" d="M1192.24 1520.52 L1222.28 1520.52 L1222.28 1525.93 L1198.67 1525.93 L1198.67 1540 L1221.3 1540 L1221.3 1545.41 L1198.67 1545.41 L1198.67 1562.63 L1222.86 1562.63 L1222.86 1568.04 L1192.24 1568.04 L1192.24 1520.52 Z" fill="#000000" fill-rule="nonzero" fill-opacity="1" /><path clip-path="url(#clip130)" d="M1238.83 1562.7 L1238.83 1581.6 L1232.95 1581.6 L1232.95 1532.4 L1238.83 1532.4 L1238.83 1537.81 Q1240.68 1534.62 1243.48 1533.1 Q1246.31 1531.54 1250.23 1531.54 Q1256.72 1531.54 1260.76 1536.69 Q1264.84 1541.85 1264.84 1550.25 Q1264.84 1558.65 1260.76 1563.81 Q1256.72 1568.97 1250.23 1568.97 Q1246.31 1568.97 1243.48 1567.44 Q1240.68 1565.88 1238.83 1562.7 M1258.76 1550.25 Q1258.76 1543.79 1256.09 1540.13 Q1253.44 1536.44 1248.8 1536.44 Q1244.15 1536.44 1241.48 1540.13 Q1238.83 1543.79 1238.83 1550.25 Q1238.83 1556.71 1241.48 1560.4 Q1244.15 1564.07 1248.8 1564.07 Q1253.44 1564.07 1256.09 1560.4 Q1258.76 1556.71 1258.76 1550.25 Z" fill="#000000" fill-rule="nonzero" fill-opacity="1" /><path clip-path="url(#clip130)" d="M1288.36 1536.5 Q1283.65 1536.5 1280.91 1540.19 Q1278.17 1543.85 1278.17 1550.25 Q1278.17 1556.65 1280.88 1560.34 Q1283.62 1564 1288.36 1564 Q1293.04 1564 1295.78 1560.31 Q1298.51 1556.62 1298.51 1550.25 Q1298.51 1543.92 1295.78 1540.23 Q1293.04 1536.5 1288.36 1536.5 M1288.36 1531.54 Q1296 1531.54 1300.36 1536.5 Q1304.72 1541.47 1304.72 1550.25 Q1304.72 1559 1300.36 1564 Q1296 1568.97 1288.36 1568.97 Q1280.69 1568.97 1276.33 1564 Q1272 1559 1272 1550.25 Q1272 1541.47 1276.33 1536.5 Q1280.69 1531.54 1288.36 1531.54 Z" fill="#000000" fill-rule="nonzero" fill-opacity="1" /><path clip-path="url(#clip130)" d="M1340.08 1533.76 L1340.08 1539.24 Q1337.6 1537.87 1335.08 1537.2 Q1332.6 1536.5 1330.06 1536.5 Q1324.36 1536.5 1321.21 1540.13 Q1318.06 1543.73 1318.06 1550.25 Q1318.06 1556.78 1321.21 1560.4 Q1324.36 1564 1330.06 1564 Q1332.6 1564 1335.08 1563.33 Q1337.6 1562.63 1340.08 1561.26 L1340.08 1566.68 Q1337.63 1567.82 1334.99 1568.39 Q1332.38 1568.97 1329.42 1568.97 Q1321.37 1568.97 1316.62 1563.91 Q1311.88 1558.85 1311.88 1550.25 Q1311.88 1541.53 1316.66 1536.53 Q1321.46 1531.54 1329.8 1531.54 Q1332.51 1531.54 1335.08 1532.11 Q1337.66 1532.65 1340.08 1533.76 Z" fill="#000000" fill-rule="nonzero" fill-opacity="1" /><path clip-path="url(#clip130)" d="M1379.9 1546.53 L1379.9 1568.04 L1374.04 1568.04 L1374.04 1546.72 Q1374.04 1541.66 1372.07 1539.14 Q1370.1 1536.63 1366.15 1536.63 Q1361.41 1536.63 1358.67 1539.65 Q1355.93 1542.68 1355.93 1547.9 L1355.93 1568.04 L1350.04 1568.04 L1350.04 1518.52 L1355.93 1518.52 L1355.93 1537.93 Q1358.03 1534.72 1360.87 1533.13 Q1363.73 1531.54 1367.45 1531.54 Q1373.6 1531.54 1376.75 1535.36 Q1379.9 1539.14 1379.9 1546.53 Z" fill="#000000" fill-rule="nonzero" fill-opacity="1" /><polyline clip-path="url(#clip130)" style="stroke:#000000; stroke-linecap:round; stroke-linejoin:round; stroke-width:4; stroke-opacity:1; fill:none" points="219.38,1423.18 219.38,123.472 "/>
<polyline clip-path="url(#clip130)" style="stroke:#000000; stroke-linecap:round; stroke-linejoin:round; stroke-width:4; stroke-opacity:1; fill:none" points="219.38,1387.02 238.278,1387.02 "/>
<polyline clip-path="url(#clip130)" style="stroke:#000000; stroke-linecap:round; stroke-linejoin:round; stroke-width:4; stroke-opacity:1; fill:none" points="219.38,1023.38 238.278,1023.38 "/>
<polyline clip-path="url(#clip130)" style="stroke:#000000; stroke-linecap:round; stroke-linejoin:round; stroke-width:4; stroke-opacity:1; fill:none" points="219.38,659.75 238.278,659.75 "/>
<polyline clip-path="url(#clip130)" style="stroke:#000000; stroke-linecap:round; stroke-linejoin:round; stroke-width:4; stroke-opacity:1; fill:none" points="219.38,296.116 238.278,296.116 "/>
<path clip-path="url(#clip130)" d="M126.205 1372.82 Q122.593 1372.82 120.765 1376.38 Q118.959 1379.92 118.959 1387.05 Q118.959 1394.16 120.765 1397.72 Q122.593 1401.27 126.205 1401.27 Q129.839 1401.27 131.644 1397.72 Q133.473 1394.16 133.473 1387.05 Q133.473 1379.92 131.644 1376.38 Q129.839 1372.82 126.205 1372.82 M126.205 1369.11 Q132.015 1369.11 135.07 1373.72 Q138.149 1378.3 138.149 1387.05 Q138.149 1395.78 135.07 1400.39 Q132.015 1404.97 126.205 1404.97 Q120.394 1404.97 117.316 1400.39 Q114.26 1395.78 114.26 1387.05 Q114.26 1378.3 117.316 1373.72 Q120.394 1369.11 126.205 1369.11 Z" fill="#000000" fill-rule="nonzero" fill-opacity="1" /><path clip-path="url(#clip130)" d="M146.366 1398.42 L151.251 1398.42 L151.251 1404.3 L146.366 1404.3 L146.366 1398.42 Z" fill="#000000" fill-rule="nonzero" fill-opacity="1" /><path clip-path="url(#clip130)" d="M171.436 1372.82 Q167.825 1372.82 165.996 1376.38 Q164.19 1379.92 164.19 1387.05 Q164.19 1394.16 165.996 1397.72 Q167.825 1401.27 171.436 1401.27 Q175.07 1401.27 176.876 1397.72 Q178.704 1394.16 178.704 1387.05 Q178.704 1379.92 176.876 1376.38 Q175.07 1372.82 171.436 1372.82 M171.436 1369.11 Q177.246 1369.11 180.301 1373.72 Q183.38 1378.3 183.38 1387.05 Q183.38 1395.78 180.301 1400.39 Q177.246 1404.97 171.436 1404.97 Q165.626 1404.97 162.547 1400.39 Q159.491 1395.78 159.491 1387.05 Q159.491 1378.3 162.547 1373.72 Q165.626 1369.11 171.436 1369.11 Z" fill="#000000" fill-rule="nonzero" fill-opacity="1" /><path clip-path="url(#clip130)" d="M127.2 1009.18 Q123.589 1009.18 121.76 1012.75 Q119.955 1016.29 119.955 1023.42 Q119.955 1030.52 121.76 1034.09 Q123.589 1037.63 127.2 1037.63 Q130.834 1037.63 132.64 1034.09 Q134.468 1030.52 134.468 1023.42 Q134.468 1016.29 132.64 1012.75 Q130.834 1009.18 127.2 1009.18 M127.2 1005.48 Q133.01 1005.48 136.066 1010.09 Q139.144 1014.67 139.144 1023.42 Q139.144 1032.15 136.066 1036.75 Q133.01 1041.34 127.2 1041.34 Q121.39 1041.34 118.311 1036.75 Q115.256 1032.15 115.256 1023.42 Q115.256 1014.67 118.311 1010.09 Q121.39 1005.48 127.2 1005.48 Z" fill="#000000" fill-rule="nonzero" fill-opacity="1" /><path clip-path="url(#clip130)" d="M147.362 1034.78 L152.246 1034.78 L152.246 1040.66 L147.362 1040.66 L147.362 1034.78 Z" fill="#000000" fill-rule="nonzero" fill-opacity="1" /><path clip-path="url(#clip130)" d="M162.477 1006.1 L180.834 1006.1 L180.834 1010.04 L166.76 1010.04 L166.76 1018.51 Q167.778 1018.16 168.797 1018 Q169.815 1017.82 170.834 1017.82 Q176.621 1017.82 180.001 1020.99 Q183.38 1024.16 183.38 1029.58 Q183.38 1035.15 179.908 1038.26 Q176.436 1041.34 170.116 1041.34 Q167.94 1041.34 165.672 1040.96 Q163.427 1040.59 161.019 1039.85 L161.019 1035.15 Q163.102 1036.29 165.325 1036.84 Q167.547 1037.4 170.024 1037.4 Q174.028 1037.4 176.366 1035.29 Q178.704 1033.19 178.704 1029.58 Q178.704 1025.96 176.366 1023.86 Q174.028 1021.75 170.024 1021.75 Q168.149 1021.75 166.274 1022.17 Q164.422 1022.59 162.477 1023.46 L162.477 1006.1 Z" fill="#000000" fill-rule="nonzero" fill-opacity="1" /><path clip-path="url(#clip130)" d="M117.015 673.095 L124.654 673.095 L124.654 646.729 L116.343 648.396 L116.343 644.137 L124.607 642.47 L129.283 642.47 L129.283 673.095 L136.922 673.095 L136.922 677.03 L117.015 677.03 L117.015 673.095 Z" fill="#000000" fill-rule="nonzero" fill-opacity="1" /><path clip-path="url(#clip130)" d="M146.366 671.15 L151.251 671.15 L151.251 677.03 L146.366 677.03 L146.366 671.15 Z" fill="#000000" fill-rule="nonzero" fill-opacity="1" /><path clip-path="url(#clip130)" d="M171.436 645.549 Q167.825 645.549 165.996 649.113 Q164.19 652.655 164.19 659.785 Q164.19 666.891 165.996 670.456 Q167.825 673.998 171.436 673.998 Q175.07 673.998 176.876 670.456 Q178.704 666.891 178.704 659.785 Q178.704 652.655 176.876 649.113 Q175.07 645.549 171.436 645.549 M171.436 641.845 Q177.246 641.845 180.301 646.451 Q183.38 651.035 183.38 659.785 Q183.38 668.512 180.301 673.118 Q177.246 677.701 171.436 677.701 Q165.626 677.701 162.547 673.118 Q159.491 668.512 159.491 659.785 Q159.491 651.035 162.547 646.451 Q165.626 641.845 171.436 641.845 Z" fill="#000000" fill-rule="nonzero" fill-opacity="1" /><path clip-path="url(#clip130)" d="M118.01 309.461 L125.649 309.461 L125.649 283.096 L117.339 284.762 L117.339 280.503 L125.603 278.836 L130.279 278.836 L130.279 309.461 L137.917 309.461 L137.917 313.396 L118.01 313.396 L118.01 309.461 Z" fill="#000000" fill-rule="nonzero" fill-opacity="1" /><path clip-path="url(#clip130)" d="M147.362 307.517 L152.246 307.517 L152.246 313.396 L147.362 313.396 L147.362 307.517 Z" fill="#000000" fill-rule="nonzero" fill-opacity="1" /><path clip-path="url(#clip130)" d="M162.477 278.836 L180.834 278.836 L180.834 282.771 L166.76 282.771 L166.76 291.244 Q167.778 290.896 168.797 290.734 Q169.815 290.549 170.834 290.549 Q176.621 290.549 180.001 293.72 Q183.38 296.892 183.38 302.308 Q183.38 307.887 179.908 310.989 Q176.436 314.068 170.116 314.068 Q167.94 314.068 165.672 313.697 Q163.427 313.327 161.019 312.586 L161.019 307.887 Q163.102 309.021 165.325 309.577 Q167.547 310.132 170.024 310.132 Q174.028 310.132 176.366 308.026 Q178.704 305.919 178.704 302.308 Q178.704 298.697 176.366 296.591 Q174.028 294.484 170.024 294.484 Q168.149 294.484 166.274 294.901 Q164.422 295.318 162.477 296.197 L162.477 278.836 Z" fill="#000000" fill-rule="nonzero" fill-opacity="1" /><path clip-path="url(#clip130)" d="M57.2247 800.492 L44.4614 800.492 L44.4614 810.995 L39.1779 810.995 L39.1779 794.126 L59.58 794.126 Q62.2218 797.85 63.5904 802.338 Q64.9272 806.826 64.9272 811.918 Q64.9272 823.058 58.4342 829.36 Q51.9093 835.63 40.2919 835.63 Q28.6427 835.63 22.1496 829.36 Q15.6248 823.058 15.6248 811.918 Q15.6248 807.271 16.7706 803.102 Q17.9164 798.9 20.1444 795.367 L26.9876 795.367 Q23.9639 798.932 22.4361 802.942 Q20.9083 806.953 20.9083 811.377 Q20.9083 820.098 25.7781 824.49 Q30.6479 828.851 40.2919 828.851 Q49.9041 828.851 54.7739 824.49 Q59.6436 820.098 59.6436 811.377 Q59.6436 807.971 59.0707 805.298 Q58.466 802.624 57.2247 800.492 Z" fill="#000000" fill-rule="nonzero" fill-opacity="1" /><path clip-path="url(#clip130)" d="M46.0847 766.435 Q46.0847 773.533 47.7079 776.27 Q49.3312 779.007 53.2461 779.007 Q56.3653 779.007 58.2114 776.97 Q60.0256 774.901 60.0256 771.369 Q60.0256 766.499 56.5881 763.571 Q53.1188 760.61 47.3897 760.61 L46.0847 760.61 L46.0847 766.435 M43.6657 754.754 L64.0042 754.754 L64.0042 760.61 L58.5933 760.61 Q61.8398 762.616 63.3994 765.608 Q64.9272 768.599 64.9272 772.928 Q64.9272 778.403 61.8716 781.649 Q58.7843 784.864 53.6281 784.864 Q47.6125 784.864 44.5569 780.853 Q41.5014 776.811 41.5014 768.822 L41.5014 760.61 L40.9285 760.61 Q36.8862 760.61 34.6901 763.284 Q32.4621 765.926 32.4621 770.732 Q32.4621 773.787 33.1941 776.684 Q33.9262 779.58 35.3903 782.254 L29.9795 782.254 Q28.7381 779.039 28.1334 776.015 Q27.4968 772.992 27.4968 770.127 Q27.4968 762.393 31.5072 758.573 Q35.5176 754.754 43.6657 754.754 Z" fill="#000000" fill-rule="nonzero" fill-opacity="1" /><path clip-path="url(#clip130)" d="M58.657 737.026 L77.5631 737.026 L77.5631 742.914 L28.3562 742.914 L28.3562 737.026 L33.7671 737.026 Q30.5842 735.179 29.0564 732.379 Q27.4968 729.546 27.4968 725.631 Q27.4968 719.138 32.6531 715.096 Q37.8093 711.022 46.212 711.022 Q54.6147 711.022 59.771 715.096 Q64.9272 719.138 64.9272 725.631 Q64.9272 729.546 63.3994 732.379 Q61.8398 735.179 58.657 737.026 M46.212 717.101 Q39.7508 717.101 36.0905 719.774 Q32.3984 722.416 32.3984 727.063 Q32.3984 731.71 36.0905 734.384 Q39.7508 737.026 46.212 737.026 Q52.6732 737.026 56.3653 734.384 Q60.0256 731.71 60.0256 727.063 Q60.0256 722.416 56.3653 719.774 Q52.6732 717.101 46.212 717.101 Z" fill="#000000" fill-rule="nonzero" fill-opacity="1" /><path clip-path="url(#clip130)" d="M716.916 63.9476 L716.916 47.7034 L703.548 47.7034 L703.548 40.9789 L725.018 40.9789 L725.018 66.9452 Q720.278 70.3075 714.566 72.0494 Q708.855 73.7508 702.373 73.7508 Q688.195 73.7508 680.174 65.4869 Q672.194 57.1826 672.194 42.3968 Q672.194 27.5705 680.174 19.3066 Q688.195 11.0023 702.373 11.0023 Q708.288 11.0023 713.594 12.4606 Q718.941 13.9189 723.438 16.7545 L723.438 25.464 Q718.901 21.6156 713.797 19.6712 Q708.693 17.7268 703.062 17.7268 Q691.962 17.7268 686.372 23.9246 Q680.822 30.1225 680.822 42.3968 Q680.822 54.6305 686.372 60.8284 Q691.962 67.0263 703.062 67.0263 Q707.396 67.0263 710.799 66.2971 Q714.202 65.5274 716.916 63.9476 Z" fill="#000000" fill-rule="nonzero" fill-opacity="1" /><path clip-path="url(#clip130)" d="M760.261 49.7694 Q751.227 49.7694 747.743 51.8354 Q744.26 53.9013 744.26 58.8839 Q744.26 62.8538 746.852 65.2034 Q749.485 67.5124 753.982 67.5124 Q760.18 67.5124 763.906 63.1374 Q767.674 58.7219 767.674 51.4303 L767.674 49.7694 L760.261 49.7694 M775.127 46.6907 L775.127 72.576 L767.674 72.576 L767.674 65.6895 Q765.122 69.8214 761.314 71.8063 Q757.506 73.7508 751.997 73.7508 Q745.029 73.7508 740.897 69.8619 Q736.806 65.9325 736.806 59.3701 Q736.806 51.7138 741.91 47.825 Q747.055 43.9361 757.222 43.9361 L767.674 43.9361 L767.674 43.2069 Q767.674 38.0623 764.271 35.2672 Q760.909 32.4315 754.792 32.4315 Q750.903 32.4315 747.217 33.3632 Q743.53 34.295 740.128 36.1584 L740.128 29.2718 Q744.219 27.692 748.067 26.9223 Q751.916 26.1121 755.562 26.1121 Q765.405 26.1121 770.266 31.2163 Q775.127 36.3204 775.127 46.6907 Z" fill="#000000" fill-rule="nonzero" fill-opacity="1" /><path clip-path="url(#clip130)" d="M797.691 65.7705 L797.691 89.8329 L790.197 89.8329 L790.197 27.2059 L797.691 27.2059 L797.691 34.0924 Q800.041 30.0415 803.605 28.0971 Q807.211 26.1121 812.193 26.1121 Q820.457 26.1121 825.602 32.6746 Q830.787 39.2371 830.787 49.9314 Q830.787 60.6258 825.602 67.1883 Q820.457 73.7508 812.193 73.7508 Q807.211 73.7508 803.605 71.8063 Q800.041 69.8214 797.691 65.7705 M823.05 49.9314 Q823.05 41.7081 819.647 37.0496 Q816.285 32.3505 810.37 32.3505 Q804.456 32.3505 801.053 37.0496 Q797.691 41.7081 797.691 49.9314 Q797.691 58.1548 801.053 62.8538 Q804.456 67.5124 810.37 67.5124 Q816.285 67.5124 819.647 62.8538 Q823.05 58.1548 823.05 49.9314 Z" fill="#000000" fill-rule="nonzero" fill-opacity="1" /><path clip-path="url(#clip130)" d="M869.838 12.096 L908.078 12.096 L908.078 18.9825 L878.02 18.9825 L878.02 36.8875 L906.822 36.8875 L906.822 43.7741 L878.02 43.7741 L878.02 65.6895 L908.807 65.6895 L908.807 72.576 L869.838 72.576 L869.838 12.096 Z" fill="#000000" fill-rule="nonzero" fill-opacity="1" /><path clip-path="url(#clip130)" d="M916.585 27.2059 L924.484 27.2059 L938.662 65.2844 L952.841 27.2059 L960.74 27.2059 L943.726 72.576 L933.599 72.576 L916.585 27.2059 Z" fill="#000000" fill-rule="nonzero" fill-opacity="1" /><path clip-path="url(#clip130)" d="M988.61 32.4315 Q982.615 32.4315 979.131 37.1306 Q975.647 41.7891 975.647 49.9314 Q975.647 58.0738 979.091 62.7728 Q982.574 67.4314 988.61 67.4314 Q994.565 67.4314 998.049 62.7323 Q1001.53 58.0333 1001.53 49.9314 Q1001.53 41.8701 998.049 37.1711 Q994.565 32.4315 988.61 32.4315 M988.61 26.1121 Q998.332 26.1121 1003.88 32.4315 Q1009.43 38.7509 1009.43 49.9314 Q1009.43 61.0714 1003.88 67.4314 Q998.332 73.7508 988.61 73.7508 Q978.847 73.7508 973.298 67.4314 Q967.788 61.0714 967.788 49.9314 Q967.788 38.7509 973.298 32.4315 Q978.847 26.1121 988.61 26.1121 Z" fill="#000000" fill-rule="nonzero" fill-opacity="1" /><path clip-path="url(#clip130)" d="M1021.79 9.54393 L1029.24 9.54393 L1029.24 72.576 L1021.79 72.576 L1021.79 9.54393 Z" fill="#000000" fill-rule="nonzero" fill-opacity="1" /><path clip-path="url(#clip130)" d="M1044.07 54.671 L1044.07 27.2059 L1051.52 27.2059 L1051.52 54.3874 Q1051.52 60.8284 1054.03 64.0691 Q1056.54 67.2693 1061.57 67.2693 Q1067.6 67.2693 1071.09 63.421 Q1074.61 59.5726 1074.61 52.9291 L1074.61 27.2059 L1082.06 27.2059 L1082.06 72.576 L1074.61 72.576 L1074.61 65.6084 Q1071.9 69.7404 1068.29 71.7658 Q1064.73 73.7508 1059.99 73.7508 Q1052.17 73.7508 1048.12 68.8897 Q1044.07 64.0286 1044.07 54.671 M1062.82 26.1121 L1062.82 26.1121 Z" fill="#000000" fill-rule="nonzero" fill-opacity="1" /><path clip-path="url(#clip130)" d="M1104.79 14.324 L1104.79 27.2059 L1120.14 27.2059 L1120.14 32.9987 L1104.79 32.9987 L1104.79 57.6282 Q1104.79 63.1779 1106.29 64.7578 Q1107.83 66.3376 1112.49 66.3376 L1120.14 66.3376 L1120.14 72.576 L1112.49 72.576 Q1103.86 72.576 1100.58 69.3758 Q1097.3 66.1351 1097.3 57.6282 L1097.3 32.9987 L1091.83 32.9987 L1091.83 27.2059 L1097.3 27.2059 L1097.3 14.324 L1104.79 14.324 Z" fill="#000000" fill-rule="nonzero" fill-opacity="1" /><path clip-path="url(#clip130)" d="M1129.95 27.2059 L1137.4 27.2059 L1137.4 72.576 L1129.95 72.576 L1129.95 27.2059 M1129.95 9.54393 L1137.4 9.54393 L1137.4 18.9825 L1129.95 18.9825 L1129.95 9.54393 Z" fill="#000000" fill-rule="nonzero" fill-opacity="1" /><path clip-path="url(#clip130)" d="M1170.58 32.4315 Q1164.58 32.4315 1161.1 37.1306 Q1157.61 41.7891 1157.61 49.9314 Q1157.61 58.0738 1161.06 62.7728 Q1164.54 67.4314 1170.58 67.4314 Q1176.53 67.4314 1180.02 62.7323 Q1183.5 58.0333 1183.5 49.9314 Q1183.5 41.8701 1180.02 37.1711 Q1176.53 32.4315 1170.58 32.4315 M1170.58 26.1121 Q1180.3 26.1121 1185.85 32.4315 Q1191.4 38.7509 1191.4 49.9314 Q1191.4 61.0714 1185.85 67.4314 Q1180.3 73.7508 1170.58 73.7508 Q1160.81 73.7508 1155.26 67.4314 Q1149.76 61.0714 1149.76 49.9314 Q1149.76 38.7509 1155.26 32.4315 Q1160.81 26.1121 1170.58 26.1121 Z" fill="#000000" fill-rule="nonzero" fill-opacity="1" /><path clip-path="url(#clip130)" d="M1241.47 45.1919 L1241.47 72.576 L1234.01 72.576 L1234.01 45.4349 Q1234.01 38.994 1231.5 35.7938 Q1228.99 32.5936 1223.97 32.5936 Q1217.93 32.5936 1214.45 36.4419 Q1210.96 40.2903 1210.96 46.9338 L1210.96 72.576 L1203.47 72.576 L1203.47 27.2059 L1210.96 27.2059 L1210.96 34.2544 Q1213.64 30.163 1217.24 28.1376 Q1220.89 26.1121 1225.63 26.1121 Q1233.45 26.1121 1237.46 30.9732 Q1241.47 35.7938 1241.47 45.1919 Z" fill="#000000" fill-rule="nonzero" fill-opacity="1" /><path clip-path="url(#clip130)" d="M1291.21 18.8205 L1291.21 65.8515 L1301.1 65.8515 Q1313.61 65.8515 1319.41 60.1802 Q1325.24 54.509 1325.24 42.2752 Q1325.24 30.1225 1319.41 24.4918 Q1313.61 18.8205 1301.1 18.8205 L1291.21 18.8205 M1283.03 12.096 L1299.84 12.096 Q1317.42 12.096 1325.65 19.4281 Q1333.87 26.7198 1333.87 42.2752 Q1333.87 57.9117 1325.6 65.2439 Q1317.34 72.576 1299.84 72.576 L1283.03 72.576 L1283.03 12.096 Z" fill="#000000" fill-rule="nonzero" fill-opacity="1" /><path clip-path="url(#clip130)" d="M1345.82 54.671 L1345.82 27.2059 L1353.27 27.2059 L1353.27 54.3874 Q1353.27 60.8284 1355.78 64.0691 Q1358.3 67.2693 1363.32 67.2693 Q1369.35 67.2693 1372.84 63.421 Q1376.36 59.5726 1376.36 52.9291 L1376.36 27.2059 L1383.82 27.2059 L1383.82 72.576 L1376.36 72.576 L1376.36 65.6084 Q1373.65 69.7404 1370.04 71.7658 Q1366.48 73.7508 1361.74 73.7508 Q1353.92 73.7508 1349.87 68.8897 Q1345.82 64.0286 1345.82 54.671 M1364.57 26.1121 L1364.57 26.1121 Z" fill="#000000" fill-rule="nonzero" fill-opacity="1" /><path clip-path="url(#clip130)" d="M1425.46 34.1734 Q1424.2 33.4443 1422.71 33.1202 Q1421.25 32.7556 1419.46 32.7556 Q1413.14 32.7556 1409.74 36.8875 Q1406.38 40.9789 1406.38 48.6757 L1406.38 72.576 L1398.89 72.576 L1398.89 27.2059 L1406.38 27.2059 L1406.38 34.2544 Q1408.73 30.1225 1412.5 28.1376 Q1416.26 26.1121 1421.65 26.1121 Q1422.42 26.1121 1423.35 26.2337 Q1424.28 26.3147 1425.42 26.5172 L1425.46 34.1734 Z" fill="#000000" fill-rule="nonzero" fill-opacity="1" /><path clip-path="url(#clip130)" d="M1433.28 27.2059 L1440.73 27.2059 L1440.73 72.576 L1433.28 72.576 L1433.28 27.2059 M1433.28 9.54393 L1440.73 9.54393 L1440.73 18.9825 L1433.28 18.9825 L1433.28 9.54393 Z" fill="#000000" fill-rule="nonzero" fill-opacity="1" /><path clip-path="url(#clip130)" d="M1494.04 45.1919 L1494.04 72.576 L1486.59 72.576 L1486.59 45.4349 Q1486.59 38.994 1484.08 35.7938 Q1481.56 32.5936 1476.54 32.5936 Q1470.51 32.5936 1467.02 36.4419 Q1463.54 40.2903 1463.54 46.9338 L1463.54 72.576 L1456.04 72.576 L1456.04 27.2059 L1463.54 27.2059 L1463.54 34.2544 Q1466.21 30.163 1469.82 28.1376 Q1473.46 26.1121 1478.2 26.1121 Q1486.02 26.1121 1490.03 30.9732 Q1494.04 35.7938 1494.04 45.1919 Z" fill="#000000" fill-rule="nonzero" fill-opacity="1" /><path clip-path="url(#clip130)" d="M1538.76 49.3643 Q1538.76 41.2625 1535.4 36.8065 Q1532.08 32.3505 1526.04 32.3505 Q1520.05 32.3505 1516.69 36.8065 Q1513.36 41.2625 1513.36 49.3643 Q1513.36 57.4256 1516.69 61.8816 Q1520.05 66.3376 1526.04 66.3376 Q1532.08 66.3376 1535.4 61.8816 Q1538.76 57.4256 1538.76 49.3643 M1546.22 66.9452 Q1546.22 78.5308 1541.07 84.1616 Q1535.93 89.8329 1525.31 89.8329 Q1521.39 89.8329 1517.9 89.2252 Q1514.42 88.6581 1511.14 87.4428 L1511.14 80.1917 Q1514.42 81.9741 1517.62 82.8248 Q1520.82 83.6755 1524.14 83.6755 Q1531.47 83.6755 1535.12 79.8271 Q1538.76 76.0193 1538.76 68.282 L1538.76 64.5957 Q1536.45 68.6061 1532.85 70.5911 Q1529.24 72.576 1524.22 72.576 Q1515.88 72.576 1510.77 66.2161 Q1505.67 59.8562 1505.67 49.3643 Q1505.67 38.832 1510.77 32.472 Q1515.88 26.1121 1524.22 26.1121 Q1529.24 26.1121 1532.85 28.0971 Q1536.45 30.082 1538.76 34.0924 L1538.76 27.2059 L1546.22 27.2059 L1546.22 66.9452 Z" fill="#000000" fill-rule="nonzero" fill-opacity="1" /><path clip-path="url(#clip130)" d="M1579.88 12.096 L1631.04 12.096 L1631.04 18.9825 L1609.57 18.9825 L1609.57 72.576 L1601.35 72.576 L1601.35 18.9825 L1579.88 18.9825 L1579.88 12.096 Z" fill="#000000" fill-rule="nonzero" fill-opacity="1" /><path clip-path="url(#clip130)" d="M1652.72 34.1734 Q1651.46 33.4443 1649.96 33.1202 Q1648.5 32.7556 1646.72 32.7556 Q1640.4 32.7556 1637 36.8875 Q1633.64 40.9789 1633.64 48.6757 L1633.64 72.576 L1626.14 72.576 L1626.14 27.2059 L1633.64 27.2059 L1633.64 34.2544 Q1635.99 30.1225 1639.75 28.1376 Q1643.52 26.1121 1648.91 26.1121 Q1649.68 26.1121 1650.61 26.2337 Q1651.54 26.3147 1652.67 26.5172 L1652.72 34.1734 Z" fill="#000000" fill-rule="nonzero" fill-opacity="1" /><path clip-path="url(#clip130)" d="M1681.15 49.7694 Q1672.12 49.7694 1668.64 51.8354 Q1665.15 53.9013 1665.15 58.8839 Q1665.15 62.8538 1667.74 65.2034 Q1670.38 67.5124 1674.87 67.5124 Q1681.07 67.5124 1684.8 63.1374 Q1688.57 58.7219 1688.57 51.4303 L1688.57 49.7694 L1681.15 49.7694 M1696.02 46.6907 L1696.02 72.576 L1688.57 72.576 L1688.57 65.6895 Q1686.01 69.8214 1682.21 71.8063 Q1678.4 73.7508 1672.89 73.7508 Q1665.92 73.7508 1661.79 69.8619 Q1657.7 65.9325 1657.7 59.3701 Q1657.7 51.7138 1662.8 47.825 Q1667.95 43.9361 1678.11 43.9361 L1688.57 43.9361 L1688.57 43.2069 Q1688.57 38.0623 1685.16 35.2672 Q1681.8 32.4315 1675.68 32.4315 Q1671.8 32.4315 1668.11 33.3632 Q1664.42 34.295 1661.02 36.1584 L1661.02 29.2718 Q1665.11 27.692 1668.96 26.9223 Q1672.81 26.1121 1676.45 26.1121 Q1686.3 26.1121 1691.16 31.2163 Q1696.02 36.3204 1696.02 46.6907 Z" fill="#000000" fill-rule="nonzero" fill-opacity="1" /><path clip-path="url(#clip130)" d="M1711.37 27.2059 L1718.83 27.2059 L1718.83 72.576 L1711.37 72.576 L1711.37 27.2059 M1711.37 9.54393 L1718.83 9.54393 L1718.83 18.9825 L1711.37 18.9825 L1711.37 9.54393 Z" fill="#000000" fill-rule="nonzero" fill-opacity="1" /><path clip-path="url(#clip130)" d="M1772.14 45.1919 L1772.14 72.576 L1764.68 72.576 L1764.68 45.4349 Q1764.68 38.994 1762.17 35.7938 Q1759.66 32.5936 1754.64 32.5936 Q1748.6 32.5936 1745.12 36.4419 Q1741.63 40.2903 1741.63 46.9338 L1741.63 72.576 L1734.14 72.576 L1734.14 27.2059 L1741.63 27.2059 L1741.63 34.2544 Q1744.31 30.163 1747.91 28.1376 Q1751.56 26.1121 1756.3 26.1121 Q1764.12 26.1121 1768.13 30.9732 Q1772.14 35.7938 1772.14 45.1919 Z" fill="#000000" fill-rule="nonzero" fill-opacity="1" /><path clip-path="url(#clip130)" d="M1787 27.2059 L1794.46 27.2059 L1794.46 72.576 L1787 72.576 L1787 27.2059 M1787 9.54393 L1794.46 9.54393 L1794.46 18.9825 L1787 18.9825 L1787 9.54393 Z" fill="#000000" fill-rule="nonzero" fill-opacity="1" /><path clip-path="url(#clip130)" d="M1847.77 45.1919 L1847.77 72.576 L1840.31 72.576 L1840.31 45.4349 Q1840.31 38.994 1837.8 35.7938 Q1835.29 32.5936 1830.27 32.5936 Q1824.23 32.5936 1820.75 36.4419 Q1817.26 40.2903 1817.26 46.9338 L1817.26 72.576 L1809.77 72.576 L1809.77 27.2059 L1817.26 27.2059 L1817.26 34.2544 Q1819.94 30.163 1823.54 28.1376 Q1827.19 26.1121 1831.93 26.1121 Q1839.75 26.1121 1843.76 30.9732 Q1847.77 35.7938 1847.77 45.1919 Z" fill="#000000" fill-rule="nonzero" fill-opacity="1" /><path clip-path="url(#clip130)" d="M1892.49 49.3643 Q1892.49 41.2625 1889.13 36.8065 Q1885.8 32.3505 1879.77 32.3505 Q1873.77 32.3505 1870.41 36.8065 Q1867.09 41.2625 1867.09 49.3643 Q1867.09 57.4256 1870.41 61.8816 Q1873.77 66.3376 1879.77 66.3376 Q1885.8 66.3376 1889.13 61.8816 Q1892.49 57.4256 1892.49 49.3643 M1899.94 66.9452 Q1899.94 78.5308 1894.8 84.1616 Q1889.65 89.8329 1879.04 89.8329 Q1875.11 89.8329 1871.63 89.2252 Q1868.14 88.6581 1864.86 87.4428 L1864.86 80.1917 Q1868.14 81.9741 1871.34 82.8248 Q1874.54 83.6755 1877.86 83.6755 Q1885.2 83.6755 1888.84 79.8271 Q1892.49 76.0193 1892.49 68.282 L1892.49 64.5957 Q1890.18 68.6061 1886.57 70.5911 Q1882.97 72.576 1877.95 72.576 Q1869.6 72.576 1864.5 66.2161 Q1859.39 59.8562 1859.39 49.3643 Q1859.39 38.832 1864.5 32.472 Q1869.6 26.1121 1877.95 26.1121 Q1882.97 26.1121 1886.57 28.0971 Q1890.18 30.082 1892.49 34.0924 L1892.49 27.2059 L1899.94 27.2059 L1899.94 66.9452 Z" fill="#000000" fill-rule="nonzero" fill-opacity="1" /><polyline clip-path="url(#clip131)" style="stroke:#009af9; stroke-linecap:round; stroke-linejoin:round; stroke-width:4; stroke-opacity:1; fill:none" points="279.759,160.256 299.885,160.256 320.011,160.256 340.137,160.256 360.263,160.256 380.39,184.258 400.516,184.258 420.642,184.258 440.768,184.258 460.894,221.388 481.021,221.388 501.147,234.441 521.273,261.345 541.399,350.895 561.525,350.895 581.652,350.895 601.778,398.247 621.904,398.247 642.03,446.407 662.156,513.241 682.282,567.15 702.409,582.711 722.535,590.164 742.661,590.164 762.787,624.232 782.913,624.232 803.04,624.232 823.166,624.232 843.292,629.382 863.418,686.243 883.544,686.243 903.67,761.191 923.797,761.191 943.923,779.294 964.049,874.575 984.175,874.575 1004.3,874.575 1024.43,895.532 1044.55,895.532 1064.68,895.532 1084.81,912.76 1104.93,992.692 1125.06,1069.69 1145.18,1153.69 1165.31,1153.69 1185.44,1173.05 1205.56,1173.05 1225.69,1188.8 1245.82,1188.8 1265.94,1188.8 1286.07,1214.28 1306.19,1214.28 1326.32,1214.28 1346.45,1214.28 1366.57,1246.99 1386.7,1246.99 1406.83,1249.93 1426.95,1283.45 1447.08,1296.53 1467.2,1296.53 1487.33,1301.85 1507.46,1301.85 1527.58,1301.85 1547.71,1322.37 1567.83,1322.37 1587.96,1338.13 1608.09,1347.26 1628.21,1347.26 1648.34,1347.26 1668.47,1351.8 1688.59,1351.8 1708.72,1351.8 1728.84,1351.8 1748.97,1351.8 1769.1,1351.8 1789.22,1351.8 1809.35,1351.8 1829.48,1367.26 1849.6,1367.26 1869.73,1367.26 1889.85,1367.26 1909.98,1372.14 1930.11,1372.14 1950.23,1372.14 1970.36,1372.14 1990.48,1372.14 2010.61,1380.4 2030.74,1382.66 2050.86,1382.66 2070.99,1382.66 2091.12,1382.66 2111.24,1382.66 2131.37,1385.58 2151.49,1385.58 2171.62,1385.58 2191.75,1385.58 2211.87,1385.58 2232,1385.58 2252.12,1385.58 2272.25,1385.58 2292.38,1385.58 "/>
<polyline clip-path="url(#clip131)" style="stroke:#e26f46; stroke-linecap:round; stroke-linejoin:round; stroke-width:4; stroke-opacity:1; fill:none" points="279.759,374.084 299.885,374.084 320.011,374.084 340.137,387.58 360.263,387.58 380.39,409.88 400.516,409.88 420.642,435.813 440.768,435.813 460.894,435.813 481.021,435.813 501.147,438.634 521.273,438.634 541.399,438.634 561.525,431.37 581.652,461.097 601.778,478.138 621.904,478.138 642.03,478.138 662.156,478.138 682.282,525.744 702.409,551.438 722.535,551.438 742.661,662.44 762.787,729.631 782.913,794.422 803.04,799.056 823.166,837.123 843.292,847.634 863.418,857.713 883.544,940.774 903.67,966.395 923.797,980.745 943.923,993.526 964.049,1010.81 984.175,1030.48 1004.3,1057.42 1024.43,1057.42 1044.55,1088.48 1064.68,1142.47 1084.81,1159.4 1104.93,1171.35 1125.06,1171.35 1145.18,1185.48 1165.31,1185.48 1185.44,1233.75 1205.56,1235.06 1225.69,1235.06 1245.82,1235.06 1265.94,1245.57 1286.07,1256.88 1306.19,1256.88 1326.32,1256.88 1346.45,1265.84 1366.57,1272.1 1386.7,1285.15 1406.83,1285.15 1426.95,1278.89 1447.08,1278.89 1467.2,1293.25 1487.33,1293.25 1507.46,1313.96 1527.58,1314.06 1547.71,1314.06 1567.83,1314.06 1587.96,1314.06 1608.09,1326.27 1628.21,1326.27 1648.34,1326.27 1668.47,1338.54 1688.59,1352.43 1708.72,1352.43 1728.84,1352.43 1748.97,1352.43 1769.1,1352.43 1789.22,1352.43 1809.35,1352.43 1829.48,1359.22 1849.6,1371.85 1869.73,1377.26 1889.85,1377.26 1909.98,1377.26 1930.11,1377.26 1950.23,1379.87 1970.36,1381.52 1990.48,1381.52 2010.61,1381.52 2030.74,1381.52 2050.86,1381.52 2070.99,1381.52 2091.12,1381.52 2111.24,1381.52 2131.37,1381.52 2151.49,1381.52 2171.62,1383.24 2191.75,1383.24 2211.87,1383.24 2232,1386.4 2252.12,1386.4 2272.25,1386.4 2292.38,1386.4 "/>
<path clip-path="url(#clip130)" d="M1866.46 322.316 L2281.64 322.316 L2281.64 166.796 L1866.46 166.796  Z" fill="#ffffff" fill-rule="evenodd" fill-opacity="1"/>
<polyline clip-path="url(#clip130)" style="stroke:#000000; stroke-linecap:round; stroke-linejoin:round; stroke-width:4; stroke-opacity:1; fill:none" points="1866.46,322.316 2281.64,322.316 2281.64,166.796 1866.46,166.796 1866.46,322.316 "/>
<polyline clip-path="url(#clip130)" style="stroke:#009af9; stroke-linecap:round; stroke-linejoin:round; stroke-width:4; stroke-opacity:1; fill:none" points="1890.16,218.636 2032.38,218.636 "/>
<path clip-path="url(#clip130)" d="M2069.28 235.916 L2056.09 201.356 L2060.97 201.356 L2071.92 230.453 L2082.89 201.356 L2087.75 201.356 L2074.58 235.916 L2069.28 235.916 Z" fill="#000000" fill-rule="nonzero" fill-opacity="1" /><path clip-path="url(#clip130)" d="M2100.72 222.883 Q2095.56 222.883 2093.57 224.064 Q2091.57 225.244 2091.57 228.092 Q2091.57 230.36 2093.06 231.703 Q2094.56 233.022 2097.13 233.022 Q2100.67 233.022 2102.8 230.522 Q2104.95 227.999 2104.95 223.832 L2104.95 222.883 L2100.72 222.883 M2109.21 221.124 L2109.21 235.916 L2104.95 235.916 L2104.95 231.981 Q2103.5 234.342 2101.32 235.476 Q2099.14 236.587 2096 236.587 Q2092.01 236.587 2089.65 234.365 Q2087.32 232.119 2087.32 228.369 Q2087.32 223.994 2090.23 221.772 Q2093.17 219.55 2098.98 219.55 L2104.95 219.55 L2104.95 219.133 Q2104.95 216.194 2103.01 214.596 Q2101.09 212.976 2097.59 212.976 Q2095.37 212.976 2093.26 213.508 Q2091.16 214.041 2089.21 215.106 L2089.21 211.17 Q2091.55 210.268 2093.75 209.828 Q2095.95 209.365 2098.03 209.365 Q2103.66 209.365 2106.44 212.282 Q2109.21 215.198 2109.21 221.124 Z" fill="#000000" fill-rule="nonzero" fill-opacity="1" /><path clip-path="url(#clip130)" d="M2117.99 199.897 L2122.25 199.897 L2122.25 235.916 L2117.99 235.916 L2117.99 199.897 Z" fill="#000000" fill-rule="nonzero" fill-opacity="1" /><path clip-path="url(#clip130)" d="M2169.98 230.985 L2169.98 221.703 L2162.34 221.703 L2162.34 217.86 L2174.61 217.86 L2174.61 232.698 Q2171.9 234.619 2168.63 235.615 Q2165.37 236.587 2161.67 236.587 Q2153.56 236.587 2148.98 231.865 Q2144.42 227.119 2144.42 218.67 Q2144.42 210.198 2148.98 205.476 Q2153.56 200.731 2161.67 200.731 Q2165.05 200.731 2168.08 201.564 Q2171.13 202.397 2173.7 204.018 L2173.7 208.995 Q2171.11 206.796 2168.19 205.684 Q2165.28 204.573 2162.06 204.573 Q2155.72 204.573 2152.52 208.115 Q2149.35 211.657 2149.35 218.67 Q2149.35 225.661 2152.52 229.203 Q2155.72 232.744 2162.06 232.744 Q2164.54 232.744 2166.48 232.328 Q2168.43 231.888 2169.98 230.985 Z" fill="#000000" fill-rule="nonzero" fill-opacity="1" /><path clip-path="url(#clip130)" d="M2194.75 222.883 Q2189.58 222.883 2187.59 224.064 Q2185.6 225.244 2185.6 228.092 Q2185.6 230.36 2187.08 231.703 Q2188.59 233.022 2191.16 233.022 Q2194.7 233.022 2196.83 230.522 Q2198.98 227.999 2198.98 223.832 L2198.98 222.883 L2194.75 222.883 M2203.24 221.124 L2203.24 235.916 L2198.98 235.916 L2198.98 231.981 Q2197.52 234.342 2195.35 235.476 Q2193.17 236.587 2190.02 236.587 Q2186.04 236.587 2183.68 234.365 Q2181.34 232.119 2181.34 228.369 Q2181.34 223.994 2184.26 221.772 Q2187.2 219.55 2193.01 219.55 L2198.98 219.55 L2198.98 219.133 Q2198.98 216.194 2197.04 214.596 Q2195.12 212.976 2191.62 212.976 Q2189.4 212.976 2187.29 213.508 Q2185.18 214.041 2183.24 215.106 L2183.24 211.17 Q2185.58 210.268 2187.78 209.828 Q2189.98 209.365 2192.06 209.365 Q2197.68 209.365 2200.46 212.282 Q2203.24 215.198 2203.24 221.124 Z" fill="#000000" fill-rule="nonzero" fill-opacity="1" /><path clip-path="url(#clip130)" d="M2216.13 232.027 L2216.13 245.777 L2211.85 245.777 L2211.85 209.99 L2216.13 209.99 L2216.13 213.925 Q2217.48 211.61 2219.51 210.499 Q2221.57 209.365 2224.42 209.365 Q2229.14 209.365 2232.08 213.115 Q2235.05 216.865 2235.05 222.976 Q2235.05 229.087 2232.08 232.837 Q2229.14 236.587 2224.42 236.587 Q2221.57 236.587 2219.51 235.476 Q2217.48 234.342 2216.13 232.027 M2230.62 222.976 Q2230.62 218.277 2228.68 215.615 Q2226.76 212.93 2223.38 212.93 Q2220 212.93 2218.06 215.615 Q2216.13 218.277 2216.13 222.976 Q2216.13 227.675 2218.06 230.36 Q2220 233.022 2223.38 233.022 Q2226.76 233.022 2228.68 230.36 Q2230.62 227.675 2230.62 222.976 Z" fill="#000000" fill-rule="nonzero" fill-opacity="1" /><polyline clip-path="url(#clip130)" style="stroke:#e26f46; stroke-linecap:round; stroke-linejoin:round; stroke-width:4; stroke-opacity:1; fill:none" points="1890.16,270.476 2032.38,270.476 "/>
<path clip-path="url(#clip130)" d="M2056.09 253.196 L2085.32 253.196 L2085.32 257.131 L2073.06 257.131 L2073.06 287.756 L2068.36 287.756 L2068.36 257.131 L2056.09 257.131 L2056.09 253.196 Z" fill="#000000" fill-rule="nonzero" fill-opacity="1" /><path clip-path="url(#clip130)" d="M2103.77 273.728 L2103.77 275.811 L2084.19 275.811 Q2084.47 280.209 2086.83 282.524 Q2089.21 284.816 2093.45 284.816 Q2095.9 284.816 2098.19 284.214 Q2100.51 283.612 2102.78 282.409 L2102.78 286.436 Q2100.49 287.408 2098.08 287.918 Q2095.67 288.427 2093.19 288.427 Q2086.99 288.427 2083.36 284.816 Q2079.75 281.205 2079.75 275.047 Q2079.75 268.682 2083.17 264.955 Q2086.62 261.205 2092.45 261.205 Q2097.69 261.205 2100.72 264.585 Q2103.77 267.941 2103.77 273.728 M2099.51 272.478 Q2099.47 268.983 2097.55 266.899 Q2095.65 264.816 2092.5 264.816 Q2088.94 264.816 2086.78 266.83 Q2084.65 268.844 2084.33 272.501 L2099.51 272.478 Z" fill="#000000" fill-rule="nonzero" fill-opacity="1" /><path clip-path="url(#clip130)" d="M2127.29 262.594 L2127.29 266.622 Q2125.49 265.696 2123.54 265.233 Q2121.6 264.77 2119.51 264.77 Q2116.34 264.77 2114.75 265.742 Q2113.17 266.714 2113.17 268.659 Q2113.17 270.14 2114.31 270.997 Q2115.44 271.83 2118.87 272.594 L2120.32 272.918 Q2124.86 273.89 2126.76 275.672 Q2128.68 277.432 2128.68 280.603 Q2128.68 284.214 2125.81 286.321 Q2122.96 288.427 2117.96 288.427 Q2115.88 288.427 2113.61 288.01 Q2111.37 287.617 2108.87 286.807 L2108.87 282.409 Q2111.23 283.635 2113.52 284.26 Q2115.81 284.862 2118.06 284.862 Q2121.06 284.862 2122.69 283.844 Q2124.31 282.802 2124.31 280.927 Q2124.31 279.191 2123.13 278.265 Q2121.97 277.339 2118.01 276.483 L2116.53 276.135 Q2112.57 275.302 2110.81 273.589 Q2109.05 271.853 2109.05 268.844 Q2109.05 265.186 2111.64 263.196 Q2114.24 261.205 2119 261.205 Q2121.37 261.205 2123.45 261.552 Q2125.53 261.899 2127.29 262.594 Z" fill="#000000" fill-rule="nonzero" fill-opacity="1" /><path clip-path="url(#clip130)" d="M2139.68 254.469 L2139.68 261.83 L2148.45 261.83 L2148.45 265.14 L2139.68 265.14 L2139.68 279.214 Q2139.68 282.385 2140.53 283.288 Q2141.41 284.191 2144.07 284.191 L2148.45 284.191 L2148.45 287.756 L2144.07 287.756 Q2139.14 287.756 2137.27 285.927 Q2135.39 284.075 2135.39 279.214 L2135.39 265.14 L2132.27 265.14 L2132.27 261.83 L2135.39 261.83 L2135.39 254.469 L2139.68 254.469 Z" fill="#000000" fill-rule="nonzero" fill-opacity="1" /><path clip-path="url(#clip130)" d="M2192.87 282.825 L2192.87 273.543 L2185.23 273.543 L2185.23 269.7 L2197.5 269.7 L2197.5 284.538 Q2194.79 286.459 2191.53 287.455 Q2188.26 288.427 2184.56 288.427 Q2176.46 288.427 2171.87 283.705 Q2167.31 278.959 2167.31 270.51 Q2167.31 262.038 2171.87 257.316 Q2176.46 252.571 2184.56 252.571 Q2187.94 252.571 2190.97 253.404 Q2194.03 254.237 2196.6 255.858 L2196.6 260.835 Q2194 258.636 2191.09 257.524 Q2188.17 256.413 2184.95 256.413 Q2178.61 256.413 2175.42 259.955 Q2172.25 263.497 2172.25 270.51 Q2172.25 277.501 2175.42 281.043 Q2178.61 284.584 2184.95 284.584 Q2187.43 284.584 2189.37 284.168 Q2191.32 283.728 2192.87 282.825 Z" fill="#000000" fill-rule="nonzero" fill-opacity="1" /><path clip-path="url(#clip130)" d="M2217.64 274.723 Q2212.48 274.723 2210.49 275.904 Q2208.5 277.084 2208.5 279.932 Q2208.5 282.2 2209.98 283.543 Q2211.48 284.862 2214.05 284.862 Q2217.59 284.862 2219.72 282.362 Q2221.87 279.839 2221.87 275.672 L2221.87 274.723 L2217.64 274.723 M2226.13 272.964 L2226.13 287.756 L2221.87 287.756 L2221.87 283.821 Q2220.42 286.182 2218.24 287.316 Q2216.06 288.427 2212.92 288.427 Q2208.93 288.427 2206.57 286.205 Q2204.24 283.959 2204.24 280.209 Q2204.24 275.834 2207.15 273.612 Q2210.09 271.39 2215.9 271.39 L2221.87 271.39 L2221.87 270.973 Q2221.87 268.034 2219.93 266.436 Q2218.01 264.816 2214.51 264.816 Q2212.29 264.816 2210.18 265.348 Q2208.08 265.881 2206.13 266.946 L2206.13 263.01 Q2208.47 262.108 2210.67 261.668 Q2212.87 261.205 2214.95 261.205 Q2220.58 261.205 2223.36 264.122 Q2226.13 267.038 2226.13 272.964 Z" fill="#000000" fill-rule="nonzero" fill-opacity="1" /><path clip-path="url(#clip130)" d="M2239.03 283.867 L2239.03 297.617 L2234.74 297.617 L2234.74 261.83 L2239.03 261.83 L2239.03 265.765 Q2240.37 263.45 2242.41 262.339 Q2244.47 261.205 2247.31 261.205 Q2252.04 261.205 2254.98 264.955 Q2257.94 268.705 2257.94 274.816 Q2257.94 280.927 2254.98 284.677 Q2252.04 288.427 2247.31 288.427 Q2244.47 288.427 2242.41 287.316 Q2240.37 286.182 2239.03 283.867 M2253.52 274.816 Q2253.52 270.117 2251.57 267.455 Q2249.65 264.77 2246.27 264.77 Q2242.89 264.77 2240.95 267.455 Q2239.03 270.117 2239.03 274.816 Q2239.03 279.515 2240.95 282.2 Q2242.89 284.862 2246.27 284.862 Q2249.65 284.862 2251.57 282.2 Q2253.52 279.515 2253.52 274.816 Z" fill="#000000" fill-rule="nonzero" fill-opacity="1" /></svg>
