<?xml version="1.0" encoding="utf-8"?>
<svg xmlns="http://www.w3.org/2000/svg" xmlns:xlink="http://www.w3.org/1999/xlink" width="600" height="400" viewBox="0 0 2400 1600">
<defs>
  <clipPath id="clip690">
    <rect x="0" y="0" width="2400" height="1600"/>
  </clipPath>
</defs>
<path clip-path="url(#clip690)" d="M0 1600 L2400 1600 L2400 0 L0 0  Z" fill="#ffffff" fill-rule="evenodd" fill-opacity="1"/>
<defs>
  <clipPath id="clip691">
    <rect x="219" y="123" width="2134" height="1301"/>
  </clipPath>
</defs>
<path clip-path="url(#clip690)" d="M219.866 1423.18 L2352.76 1423.18 L2352.76 123.472 L219.866 123.472  Z" fill="#ffffff" fill-rule="evenodd" fill-opacity="1"/>
<polyline clip-path="url(#clip691)" style="stroke:#000000; stroke-linecap:round; stroke-linejoin:round; stroke-width:2; stroke-opacity:0.1; fill:none" points="280.231,1423.18 280.231,123.472 "/>
<polyline clip-path="url(#clip691)" style="stroke:#000000; stroke-linecap:round; stroke-linejoin:round; stroke-width:2; stroke-opacity:0.1; fill:none" points="783.271,1423.18 783.271,123.472 "/>
<polyline clip-path="url(#clip691)" style="stroke:#000000; stroke-linecap:round; stroke-linejoin:round; stroke-width:2; stroke-opacity:0.1; fill:none" points="1286.31,1423.18 1286.31,123.472 "/>
<polyline clip-path="url(#clip691)" style="stroke:#000000; stroke-linecap:round; stroke-linejoin:round; stroke-width:2; stroke-opacity:0.1; fill:none" points="1789.35,1423.18 1789.35,123.472 "/>
<polyline clip-path="url(#clip691)" style="stroke:#000000; stroke-linecap:round; stroke-linejoin:round; stroke-width:2; stroke-opacity:0.1; fill:none" points="2292.39,1423.18 2292.39,123.472 "/>
<polyline clip-path="url(#clip691)" style="stroke:#000000; stroke-linecap:round; stroke-linejoin:round; stroke-width:2; stroke-opacity:0.1; fill:none" points="219.866,1400.95 2352.76,1400.95 "/>
<polyline clip-path="url(#clip691)" style="stroke:#000000; stroke-linecap:round; stroke-linejoin:round; stroke-width:2; stroke-opacity:0.1; fill:none" points="219.866,1203.38 2352.76,1203.38 "/>
<polyline clip-path="url(#clip691)" style="stroke:#000000; stroke-linecap:round; stroke-linejoin:round; stroke-width:2; stroke-opacity:0.1; fill:none" points="219.866,1005.82 2352.76,1005.82 "/>
<polyline clip-path="url(#clip691)" style="stroke:#000000; stroke-linecap:round; stroke-linejoin:round; stroke-width:2; stroke-opacity:0.1; fill:none" points="219.866,808.25 2352.76,808.25 "/>
<polyline clip-path="url(#clip691)" style="stroke:#000000; stroke-linecap:round; stroke-linejoin:round; stroke-width:2; stroke-opacity:0.1; fill:none" points="219.866,610.684 2352.76,610.684 "/>
<polyline clip-path="url(#clip691)" style="stroke:#000000; stroke-linecap:round; stroke-linejoin:round; stroke-width:2; stroke-opacity:0.1; fill:none" points="219.866,413.118 2352.76,413.118 "/>
<polyline clip-path="url(#clip691)" style="stroke:#000000; stroke-linecap:round; stroke-linejoin:round; stroke-width:2; stroke-opacity:0.1; fill:none" points="219.866,215.552 2352.76,215.552 "/>
<polyline clip-path="url(#clip690)" style="stroke:#000000; stroke-linecap:round; stroke-linejoin:round; stroke-width:4; stroke-opacity:1; fill:none" points="219.866,1423.18 2352.76,1423.18 "/>
<polyline clip-path="url(#clip690)" style="stroke:#000000; stroke-linecap:round; stroke-linejoin:round; stroke-width:4; stroke-opacity:1; fill:none" points="280.231,1423.18 280.231,1404.28 "/>
<polyline clip-path="url(#clip690)" style="stroke:#000000; stroke-linecap:round; stroke-linejoin:round; stroke-width:4; stroke-opacity:1; fill:none" points="783.271,1423.18 783.271,1404.28 "/>
<polyline clip-path="url(#clip690)" style="stroke:#000000; stroke-linecap:round; stroke-linejoin:round; stroke-width:4; stroke-opacity:1; fill:none" points="1286.31,1423.18 1286.31,1404.28 "/>
<polyline clip-path="url(#clip690)" style="stroke:#000000; stroke-linecap:round; stroke-linejoin:round; stroke-width:4; stroke-opacity:1; fill:none" points="1789.35,1423.18 1789.35,1404.28 "/>
<polyline clip-path="url(#clip690)" style="stroke:#000000; stroke-linecap:round; stroke-linejoin:round; stroke-width:4; stroke-opacity:1; fill:none" points="2292.39,1423.18 2292.39,1404.28 "/>
<path clip-path="url(#clip690)" d="M280.231 1454.1 Q276.62 1454.1 274.791 1457.66 Q272.986 1461.2 272.986 1468.33 Q272.986 1475.44 274.791 1479.01 Q276.62 1482.55 280.231 1482.55 Q283.865 1482.55 285.671 1479.01 Q287.5 1475.44 287.5 1468.33 Q287.5 1461.2 285.671 1457.66 Q283.865 1454.1 280.231 1454.1 M280.231 1450.39 Q286.041 1450.39 289.097 1455 Q292.175 1459.58 292.175 1468.33 Q292.175 1477.06 289.097 1481.67 Q286.041 1486.25 280.231 1486.25 Q274.421 1486.25 271.342 1481.67 Q268.287 1477.06 268.287 1468.33 Q268.287 1459.58 271.342 1455 Q274.421 1450.39 280.231 1450.39 Z" fill="#000000" fill-rule="nonzero" fill-opacity="1" /><path clip-path="url(#clip690)" d="M762.542 1481.64 L778.861 1481.64 L778.861 1485.58 L756.917 1485.58 L756.917 1481.64 Q759.579 1478.89 764.162 1474.26 Q768.769 1469.61 769.949 1468.27 Q772.195 1465.74 773.074 1464.01 Q773.977 1462.25 773.977 1460.56 Q773.977 1457.8 772.033 1456.07 Q770.111 1454.33 767.01 1454.33 Q764.811 1454.33 762.357 1455.09 Q759.926 1455.86 757.149 1457.41 L757.149 1452.69 Q759.973 1451.55 762.426 1450.97 Q764.88 1450.39 766.917 1450.39 Q772.287 1450.39 775.482 1453.08 Q778.676 1455.77 778.676 1460.26 Q778.676 1462.39 777.866 1464.31 Q777.079 1466.2 774.973 1468.8 Q774.394 1469.47 771.292 1472.69 Q768.19 1475.88 762.542 1481.64 Z" fill="#000000" fill-rule="nonzero" fill-opacity="1" /><path clip-path="url(#clip690)" d="M788.722 1451.02 L807.079 1451.02 L807.079 1454.96 L793.005 1454.96 L793.005 1463.43 Q794.023 1463.08 795.042 1462.92 Q796.06 1462.73 797.079 1462.73 Q802.866 1462.73 806.245 1465.9 Q809.625 1469.08 809.625 1474.49 Q809.625 1480.07 806.153 1483.17 Q802.681 1486.25 796.361 1486.25 Q794.185 1486.25 791.917 1485.88 Q789.672 1485.51 787.264 1484.77 L787.264 1480.07 Q789.347 1481.2 791.57 1481.76 Q793.792 1482.32 796.269 1482.32 Q800.273 1482.32 802.611 1480.21 Q804.949 1478.1 804.949 1474.49 Q804.949 1470.88 802.611 1468.77 Q800.273 1466.67 796.269 1466.67 Q794.394 1466.67 792.519 1467.08 Q790.667 1467.5 788.722 1468.38 L788.722 1451.02 Z" fill="#000000" fill-rule="nonzero" fill-opacity="1" /><path clip-path="url(#clip690)" d="M1261.01 1451.02 L1279.37 1451.02 L1279.37 1454.96 L1265.29 1454.96 L1265.29 1463.43 Q1266.31 1463.08 1267.33 1462.92 Q1268.35 1462.73 1269.37 1462.73 Q1275.15 1462.73 1278.53 1465.9 Q1281.91 1469.08 1281.91 1474.49 Q1281.91 1480.07 1278.44 1483.17 Q1274.97 1486.25 1268.65 1486.25 Q1266.47 1486.25 1264.2 1485.88 Q1261.96 1485.51 1259.55 1484.77 L1259.55 1480.07 Q1261.64 1481.2 1263.86 1481.76 Q1266.08 1482.32 1268.56 1482.32 Q1272.56 1482.32 1274.9 1480.21 Q1277.24 1478.1 1277.24 1474.49 Q1277.24 1470.88 1274.9 1468.77 Q1272.56 1466.67 1268.56 1466.67 Q1266.68 1466.67 1264.81 1467.08 Q1262.95 1467.5 1261.01 1468.38 L1261.01 1451.02 Z" fill="#000000" fill-rule="nonzero" fill-opacity="1" /><path clip-path="url(#clip690)" d="M1301.13 1454.1 Q1297.51 1454.1 1295.69 1457.66 Q1293.88 1461.2 1293.88 1468.33 Q1293.88 1475.44 1295.69 1479.01 Q1297.51 1482.55 1301.13 1482.55 Q1304.76 1482.55 1306.57 1479.01 Q1308.39 1475.44 1308.39 1468.33 Q1308.39 1461.2 1306.57 1457.66 Q1304.76 1454.1 1301.13 1454.1 M1301.13 1450.39 Q1306.94 1450.39 1309.99 1455 Q1313.07 1459.58 1313.07 1468.33 Q1313.07 1477.06 1309.99 1481.67 Q1306.94 1486.25 1301.13 1486.25 Q1295.32 1486.25 1292.24 1481.67 Q1289.18 1477.06 1289.18 1468.33 Q1289.18 1459.58 1292.24 1455 Q1295.32 1450.39 1301.13 1450.39 Z" fill="#000000" fill-rule="nonzero" fill-opacity="1" /><path clip-path="url(#clip690)" d="M1763.21 1451.02 L1785.43 1451.02 L1785.43 1453.01 L1772.88 1485.58 L1768 1485.58 L1779.8 1454.96 L1763.21 1454.96 L1763.21 1451.02 Z" fill="#000000" fill-rule="nonzero" fill-opacity="1" /><path clip-path="url(#clip690)" d="M1794.59 1451.02 L1812.95 1451.02 L1812.95 1454.96 L1798.88 1454.96 L1798.88 1463.43 Q1799.9 1463.08 1800.91 1462.92 Q1801.93 1462.73 1802.95 1462.73 Q1808.74 1462.73 1812.12 1465.9 Q1815.5 1469.08 1815.5 1474.49 Q1815.5 1480.07 1812.02 1483.17 Q1808.55 1486.25 1802.23 1486.25 Q1800.06 1486.25 1797.79 1485.88 Q1795.54 1485.51 1793.14 1484.77 L1793.14 1480.07 Q1795.22 1481.2 1797.44 1481.76 Q1799.66 1482.32 1802.14 1482.32 Q1806.14 1482.32 1808.48 1480.21 Q1810.82 1478.1 1810.82 1474.49 Q1810.82 1470.88 1808.48 1468.77 Q1806.14 1466.67 1802.14 1466.67 Q1800.27 1466.67 1798.39 1467.08 Q1796.54 1467.5 1794.59 1468.38 L1794.59 1451.02 Z" fill="#000000" fill-rule="nonzero" fill-opacity="1" /><path clip-path="url(#clip690)" d="M2252 1481.64 L2259.64 1481.64 L2259.64 1455.28 L2251.33 1456.95 L2251.33 1452.69 L2259.59 1451.02 L2264.27 1451.02 L2264.27 1481.64 L2271.91 1481.64 L2271.91 1485.58 L2252 1485.58 L2252 1481.64 Z" fill="#000000" fill-rule="nonzero" fill-opacity="1" /><path clip-path="url(#clip690)" d="M2291.35 1454.1 Q2287.74 1454.1 2285.91 1457.66 Q2284.1 1461.2 2284.1 1468.33 Q2284.1 1475.44 2285.91 1479.01 Q2287.74 1482.55 2291.35 1482.55 Q2294.98 1482.55 2296.79 1479.01 Q2298.62 1475.44 2298.62 1468.33 Q2298.62 1461.2 2296.79 1457.66 Q2294.98 1454.1 2291.35 1454.1 M2291.35 1450.39 Q2297.16 1450.39 2300.22 1455 Q2303.29 1459.58 2303.29 1468.33 Q2303.29 1477.06 2300.22 1481.67 Q2297.16 1486.25 2291.35 1486.25 Q2285.54 1486.25 2282.46 1481.67 Q2279.41 1477.06 2279.41 1468.33 Q2279.41 1459.58 2282.46 1455 Q2285.54 1450.39 2291.35 1450.39 Z" fill="#000000" fill-rule="nonzero" fill-opacity="1" /><path clip-path="url(#clip690)" d="M2321.51 1454.1 Q2317.9 1454.1 2316.07 1457.66 Q2314.27 1461.2 2314.27 1468.33 Q2314.27 1475.44 2316.07 1479.01 Q2317.9 1482.55 2321.51 1482.55 Q2325.15 1482.55 2326.95 1479.01 Q2328.78 1475.44 2328.78 1468.33 Q2328.78 1461.2 2326.95 1457.66 Q2325.15 1454.1 2321.51 1454.1 M2321.51 1450.39 Q2327.32 1450.39 2330.38 1455 Q2333.46 1459.58 2333.46 1468.33 Q2333.46 1477.06 2330.38 1481.67 Q2327.32 1486.25 2321.51 1486.25 Q2315.7 1486.25 2312.62 1481.67 Q2309.57 1477.06 2309.57 1468.33 Q2309.57 1459.58 2312.62 1455 Q2315.7 1450.39 2321.51 1450.39 Z" fill="#000000" fill-rule="nonzero" fill-opacity="1" /><path clip-path="url(#clip690)" d="M1192.48 1520.52 L1222.53 1520.52 L1222.53 1525.93 L1198.91 1525.93 L1198.91 1540 L1221.54 1540 L1221.54 1545.41 L1198.91 1545.41 L1198.91 1562.63 L1223.1 1562.63 L1223.1 1568.04 L1192.48 1568.04 L1192.48 1520.52 Z" fill="#000000" fill-rule="nonzero" fill-opacity="1" /><path clip-path="url(#clip690)" d="M1239.08 1562.7 L1239.08 1581.6 L1233.19 1581.6 L1233.19 1532.4 L1239.08 1532.4 L1239.08 1537.81 Q1240.92 1534.62 1243.72 1533.1 Q1246.56 1531.54 1250.47 1531.54 Q1256.97 1531.54 1261.01 1536.69 Q1265.08 1541.85 1265.08 1550.25 Q1265.08 1558.65 1261.01 1563.81 Q1256.97 1568.97 1250.47 1568.97 Q1246.56 1568.97 1243.72 1567.44 Q1240.92 1565.88 1239.08 1562.7 M1259 1550.25 Q1259 1543.79 1256.33 1540.13 Q1253.69 1536.44 1249.04 1536.44 Q1244.39 1536.44 1241.72 1540.13 Q1239.08 1543.79 1239.08 1550.25 Q1239.08 1556.71 1241.72 1560.4 Q1244.39 1564.07 1249.04 1564.07 Q1253.69 1564.07 1256.33 1560.4 Q1259 1556.71 1259 1550.25 Z" fill="#000000" fill-rule="nonzero" fill-opacity="1" /><path clip-path="url(#clip690)" d="M1288.6 1536.5 Q1283.89 1536.5 1281.15 1540.19 Q1278.42 1543.85 1278.42 1550.25 Q1278.42 1556.65 1281.12 1560.34 Q1283.86 1564 1288.6 1564 Q1293.28 1564 1296.02 1560.31 Q1298.76 1556.62 1298.76 1550.25 Q1298.76 1543.92 1296.02 1540.23 Q1293.28 1536.5 1288.6 1536.5 M1288.6 1531.54 Q1296.24 1531.54 1300.6 1536.5 Q1304.96 1541.47 1304.96 1550.25 Q1304.96 1559 1300.6 1564 Q1296.24 1568.97 1288.6 1568.97 Q1280.93 1568.97 1276.57 1564 Q1272.24 1559 1272.24 1550.25 Q1272.24 1541.47 1276.57 1536.5 Q1280.93 1531.54 1288.6 1531.54 Z" fill="#000000" fill-rule="nonzero" fill-opacity="1" /><path clip-path="url(#clip690)" d="M1340.32 1533.76 L1340.32 1539.24 Q1337.84 1537.87 1335.33 1537.2 Q1332.84 1536.5 1330.3 1536.5 Q1324.6 1536.5 1321.45 1540.13 Q1318.3 1543.73 1318.3 1550.25 Q1318.3 1556.78 1321.45 1560.4 Q1324.6 1564 1330.3 1564 Q1332.84 1564 1335.33 1563.33 Q1337.84 1562.63 1340.32 1561.26 L1340.32 1566.68 Q1337.87 1567.82 1335.23 1568.39 Q1332.62 1568.97 1329.66 1568.97 Q1321.61 1568.97 1316.87 1563.91 Q1312.12 1558.85 1312.12 1550.25 Q1312.12 1541.53 1316.9 1536.53 Q1321.7 1531.54 1330.04 1531.54 Q1332.75 1531.54 1335.33 1532.11 Q1337.91 1532.65 1340.32 1533.76 Z" fill="#000000" fill-rule="nonzero" fill-opacity="1" /><path clip-path="url(#clip690)" d="M1380.14 1546.53 L1380.14 1568.04 L1374.29 1568.04 L1374.29 1546.72 Q1374.29 1541.66 1372.31 1539.14 Q1370.34 1536.63 1366.39 1536.63 Q1361.65 1536.63 1358.91 1539.65 Q1356.17 1542.68 1356.17 1547.9 L1356.17 1568.04 L1350.29 1568.04 L1350.29 1518.52 L1356.17 1518.52 L1356.17 1537.93 Q1358.28 1534.72 1361.11 1533.13 Q1363.97 1531.54 1367.7 1531.54 Q1373.84 1531.54 1376.99 1535.36 Q1380.14 1539.14 1380.14 1546.53 Z" fill="#000000" fill-rule="nonzero" fill-opacity="1" /><polyline clip-path="url(#clip690)" style="stroke:#000000; stroke-linecap:round; stroke-linejoin:round; stroke-width:4; stroke-opacity:1; fill:none" points="219.866,1423.18 219.866,123.472 "/>
<polyline clip-path="url(#clip690)" style="stroke:#000000; stroke-linecap:round; stroke-linejoin:round; stroke-width:4; stroke-opacity:1; fill:none" points="219.866,1400.95 238.764,1400.95 "/>
<polyline clip-path="url(#clip690)" style="stroke:#000000; stroke-linecap:round; stroke-linejoin:round; stroke-width:4; stroke-opacity:1; fill:none" points="219.866,1203.38 238.764,1203.38 "/>
<polyline clip-path="url(#clip690)" style="stroke:#000000; stroke-linecap:round; stroke-linejoin:round; stroke-width:4; stroke-opacity:1; fill:none" points="219.866,1005.82 238.764,1005.82 "/>
<polyline clip-path="url(#clip690)" style="stroke:#000000; stroke-linecap:round; stroke-linejoin:round; stroke-width:4; stroke-opacity:1; fill:none" points="219.866,808.25 238.764,808.25 "/>
<polyline clip-path="url(#clip690)" style="stroke:#000000; stroke-linecap:round; stroke-linejoin:round; stroke-width:4; stroke-opacity:1; fill:none" points="219.866,610.684 238.764,610.684 "/>
<polyline clip-path="url(#clip690)" style="stroke:#000000; stroke-linecap:round; stroke-linejoin:round; stroke-width:4; stroke-opacity:1; fill:none" points="219.866,413.118 238.764,413.118 "/>
<polyline clip-path="url(#clip690)" style="stroke:#000000; stroke-linecap:round; stroke-linejoin:round; stroke-width:4; stroke-opacity:1; fill:none" points="219.866,215.552 238.764,215.552 "/>
<path clip-path="url(#clip690)" d="M126.691 1386.75 Q123.08 1386.75 121.251 1390.31 Q119.445 1393.85 119.445 1400.98 Q119.445 1408.09 121.251 1411.65 Q123.08 1415.2 126.691 1415.2 Q130.325 1415.2 132.13 1411.65 Q133.959 1408.09 133.959 1400.98 Q133.959 1393.85 132.13 1390.31 Q130.325 1386.75 126.691 1386.75 M126.691 1383.04 Q132.501 1383.04 135.556 1387.65 Q138.635 1392.23 138.635 1400.98 Q138.635 1409.71 135.556 1414.32 Q132.501 1418.9 126.691 1418.9 Q120.88 1418.9 117.802 1414.32 Q114.746 1409.71 114.746 1400.98 Q114.746 1392.23 117.802 1387.65 Q120.88 1383.04 126.691 1383.04 Z" fill="#000000" fill-rule="nonzero" fill-opacity="1" /><path clip-path="url(#clip690)" d="M146.853 1412.35 L151.737 1412.35 L151.737 1418.23 L146.853 1418.23 L146.853 1412.35 Z" fill="#000000" fill-rule="nonzero" fill-opacity="1" /><path clip-path="url(#clip690)" d="M171.922 1386.75 Q168.311 1386.75 166.482 1390.31 Q164.677 1393.85 164.677 1400.98 Q164.677 1408.09 166.482 1411.65 Q168.311 1415.2 171.922 1415.2 Q175.556 1415.2 177.362 1411.65 Q179.19 1408.09 179.19 1400.98 Q179.19 1393.85 177.362 1390.31 Q175.556 1386.75 171.922 1386.75 M171.922 1383.04 Q177.732 1383.04 180.788 1387.65 Q183.866 1392.23 183.866 1400.98 Q183.866 1409.71 180.788 1414.32 Q177.732 1418.9 171.922 1418.9 Q166.112 1418.9 163.033 1414.32 Q159.978 1409.71 159.978 1400.98 Q159.978 1392.23 163.033 1387.65 Q166.112 1383.04 171.922 1383.04 Z" fill="#000000" fill-rule="nonzero" fill-opacity="1" /><path clip-path="url(#clip690)" d="M127.917 1189.18 Q124.306 1189.18 122.478 1192.75 Q120.672 1196.29 120.672 1203.42 Q120.672 1210.52 122.478 1214.09 Q124.306 1217.63 127.917 1217.63 Q131.552 1217.63 133.357 1214.09 Q135.186 1210.52 135.186 1203.42 Q135.186 1196.29 133.357 1192.75 Q131.552 1189.18 127.917 1189.18 M127.917 1185.48 Q133.728 1185.48 136.783 1190.08 Q139.862 1194.67 139.862 1203.42 Q139.862 1212.14 136.783 1216.75 Q133.728 1221.33 127.917 1221.33 Q122.107 1221.33 119.029 1216.75 Q115.973 1212.14 115.973 1203.42 Q115.973 1194.67 119.029 1190.08 Q122.107 1185.48 127.917 1185.48 Z" fill="#000000" fill-rule="nonzero" fill-opacity="1" /><path clip-path="url(#clip690)" d="M148.079 1214.78 L152.964 1214.78 L152.964 1220.66 L148.079 1220.66 L148.079 1214.78 Z" fill="#000000" fill-rule="nonzero" fill-opacity="1" /><path clip-path="url(#clip690)" d="M163.959 1216.73 L171.598 1216.73 L171.598 1190.36 L163.288 1192.03 L163.288 1187.77 L171.552 1186.1 L176.227 1186.1 L176.227 1216.73 L183.866 1216.73 L183.866 1220.66 L163.959 1220.66 L163.959 1216.73 Z" fill="#000000" fill-rule="nonzero" fill-opacity="1" /><path clip-path="url(#clip690)" d="M128.288 991.614 Q124.677 991.614 122.848 995.179 Q121.043 998.721 121.043 1005.85 Q121.043 1012.96 122.848 1016.52 Q124.677 1020.06 128.288 1020.06 Q131.922 1020.06 133.728 1016.52 Q135.556 1012.96 135.556 1005.85 Q135.556 998.721 133.728 995.179 Q131.922 991.614 128.288 991.614 M128.288 987.911 Q134.098 987.911 137.154 992.517 Q140.232 997.101 140.232 1005.85 Q140.232 1014.58 137.154 1019.18 Q134.098 1023.77 128.288 1023.77 Q122.478 1023.77 119.399 1019.18 Q116.343 1014.58 116.343 1005.85 Q116.343 997.101 119.399 992.517 Q122.478 987.911 128.288 987.911 Z" fill="#000000" fill-rule="nonzero" fill-opacity="1" /><path clip-path="url(#clip690)" d="M148.45 1017.22 L153.334 1017.22 L153.334 1023.1 L148.45 1023.1 L148.45 1017.22 Z" fill="#000000" fill-rule="nonzero" fill-opacity="1" /><path clip-path="url(#clip690)" d="M167.547 1019.16 L183.866 1019.16 L183.866 1023.1 L161.922 1023.1 L161.922 1019.16 Q164.584 1016.41 169.167 1011.78 Q173.774 1007.12 174.954 1005.78 Q177.2 1003.26 178.079 1001.52 Q178.982 999.763 178.982 998.073 Q178.982 995.318 177.038 993.582 Q175.116 991.846 172.014 991.846 Q169.815 991.846 167.362 992.61 Q164.931 993.374 162.153 994.925 L162.153 990.202 Q164.977 989.068 167.431 988.489 Q169.885 987.911 171.922 987.911 Q177.292 987.911 180.487 990.596 Q183.681 993.281 183.681 997.772 Q183.681 999.901 182.871 1001.82 Q182.084 1003.72 179.977 1006.31 Q179.399 1006.98 176.297 1010.2 Q173.195 1013.4 167.547 1019.16 Z" fill="#000000" fill-rule="nonzero" fill-opacity="1" /><path clip-path="url(#clip690)" d="M127.339 794.048 Q123.728 794.048 121.899 797.613 Q120.093 801.155 120.093 808.285 Q120.093 815.391 121.899 818.956 Q123.728 822.497 127.339 822.497 Q130.973 822.497 132.779 818.956 Q134.607 815.391 134.607 808.285 Q134.607 801.155 132.779 797.613 Q130.973 794.048 127.339 794.048 M127.339 790.345 Q133.149 790.345 136.204 794.951 Q139.283 799.535 139.283 808.285 Q139.283 817.011 136.204 821.618 Q133.149 826.201 127.339 826.201 Q121.529 826.201 118.45 821.618 Q115.394 817.011 115.394 808.285 Q115.394 799.535 118.45 794.951 Q121.529 790.345 127.339 790.345 Z" fill="#000000" fill-rule="nonzero" fill-opacity="1" /><path clip-path="url(#clip690)" d="M147.501 819.65 L152.385 819.65 L152.385 825.53 L147.501 825.53 L147.501 819.65 Z" fill="#000000" fill-rule="nonzero" fill-opacity="1" /><path clip-path="url(#clip690)" d="M176.737 806.896 Q180.093 807.613 181.968 809.882 Q183.866 812.15 183.866 815.484 Q183.866 820.599 180.348 823.4 Q176.829 826.201 170.348 826.201 Q168.172 826.201 165.857 825.761 Q163.565 825.345 161.112 824.488 L161.112 819.974 Q163.056 821.109 165.371 821.687 Q167.686 822.266 170.209 822.266 Q174.607 822.266 176.899 820.53 Q179.214 818.794 179.214 815.484 Q179.214 812.428 177.061 810.715 Q174.931 808.979 171.112 808.979 L167.084 808.979 L167.084 805.136 L171.297 805.136 Q174.746 805.136 176.575 803.771 Q178.403 802.382 178.403 799.789 Q178.403 797.127 176.505 795.715 Q174.63 794.28 171.112 794.28 Q169.19 794.28 166.991 794.697 Q164.792 795.113 162.153 795.993 L162.153 791.826 Q164.815 791.086 167.13 790.715 Q169.468 790.345 171.528 790.345 Q176.852 790.345 179.954 792.775 Q183.056 795.183 183.056 799.303 Q183.056 802.173 181.413 804.164 Q179.769 806.132 176.737 806.896 Z" fill="#000000" fill-rule="nonzero" fill-opacity="1" /><path clip-path="url(#clip690)" d="M126.205 596.483 Q122.593 596.483 120.765 600.047 Q118.959 603.589 118.959 610.719 Q118.959 617.825 120.765 621.39 Q122.593 624.931 126.205 624.931 Q129.839 624.931 131.644 621.39 Q133.473 617.825 133.473 610.719 Q133.473 603.589 131.644 600.047 Q129.839 596.483 126.205 596.483 M126.205 592.779 Q132.015 592.779 135.07 597.385 Q138.149 601.969 138.149 610.719 Q138.149 619.445 135.07 624.052 Q132.015 628.635 126.205 628.635 Q120.394 628.635 117.316 624.052 Q114.26 619.445 114.26 610.719 Q114.26 601.969 117.316 597.385 Q120.394 592.779 126.205 592.779 Z" fill="#000000" fill-rule="nonzero" fill-opacity="1" /><path clip-path="url(#clip690)" d="M146.366 622.084 L151.251 622.084 L151.251 627.964 L146.366 627.964 L146.366 622.084 Z" fill="#000000" fill-rule="nonzero" fill-opacity="1" /><path clip-path="url(#clip690)" d="M174.283 597.478 L162.477 615.927 L174.283 615.927 L174.283 597.478 M173.056 593.404 L178.936 593.404 L178.936 615.927 L183.866 615.927 L183.866 619.816 L178.936 619.816 L178.936 627.964 L174.283 627.964 L174.283 619.816 L158.681 619.816 L158.681 615.302 L173.056 593.404 Z" fill="#000000" fill-rule="nonzero" fill-opacity="1" /><path clip-path="url(#clip690)" d="M127.686 398.917 Q124.075 398.917 122.246 402.481 Q120.441 406.023 120.441 413.153 Q120.441 420.259 122.246 423.824 Q124.075 427.366 127.686 427.366 Q131.32 427.366 133.126 423.824 Q134.954 420.259 134.954 413.153 Q134.954 406.023 133.126 402.481 Q131.32 398.917 127.686 398.917 M127.686 395.213 Q133.496 395.213 136.552 399.819 Q139.63 404.403 139.63 413.153 Q139.63 421.879 136.552 426.486 Q133.496 431.069 127.686 431.069 Q121.876 431.069 118.797 426.486 Q115.742 421.879 115.742 413.153 Q115.742 404.403 118.797 399.819 Q121.876 395.213 127.686 395.213 Z" fill="#000000" fill-rule="nonzero" fill-opacity="1" /><path clip-path="url(#clip690)" d="M147.848 424.518 L152.732 424.518 L152.732 430.398 L147.848 430.398 L147.848 424.518 Z" fill="#000000" fill-rule="nonzero" fill-opacity="1" /><path clip-path="url(#clip690)" d="M162.964 395.838 L181.32 395.838 L181.32 399.773 L167.246 399.773 L167.246 408.245 Q168.264 407.898 169.283 407.736 Q170.302 407.551 171.32 407.551 Q177.107 407.551 180.487 410.722 Q183.866 413.893 183.866 419.31 Q183.866 424.889 180.394 427.991 Q176.922 431.069 170.602 431.069 Q168.427 431.069 166.158 430.699 Q163.913 430.328 161.505 429.588 L161.505 424.889 Q163.589 426.023 165.811 426.578 Q168.033 427.134 170.51 427.134 Q174.514 427.134 176.852 425.028 Q179.19 422.921 179.19 419.31 Q179.19 415.699 176.852 413.592 Q174.514 411.486 170.51 411.486 Q168.635 411.486 166.76 411.903 Q164.908 412.319 162.964 413.199 L162.964 395.838 Z" fill="#000000" fill-rule="nonzero" fill-opacity="1" /><path clip-path="url(#clip690)" d="M126.529 201.351 Q122.918 201.351 121.089 204.915 Q119.283 208.457 119.283 215.587 Q119.283 222.693 121.089 226.258 Q122.918 229.8 126.529 229.8 Q130.163 229.8 131.968 226.258 Q133.797 222.693 133.797 215.587 Q133.797 208.457 131.968 204.915 Q130.163 201.351 126.529 201.351 M126.529 197.647 Q132.339 197.647 135.394 202.253 Q138.473 206.837 138.473 215.587 Q138.473 224.313 135.394 228.92 Q132.339 233.503 126.529 233.503 Q120.718 233.503 117.64 228.92 Q114.584 224.313 114.584 215.587 Q114.584 206.837 117.64 202.253 Q120.718 197.647 126.529 197.647 Z" fill="#000000" fill-rule="nonzero" fill-opacity="1" /><path clip-path="url(#clip690)" d="M146.691 226.952 L151.575 226.952 L151.575 232.832 L146.691 232.832 L146.691 226.952 Z" fill="#000000" fill-rule="nonzero" fill-opacity="1" /><path clip-path="url(#clip690)" d="M172.339 213.689 Q169.19 213.689 167.339 215.841 Q165.51 217.994 165.51 221.744 Q165.51 225.471 167.339 227.647 Q169.19 229.8 172.339 229.8 Q175.487 229.8 177.315 227.647 Q179.167 225.471 179.167 221.744 Q179.167 217.994 177.315 215.841 Q175.487 213.689 172.339 213.689 M181.621 199.036 L181.621 203.295 Q179.862 202.462 178.056 202.022 Q176.274 201.582 174.514 201.582 Q169.885 201.582 167.431 204.707 Q165.001 207.832 164.653 214.152 Q166.019 212.138 168.079 211.073 Q170.139 209.985 172.616 209.985 Q177.825 209.985 180.834 213.156 Q183.866 216.304 183.866 221.744 Q183.866 227.068 180.718 230.286 Q177.57 233.503 172.339 233.503 Q166.343 233.503 163.172 228.92 Q160.001 224.313 160.001 215.587 Q160.001 207.392 163.89 202.531 Q167.778 197.647 174.329 197.647 Q176.089 197.647 177.871 197.994 Q179.676 198.341 181.621 199.036 Z" fill="#000000" fill-rule="nonzero" fill-opacity="1" /><path clip-path="url(#clip690)" d="M57.2247 800.492 L44.4614 800.492 L44.4614 810.995 L39.1779 810.995 L39.1779 794.126 L59.58 794.126 Q62.2218 797.85 63.5904 802.338 Q64.9272 806.826 64.9272 811.918 Q64.9272 823.058 58.4342 829.36 Q51.9093 835.63 40.2919 835.63 Q28.6427 835.63 22.1496 829.36 Q15.6248 823.058 15.6248 811.918 Q15.6248 807.271 16.7706 803.102 Q17.9164 798.9 20.1444 795.367 L26.9876 795.367 Q23.9639 798.932 22.4361 802.942 Q20.9083 806.953 20.9083 811.377 Q20.9083 820.098 25.7781 824.49 Q30.6479 828.851 40.2919 828.851 Q49.9041 828.851 54.7739 824.49 Q59.6436 820.098 59.6436 811.377 Q59.6436 807.971 59.0707 805.298 Q58.466 802.624 57.2247 800.492 Z" fill="#000000" fill-rule="nonzero" fill-opacity="1" /><path clip-path="url(#clip690)" d="M46.0847 766.435 Q46.0847 773.533 47.7079 776.27 Q49.3312 779.007 53.2461 779.007 Q56.3653 779.007 58.2114 776.97 Q60.0256 774.901 60.0256 771.369 Q60.0256 766.499 56.5881 763.571 Q53.1188 760.61 47.3897 760.61 L46.0847 760.61 L46.0847 766.435 M43.6657 754.754 L64.0042 754.754 L64.0042 760.61 L58.5933 760.61 Q61.8398 762.616 63.3994 765.608 Q64.9272 768.599 64.9272 772.928 Q64.9272 778.403 61.8716 781.649 Q58.7843 784.864 53.6281 784.864 Q47.6125 784.864 44.5569 780.853 Q41.5014 776.811 41.5014 768.822 L41.5014 760.61 L40.9285 760.61 Q36.8862 760.61 34.6901 763.284 Q32.4621 765.926 32.4621 770.732 Q32.4621 773.787 33.1941 776.684 Q33.9262 779.58 35.3903 782.254 L29.9795 782.254 Q28.7381 779.039 28.1334 776.015 Q27.4968 772.992 27.4968 770.127 Q27.4968 762.393 31.5072 758.573 Q35.5176 754.754 43.6657 754.754 Z" fill="#000000" fill-rule="nonzero" fill-opacity="1" /><path clip-path="url(#clip690)" d="M58.657 737.026 L77.5631 737.026 L77.5631 742.914 L28.3562 742.914 L28.3562 737.026 L33.7671 737.026 Q30.5842 735.179 29.0564 732.379 Q27.4968 729.546 27.4968 725.631 Q27.4968 719.138 32.6531 715.096 Q37.8093 711.022 46.212 711.022 Q54.6147 711.022 59.771 715.096 Q64.9272 719.138 64.9272 725.631 Q64.9272 729.546 63.3994 732.379 Q61.8398 735.179 58.657 737.026 M46.212 717.101 Q39.7508 717.101 36.0905 719.774 Q32.3984 722.416 32.3984 727.063 Q32.3984 731.71 36.0905 734.384 Q39.7508 737.026 46.212 737.026 Q52.6732 737.026 56.3653 734.384 Q60.0256 731.71 60.0256 727.063 Q60.0256 722.416 56.3653 719.774 Q52.6732 717.101 46.212 717.101 Z" fill="#000000" fill-rule="nonzero" fill-opacity="1" /><path clip-path="url(#clip690)" d="M717.159 63.9476 L717.159 47.7034 L703.791 47.7034 L703.791 40.9789 L725.261 40.9789 L725.261 66.9452 Q720.521 70.3075 714.81 72.0494 Q709.098 73.7508 702.616 73.7508 Q688.438 73.7508 680.417 65.4869 Q672.437 57.1826 672.437 42.3968 Q672.437 27.5705 680.417 19.3066 Q688.438 11.0023 702.616 11.0023 Q708.531 11.0023 713.837 12.4606 Q719.184 13.9189 723.681 16.7545 L723.681 25.464 Q719.144 21.6156 714.04 19.6712 Q708.936 17.7268 703.305 17.7268 Q692.205 17.7268 686.615 23.9246 Q681.065 30.1225 681.065 42.3968 Q681.065 54.6305 686.615 60.8284 Q692.205 67.0263 703.305 67.0263 Q707.639 67.0263 711.042 66.2971 Q714.445 65.5274 717.159 63.9476 Z" fill="#000000" fill-rule="nonzero" fill-opacity="1" /><path clip-path="url(#clip690)" d="M760.504 49.7694 Q751.47 49.7694 747.986 51.8354 Q744.503 53.9013 744.503 58.8839 Q744.503 62.8538 747.095 65.2034 Q749.728 67.5124 754.225 67.5124 Q760.423 67.5124 764.15 63.1374 Q767.917 58.7219 767.917 51.4303 L767.917 49.7694 L760.504 49.7694 M775.371 46.6907 L775.371 72.576 L767.917 72.576 L767.917 65.6895 Q765.365 69.8214 761.557 71.8063 Q757.749 73.7508 752.24 73.7508 Q745.272 73.7508 741.14 69.8619 Q737.049 65.9325 737.049 59.3701 Q737.049 51.7138 742.153 47.825 Q747.298 43.9361 757.466 43.9361 L767.917 43.9361 L767.917 43.2069 Q767.917 38.0623 764.514 35.2672 Q761.152 32.4315 755.035 32.4315 Q751.146 32.4315 747.46 33.3632 Q743.773 34.295 740.371 36.1584 L740.371 29.2718 Q744.462 27.692 748.31 26.9223 Q752.159 26.1121 755.805 26.1121 Q765.648 26.1121 770.509 31.2163 Q775.371 36.3204 775.371 46.6907 Z" fill="#000000" fill-rule="nonzero" fill-opacity="1" /><path clip-path="url(#clip690)" d="M797.934 65.7705 L797.934 89.8329 L790.44 89.8329 L790.44 27.2059 L797.934 27.2059 L797.934 34.0924 Q800.284 30.0415 803.848 28.0971 Q807.454 26.1121 812.436 26.1121 Q820.7 26.1121 825.845 32.6746 Q831.03 39.2371 831.03 49.9314 Q831.03 60.6258 825.845 67.1883 Q820.7 73.7508 812.436 73.7508 Q807.454 73.7508 803.848 71.8063 Q800.284 69.8214 797.934 65.7705 M823.293 49.9314 Q823.293 41.7081 819.89 37.0496 Q816.528 32.3505 810.613 32.3505 Q804.699 32.3505 801.296 37.0496 Q797.934 41.7081 797.934 49.9314 Q797.934 58.1548 801.296 62.8538 Q804.699 67.5124 810.613 67.5124 Q816.528 67.5124 819.89 62.8538 Q823.293 58.1548 823.293 49.9314 Z" fill="#000000" fill-rule="nonzero" fill-opacity="1" /><path clip-path="url(#clip690)" d="M870.081 12.096 L908.321 12.096 L908.321 18.9825 L878.264 18.9825 L878.264 36.8875 L907.065 36.8875 L907.065 43.7741 L878.264 43.7741 L878.264 65.6895 L909.05 65.6895 L909.05 72.576 L870.081 72.576 L870.081 12.096 Z" fill="#000000" fill-rule="nonzero" fill-opacity="1" /><path clip-path="url(#clip690)" d="M916.828 27.2059 L924.727 27.2059 L938.906 65.2844 L953.084 27.2059 L960.983 27.2059 L943.969 72.576 L933.842 72.576 L916.828 27.2059 Z" fill="#000000" fill-rule="nonzero" fill-opacity="1" /><path clip-path="url(#clip690)" d="M988.853 32.4315 Q982.858 32.4315 979.374 37.1306 Q975.89 41.7891 975.89 49.9314 Q975.89 58.0738 979.334 62.7728 Q982.817 67.4314 988.853 67.4314 Q994.808 67.4314 998.292 62.7323 Q1001.78 58.0333 1001.78 49.9314 Q1001.78 41.8701 998.292 37.1711 Q994.808 32.4315 988.853 32.4315 M988.853 26.1121 Q998.575 26.1121 1004.13 32.4315 Q1009.67 38.7509 1009.67 49.9314 Q1009.67 61.0714 1004.13 67.4314 Q998.575 73.7508 988.853 73.7508 Q979.091 73.7508 973.541 67.4314 Q968.032 61.0714 968.032 49.9314 Q968.032 38.7509 973.541 32.4315 Q979.091 26.1121 988.853 26.1121 Z" fill="#000000" fill-rule="nonzero" fill-opacity="1" /><path clip-path="url(#clip690)" d="M1022.03 9.54393 L1029.48 9.54393 L1029.48 72.576 L1022.03 72.576 L1022.03 9.54393 Z" fill="#000000" fill-rule="nonzero" fill-opacity="1" /><path clip-path="url(#clip690)" d="M1044.31 54.671 L1044.31 27.2059 L1051.76 27.2059 L1051.76 54.3874 Q1051.76 60.8284 1054.28 64.0691 Q1056.79 67.2693 1061.81 67.2693 Q1067.85 67.2693 1071.33 63.421 Q1074.85 59.5726 1074.85 52.9291 L1074.85 27.2059 L1082.31 27.2059 L1082.31 72.576 L1074.85 72.576 L1074.85 65.6084 Q1072.14 69.7404 1068.53 71.7658 Q1064.97 73.7508 1060.23 73.7508 Q1052.41 73.7508 1048.36 68.8897 Q1044.31 64.0286 1044.31 54.671 M1063.07 26.1121 L1063.07 26.1121 Z" fill="#000000" fill-rule="nonzero" fill-opacity="1" /><path clip-path="url(#clip690)" d="M1105.03 14.324 L1105.03 27.2059 L1120.39 27.2059 L1120.39 32.9987 L1105.03 32.9987 L1105.03 57.6282 Q1105.03 63.1779 1106.53 64.7578 Q1108.07 66.3376 1112.73 66.3376 L1120.39 66.3376 L1120.39 72.576 L1112.73 72.576 Q1104.1 72.576 1100.82 69.3758 Q1097.54 66.1351 1097.54 57.6282 L1097.54 32.9987 L1092.07 32.9987 L1092.07 27.2059 L1097.54 27.2059 L1097.54 14.324 L1105.03 14.324 Z" fill="#000000" fill-rule="nonzero" fill-opacity="1" /><path clip-path="url(#clip690)" d="M1130.19 27.2059 L1137.64 27.2059 L1137.64 72.576 L1130.19 72.576 L1130.19 27.2059 M1130.19 9.54393 L1137.64 9.54393 L1137.64 18.9825 L1130.19 18.9825 L1130.19 9.54393 Z" fill="#000000" fill-rule="nonzero" fill-opacity="1" /><path clip-path="url(#clip690)" d="M1170.82 32.4315 Q1164.82 32.4315 1161.34 37.1306 Q1157.86 41.7891 1157.86 49.9314 Q1157.86 58.0738 1161.3 62.7728 Q1164.78 67.4314 1170.82 67.4314 Q1176.77 67.4314 1180.26 62.7323 Q1183.74 58.0333 1183.74 49.9314 Q1183.74 41.8701 1180.26 37.1711 Q1176.77 32.4315 1170.82 32.4315 M1170.82 26.1121 Q1180.54 26.1121 1186.09 32.4315 Q1191.64 38.7509 1191.64 49.9314 Q1191.64 61.0714 1186.09 67.4314 Q1180.54 73.7508 1170.82 73.7508 Q1161.06 73.7508 1155.51 67.4314 Q1150 61.0714 1150 49.9314 Q1150 38.7509 1155.51 32.4315 Q1161.06 26.1121 1170.82 26.1121 Z" fill="#000000" fill-rule="nonzero" fill-opacity="1" /><path clip-path="url(#clip690)" d="M1241.71 45.1919 L1241.71 72.576 L1234.26 72.576 L1234.26 45.4349 Q1234.26 38.994 1231.75 35.7938 Q1229.23 32.5936 1224.21 32.5936 Q1218.17 32.5936 1214.69 36.4419 Q1211.21 40.2903 1211.21 46.9338 L1211.21 72.576 L1203.71 72.576 L1203.71 27.2059 L1211.21 27.2059 L1211.21 34.2544 Q1213.88 30.163 1217.49 28.1376 Q1221.13 26.1121 1225.87 26.1121 Q1233.69 26.1121 1237.7 30.9732 Q1241.71 35.7938 1241.71 45.1919 Z" fill="#000000" fill-rule="nonzero" fill-opacity="1" /><path clip-path="url(#clip690)" d="M1291.46 18.8205 L1291.46 65.8515 L1301.34 65.8515 Q1313.86 65.8515 1319.65 60.1802 Q1325.48 54.509 1325.48 42.2752 Q1325.48 30.1225 1319.65 24.4918 Q1313.86 18.8205 1301.34 18.8205 L1291.46 18.8205 M1283.27 12.096 L1300.08 12.096 Q1317.67 12.096 1325.89 19.4281 Q1334.11 26.7198 1334.11 42.2752 Q1334.11 57.9117 1325.85 65.2439 Q1317.58 72.576 1300.08 72.576 L1283.27 72.576 L1283.27 12.096 Z" fill="#000000" fill-rule="nonzero" fill-opacity="1" /><path clip-path="url(#clip690)" d="M1346.06 54.671 L1346.06 27.2059 L1353.52 27.2059 L1353.52 54.3874 Q1353.52 60.8284 1356.03 64.0691 Q1358.54 67.2693 1363.56 67.2693 Q1369.6 67.2693 1373.08 63.421 Q1376.61 59.5726 1376.61 52.9291 L1376.61 27.2059 L1384.06 27.2059 L1384.06 72.576 L1376.61 72.576 L1376.61 65.6084 Q1373.89 69.7404 1370.29 71.7658 Q1366.72 73.7508 1361.98 73.7508 Q1354.16 73.7508 1350.11 68.8897 Q1346.06 64.0286 1346.06 54.671 M1364.82 26.1121 L1364.82 26.1121 Z" fill="#000000" fill-rule="nonzero" fill-opacity="1" /><path clip-path="url(#clip690)" d="M1425.7 34.1734 Q1424.45 33.4443 1422.95 33.1202 Q1421.49 32.7556 1419.71 32.7556 Q1413.39 32.7556 1409.99 36.8875 Q1406.62 40.9789 1406.62 48.6757 L1406.62 72.576 L1399.13 72.576 L1399.13 27.2059 L1406.62 27.2059 L1406.62 34.2544 Q1408.97 30.1225 1412.74 28.1376 Q1416.51 26.1121 1421.89 26.1121 Q1422.66 26.1121 1423.6 26.2337 Q1424.53 26.3147 1425.66 26.5172 L1425.7 34.1734 Z" fill="#000000" fill-rule="nonzero" fill-opacity="1" /><path clip-path="url(#clip690)" d="M1433.52 27.2059 L1440.97 27.2059 L1440.97 72.576 L1433.52 72.576 L1433.52 27.2059 M1433.52 9.54393 L1440.97 9.54393 L1440.97 18.9825 L1433.52 18.9825 L1433.52 9.54393 Z" fill="#000000" fill-rule="nonzero" fill-opacity="1" /><path clip-path="url(#clip690)" d="M1494.28 45.1919 L1494.28 72.576 L1486.83 72.576 L1486.83 45.4349 Q1486.83 38.994 1484.32 35.7938 Q1481.81 32.5936 1476.78 32.5936 Q1470.75 32.5936 1467.26 36.4419 Q1463.78 40.2903 1463.78 46.9338 L1463.78 72.576 L1456.29 72.576 L1456.29 27.2059 L1463.78 27.2059 L1463.78 34.2544 Q1466.45 30.163 1470.06 28.1376 Q1473.71 26.1121 1478.45 26.1121 Q1486.26 26.1121 1490.27 30.9732 Q1494.28 35.7938 1494.28 45.1919 Z" fill="#000000" fill-rule="nonzero" fill-opacity="1" /><path clip-path="url(#clip690)" d="M1539.01 49.3643 Q1539.01 41.2625 1535.64 36.8065 Q1532.32 32.3505 1526.29 32.3505 Q1520.29 32.3505 1516.93 36.8065 Q1513.61 41.2625 1513.61 49.3643 Q1513.61 57.4256 1516.93 61.8816 Q1520.29 66.3376 1526.29 66.3376 Q1532.32 66.3376 1535.64 61.8816 Q1539.01 57.4256 1539.01 49.3643 M1546.46 66.9452 Q1546.46 78.5308 1541.32 84.1616 Q1536.17 89.8329 1525.56 89.8329 Q1521.63 89.8329 1518.14 89.2252 Q1514.66 88.6581 1511.38 87.4428 L1511.38 80.1917 Q1514.66 81.9741 1517.86 82.8248 Q1521.06 83.6755 1524.38 83.6755 Q1531.71 83.6755 1535.36 79.8271 Q1539.01 76.0193 1539.01 68.282 L1539.01 64.5957 Q1536.7 68.6061 1533.09 70.5911 Q1529.49 72.576 1524.46 72.576 Q1516.12 72.576 1511.01 66.2161 Q1505.91 59.8562 1505.91 49.3643 Q1505.91 38.832 1511.01 32.472 Q1516.12 26.1121 1524.46 26.1121 Q1529.49 26.1121 1533.09 28.0971 Q1536.7 30.082 1539.01 34.0924 L1539.01 27.2059 L1546.46 27.2059 L1546.46 66.9452 Z" fill="#000000" fill-rule="nonzero" fill-opacity="1" /><path clip-path="url(#clip690)" d="M1580.12 12.096 L1631.29 12.096 L1631.29 18.9825 L1609.82 18.9825 L1609.82 72.576 L1601.59 72.576 L1601.59 18.9825 L1580.12 18.9825 L1580.12 12.096 Z" fill="#000000" fill-rule="nonzero" fill-opacity="1" /><path clip-path="url(#clip690)" d="M1652.96 34.1734 Q1651.7 33.4443 1650.2 33.1202 Q1648.75 32.7556 1646.96 32.7556 Q1640.64 32.7556 1637.24 36.8875 Q1633.88 40.9789 1633.88 48.6757 L1633.88 72.576 L1626.38 72.576 L1626.38 27.2059 L1633.88 27.2059 L1633.88 34.2544 Q1636.23 30.1225 1640 28.1376 Q1643.76 26.1121 1649.15 26.1121 Q1649.92 26.1121 1650.85 26.2337 Q1651.78 26.3147 1652.92 26.5172 L1652.96 34.1734 Z" fill="#000000" fill-rule="nonzero" fill-opacity="1" /><path clip-path="url(#clip690)" d="M1681.4 49.7694 Q1672.36 49.7694 1668.88 51.8354 Q1665.39 53.9013 1665.39 58.8839 Q1665.39 62.8538 1667.99 65.2034 Q1670.62 67.5124 1675.12 67.5124 Q1681.31 67.5124 1685.04 63.1374 Q1688.81 58.7219 1688.81 51.4303 L1688.81 49.7694 L1681.4 49.7694 M1696.26 46.6907 L1696.26 72.576 L1688.81 72.576 L1688.81 65.6895 Q1686.26 69.8214 1682.45 71.8063 Q1678.64 73.7508 1673.13 73.7508 Q1666.16 73.7508 1662.03 69.8619 Q1657.94 65.9325 1657.94 59.3701 Q1657.94 51.7138 1663.05 47.825 Q1668.19 43.9361 1678.36 43.9361 L1688.81 43.9361 L1688.81 43.2069 Q1688.81 38.0623 1685.41 35.2672 Q1682.04 32.4315 1675.93 32.4315 Q1672.04 32.4315 1668.35 33.3632 Q1664.67 34.295 1661.26 36.1584 L1661.26 29.2718 Q1665.35 27.692 1669.2 26.9223 Q1673.05 26.1121 1676.7 26.1121 Q1686.54 26.1121 1691.4 31.2163 Q1696.26 36.3204 1696.26 46.6907 Z" fill="#000000" fill-rule="nonzero" fill-opacity="1" /><path clip-path="url(#clip690)" d="M1711.62 27.2059 L1719.07 27.2059 L1719.07 72.576 L1711.62 72.576 L1711.62 27.2059 M1711.62 9.54393 L1719.07 9.54393 L1719.07 18.9825 L1711.62 18.9825 L1711.62 9.54393 Z" fill="#000000" fill-rule="nonzero" fill-opacity="1" /><path clip-path="url(#clip690)" d="M1772.38 45.1919 L1772.38 72.576 L1764.93 72.576 L1764.93 45.4349 Q1764.93 38.994 1762.41 35.7938 Q1759.9 32.5936 1754.88 32.5936 Q1748.84 32.5936 1745.36 36.4419 Q1741.88 40.2903 1741.88 46.9338 L1741.88 72.576 L1734.38 72.576 L1734.38 27.2059 L1741.88 27.2059 L1741.88 34.2544 Q1744.55 30.163 1748.15 28.1376 Q1751.8 26.1121 1756.54 26.1121 Q1764.36 26.1121 1768.37 30.9732 Q1772.38 35.7938 1772.38 45.1919 Z" fill="#000000" fill-rule="nonzero" fill-opacity="1" /><path clip-path="url(#clip690)" d="M1787.25 27.2059 L1794.7 27.2059 L1794.7 72.576 L1787.25 72.576 L1787.25 27.2059 M1787.25 9.54393 L1794.7 9.54393 L1794.7 18.9825 L1787.25 18.9825 L1787.25 9.54393 Z" fill="#000000" fill-rule="nonzero" fill-opacity="1" /><path clip-path="url(#clip690)" d="M1848.01 45.1919 L1848.01 72.576 L1840.56 72.576 L1840.56 45.4349 Q1840.56 38.994 1838.04 35.7938 Q1835.53 32.5936 1830.51 32.5936 Q1824.47 32.5936 1820.99 36.4419 Q1817.51 40.2903 1817.51 46.9338 L1817.51 72.576 L1810.01 72.576 L1810.01 27.2059 L1817.51 27.2059 L1817.51 34.2544 Q1820.18 30.163 1823.79 28.1376 Q1827.43 26.1121 1832.17 26.1121 Q1839.99 26.1121 1844 30.9732 Q1848.01 35.7938 1848.01 45.1919 Z" fill="#000000" fill-rule="nonzero" fill-opacity="1" /><path clip-path="url(#clip690)" d="M1892.73 49.3643 Q1892.73 41.2625 1889.37 36.8065 Q1886.05 32.3505 1880.01 32.3505 Q1874.02 32.3505 1870.65 36.8065 Q1867.33 41.2625 1867.33 49.3643 Q1867.33 57.4256 1870.65 61.8816 Q1874.02 66.3376 1880.01 66.3376 Q1886.05 66.3376 1889.37 61.8816 Q1892.73 57.4256 1892.73 49.3643 M1900.19 66.9452 Q1900.19 78.5308 1895.04 84.1616 Q1889.9 89.8329 1879.28 89.8329 Q1875.35 89.8329 1871.87 89.2252 Q1868.39 88.6581 1865.1 87.4428 L1865.1 80.1917 Q1868.39 81.9741 1871.59 82.8248 Q1874.79 83.6755 1878.11 83.6755 Q1885.44 83.6755 1889.09 79.8271 Q1892.73 76.0193 1892.73 68.282 L1892.73 64.5957 Q1890.42 68.6061 1886.82 70.5911 Q1883.21 72.576 1878.19 72.576 Q1869.84 72.576 1864.74 66.2161 Q1859.64 59.8562 1859.64 49.3643 Q1859.64 38.832 1864.74 32.472 Q1869.84 26.1121 1878.19 26.1121 Q1883.21 26.1121 1886.82 28.0971 Q1890.42 30.082 1892.73 34.0924 L1892.73 27.2059 L1900.19 27.2059 L1900.19 66.9452 Z" fill="#000000" fill-rule="nonzero" fill-opacity="1" /><polyline clip-path="url(#clip691)" style="stroke:#009af9; stroke-linecap:round; stroke-linejoin:round; stroke-width:4; stroke-opacity:1; fill:none" points="280.231,160.256 300.353,160.256 320.474,160.256 340.596,343.387 360.717,343.387 380.839,343.387 400.961,512.328 421.082,512.328 441.204,590.594 461.325,590.594 481.447,590.594 501.569,664.67 521.69,664.67 541.812,761.551 561.933,817.782 582.055,817.782 602.177,864.272 622.298,944.509 642.42,1007.59 662.541,1072.89 682.663,1087.06 702.785,1136.78 722.906,1206.89 743.028,1206.89 763.149,1233.42 783.271,1252.03 803.393,1292.62 823.514,1292.62 843.636,1305.7 863.757,1326.27 883.879,1326.27 904.001,1326.27 924.122,1326.27 944.244,1326.27 964.365,1337.26 984.487,1337.26 1004.61,1337.26 1024.73,1337.26 1044.85,1337.26 1064.97,1337.26 1085.1,1337.26 1105.22,1337.26 1125.34,1337.26 1145.46,1337.26 1165.58,1337.26 1185.7,1362.42 1205.82,1348.63 1225.95,1348.63 1246.07,1348.63 1266.19,1346.4 1286.31,1346.4 1306.43,1346.4 1326.55,1346.4 1346.68,1346.4 1366.8,1346.4 1386.92,1346.4 1407.04,1346.4 1427.16,1346.4 1447.28,1346.4 1467.41,1346.4 1487.53,1346.4 1507.65,1346.4 1527.77,1346.4 1547.89,1359 1568.01,1359 1588.14,1355.77 1608.26,1355.77 1628.38,1355.77 1648.5,1376.52 1668.62,1376.52 1688.74,1376.52 1708.86,1376.52 1728.99,1376.52 1749.11,1376.52 1769.23,1376.52 1789.35,1376.52 1809.47,1376.52 1829.59,1376.52 1849.72,1379.69 1869.84,1379.69 1889.96,1379.69 1910.08,1379.69 1930.2,1379.69 1950.32,1379.69 1970.45,1379.69 1990.57,1379.69 2010.69,1379.69 2030.81,1379.69 2050.93,1379.69 2071.05,1379.69 2091.18,1379.69 2111.3,1379.69 2131.42,1379.69 2151.54,1379.69 2171.66,1379.69 2191.78,1379.69 2211.9,1379.69 2232.03,1379.69 2252.15,1379.69 2272.27,1379.69 2292.39,1379.69 "/>
<polyline clip-path="url(#clip691)" style="stroke:#e26f46; stroke-linecap:round; stroke-linejoin:round; stroke-width:4; stroke-opacity:1; fill:none" points="280.231,467.676 300.353,505.65 320.474,505.65 340.596,543.096 360.717,543.096 380.839,543.096 400.961,543.096 421.082,543.096 441.204,592.048 461.325,629.955 481.447,761.873 501.569,761.873 521.69,796.857 541.812,796.857 561.933,818.632 582.055,818.632 602.177,892.722 622.298,892.722 642.42,943.658 662.541,958.109 682.663,1096.44 702.785,1096.44 722.906,1112.76 743.028,1112.76 763.149,1112.76 783.271,1139.37 803.393,1139.37 823.514,1139.37 843.636,1139.37 863.757,1139.37 883.879,1139.37 904.001,1197.51 924.122,1245.59 944.244,1248.3 964.365,1269.45 984.487,1269.45 1004.61,1305.89 1024.73,1305.89 1044.85,1344.14 1064.97,1344.14 1085.1,1344.14 1105.22,1352.24 1125.34,1352.24 1145.46,1377.34 1165.58,1377.34 1185.7,1377.34 1205.82,1386.4 1225.95,1386.4 1246.07,1386.4 1266.19,1386.4 1286.31,1370.45 1306.43,1370.45 1326.55,1370.45 1346.68,1370.45 1366.8,1370.45 1386.92,1370.45 1407.04,1370.45 1427.16,1370.45 1447.28,1370.45 1467.41,1370.45 1487.53,1377.42 1507.65,1382.95 1527.77,1382.95 1547.89,1382.95 1568.01,1382.95 1588.14,1382.95 1608.26,1382.95 1628.38,1382.95 1648.5,1382.95 1668.62,1382.95 1688.74,1382.95 1708.86,1382.95 1728.99,1382.95 1749.11,1382.95 1769.23,1382.95 1789.35,1382.95 1809.47,1382.95 1829.59,1382.95 1849.72,1382.95 1869.84,1382.95 1889.96,1382.95 1910.08,1382.95 1930.2,1382.95 1950.32,1382.95 1970.45,1382.95 1990.57,1382.95 2010.69,1382.95 2030.81,1382.95 2050.93,1382.95 2071.05,1382.95 2091.18,1382.95 2111.3,1382.95 2131.42,1382.95 2151.54,1382.95 2171.66,1382.95 2191.78,1382.95 2211.9,1382.95 2232.03,1382.95 2252.15,1382.95 2272.27,1382.95 2292.39,1382.95 "/>
<path clip-path="url(#clip690)" d="M1866.52 322.316 L2281.66 322.316 L2281.66 166.796 L1866.52 166.796  Z" fill="#ffffff" fill-rule="evenodd" fill-opacity="1"/>
<polyline clip-path="url(#clip690)" style="stroke:#000000; stroke-linecap:round; stroke-linejoin:round; stroke-width:4; stroke-opacity:1; fill:none" points="1866.52,322.316 2281.66,322.316 2281.66,166.796 1866.52,166.796 1866.52,322.316 "/>
<polyline clip-path="url(#clip690)" style="stroke:#009af9; stroke-linecap:round; stroke-linejoin:round; stroke-width:4; stroke-opacity:1; fill:none" points="1890.22,218.636 2032.41,218.636 "/>
<path clip-path="url(#clip690)" d="M2069.3 235.916 L2056.11 201.356 L2060.99 201.356 L2071.94 230.453 L2082.92 201.356 L2087.78 201.356 L2074.61 235.916 L2069.3 235.916 Z" fill="#000000" fill-rule="nonzero" fill-opacity="1" /><path clip-path="url(#clip690)" d="M2100.74 222.883 Q2095.58 222.883 2093.59 224.064 Q2091.6 225.244 2091.6 228.092 Q2091.6 230.36 2093.08 231.703 Q2094.58 233.022 2097.15 233.022 Q2100.69 233.022 2102.82 230.522 Q2104.98 227.999 2104.98 223.832 L2104.98 222.883 L2100.74 222.883 M2109.23 221.124 L2109.23 235.916 L2104.98 235.916 L2104.98 231.981 Q2103.52 234.342 2101.34 235.476 Q2099.17 236.587 2096.02 236.587 Q2092.04 236.587 2089.67 234.365 Q2087.34 232.119 2087.34 228.369 Q2087.34 223.994 2090.25 221.772 Q2093.19 219.55 2099 219.55 L2104.98 219.55 L2104.98 219.133 Q2104.98 216.194 2103.03 214.596 Q2101.11 212.976 2097.61 212.976 Q2095.39 212.976 2093.29 213.508 Q2091.18 214.041 2089.23 215.106 L2089.23 211.17 Q2091.57 210.268 2093.77 209.828 Q2095.97 209.365 2098.05 209.365 Q2103.68 209.365 2106.46 212.282 Q2109.23 215.198 2109.23 221.124 Z" fill="#000000" fill-rule="nonzero" fill-opacity="1" /><path clip-path="url(#clip690)" d="M2118.01 199.897 L2122.27 199.897 L2122.27 235.916 L2118.01 235.916 L2118.01 199.897 Z" fill="#000000" fill-rule="nonzero" fill-opacity="1" /><path clip-path="url(#clip690)" d="M2170 230.985 L2170 221.703 L2162.36 221.703 L2162.36 217.86 L2174.63 217.86 L2174.63 232.698 Q2171.92 234.619 2168.66 235.615 Q2165.39 236.587 2161.69 236.587 Q2153.59 236.587 2149 231.865 Q2144.44 227.119 2144.44 218.67 Q2144.44 210.198 2149 205.476 Q2153.59 200.731 2161.69 200.731 Q2165.07 200.731 2168.1 201.564 Q2171.16 202.397 2173.73 204.018 L2173.73 208.995 Q2171.13 206.796 2168.22 205.684 Q2165.3 204.573 2162.08 204.573 Q2155.74 204.573 2152.54 208.115 Q2149.37 211.657 2149.37 218.67 Q2149.37 225.661 2152.54 229.203 Q2155.74 232.744 2162.08 232.744 Q2164.56 232.744 2166.5 232.328 Q2168.45 231.888 2170 230.985 Z" fill="#000000" fill-rule="nonzero" fill-opacity="1" /><path clip-path="url(#clip690)" d="M2194.77 222.883 Q2189.6 222.883 2187.61 224.064 Q2185.62 225.244 2185.62 228.092 Q2185.62 230.36 2187.1 231.703 Q2188.61 233.022 2191.18 233.022 Q2194.72 233.022 2196.85 230.522 Q2199 227.999 2199 223.832 L2199 222.883 L2194.77 222.883 M2203.26 221.124 L2203.26 235.916 L2199 235.916 L2199 231.981 Q2197.54 234.342 2195.37 235.476 Q2193.19 236.587 2190.04 236.587 Q2186.06 236.587 2183.7 234.365 Q2181.36 232.119 2181.36 228.369 Q2181.36 223.994 2184.28 221.772 Q2187.22 219.55 2193.03 219.55 L2199 219.55 L2199 219.133 Q2199 216.194 2197.06 214.596 Q2195.14 212.976 2191.64 212.976 Q2189.42 212.976 2187.31 213.508 Q2185.21 214.041 2183.26 215.106 L2183.26 211.17 Q2185.6 210.268 2187.8 209.828 Q2190 209.365 2192.08 209.365 Q2197.71 209.365 2200.48 212.282 Q2203.26 215.198 2203.26 221.124 Z" fill="#000000" fill-rule="nonzero" fill-opacity="1" /><path clip-path="url(#clip690)" d="M2216.16 232.027 L2216.16 245.777 L2211.87 245.777 L2211.87 209.99 L2216.16 209.99 L2216.16 213.925 Q2217.5 211.61 2219.54 210.499 Q2221.6 209.365 2224.44 209.365 Q2229.16 209.365 2232.1 213.115 Q2235.07 216.865 2235.07 222.976 Q2235.07 229.087 2232.1 232.837 Q2229.16 236.587 2224.44 236.587 Q2221.6 236.587 2219.54 235.476 Q2217.5 234.342 2216.16 232.027 M2230.65 222.976 Q2230.65 218.277 2228.7 215.615 Q2226.78 212.93 2223.4 212.93 Q2220.02 212.93 2218.08 215.615 Q2216.16 218.277 2216.16 222.976 Q2216.16 227.675 2218.08 230.36 Q2220.02 233.022 2223.4 233.022 Q2226.78 233.022 2228.7 230.36 Q2230.65 227.675 2230.65 222.976 Z" fill="#000000" fill-rule="nonzero" fill-opacity="1" /><polyline clip-path="url(#clip690)" style="stroke:#e26f46; stroke-linecap:round; stroke-linejoin:round; stroke-width:4; stroke-opacity:1; fill:none" points="1890.22,270.476 2032.41,270.476 "/>
<path clip-path="url(#clip690)" d="M2056.11 253.196 L2085.35 253.196 L2085.35 257.131 L2073.08 257.131 L2073.08 287.756 L2068.38 287.756 L2068.38 257.131 L2056.11 257.131 L2056.11 253.196 Z" fill="#000000" fill-rule="nonzero" fill-opacity="1" /><path clip-path="url(#clip690)" d="M2103.79 273.728 L2103.79 275.811 L2084.21 275.811 Q2084.49 280.209 2086.85 282.524 Q2089.23 284.816 2093.47 284.816 Q2095.92 284.816 2098.22 284.214 Q2100.53 283.612 2102.8 282.409 L2102.8 286.436 Q2100.51 287.408 2098.1 287.918 Q2095.69 288.427 2093.22 288.427 Q2087.01 288.427 2083.38 284.816 Q2079.77 281.205 2079.77 275.047 Q2079.77 268.682 2083.19 264.955 Q2086.64 261.205 2092.48 261.205 Q2097.71 261.205 2100.74 264.585 Q2103.79 267.941 2103.79 273.728 M2099.54 272.478 Q2099.49 268.983 2097.57 266.899 Q2095.67 264.816 2092.52 264.816 Q2088.96 264.816 2086.8 266.83 Q2084.67 268.844 2084.35 272.501 L2099.54 272.478 Z" fill="#000000" fill-rule="nonzero" fill-opacity="1" /><path clip-path="url(#clip690)" d="M2127.31 262.594 L2127.31 266.622 Q2125.51 265.696 2123.56 265.233 Q2121.62 264.77 2119.54 264.77 Q2116.36 264.77 2114.77 265.742 Q2113.19 266.714 2113.19 268.659 Q2113.19 270.14 2114.33 270.997 Q2115.46 271.83 2118.89 272.594 L2120.35 272.918 Q2124.88 273.89 2126.78 275.672 Q2128.7 277.432 2128.7 280.603 Q2128.7 284.214 2125.83 286.321 Q2122.98 288.427 2117.98 288.427 Q2115.9 288.427 2113.63 288.01 Q2111.39 287.617 2108.89 286.807 L2108.89 282.409 Q2111.25 283.635 2113.54 284.26 Q2115.83 284.862 2118.08 284.862 Q2121.09 284.862 2122.71 283.844 Q2124.33 282.802 2124.33 280.927 Q2124.33 279.191 2123.15 278.265 Q2121.99 277.339 2118.03 276.483 L2116.55 276.135 Q2112.59 275.302 2110.83 273.589 Q2109.07 271.853 2109.07 268.844 Q2109.07 265.186 2111.67 263.196 Q2114.26 261.205 2119.03 261.205 Q2121.39 261.205 2123.47 261.552 Q2125.55 261.899 2127.31 262.594 Z" fill="#000000" fill-rule="nonzero" fill-opacity="1" /><path clip-path="url(#clip690)" d="M2139.7 254.469 L2139.7 261.83 L2148.47 261.83 L2148.47 265.14 L2139.7 265.14 L2139.7 279.214 Q2139.7 282.385 2140.55 283.288 Q2141.43 284.191 2144.1 284.191 L2148.47 284.191 L2148.47 287.756 L2144.1 287.756 Q2139.17 287.756 2137.29 285.927 Q2135.42 284.075 2135.42 279.214 L2135.42 265.14 L2132.29 265.14 L2132.29 261.83 L2135.42 261.83 L2135.42 254.469 L2139.7 254.469 Z" fill="#000000" fill-rule="nonzero" fill-opacity="1" /><path clip-path="url(#clip690)" d="M2192.89 282.825 L2192.89 273.543 L2185.25 273.543 L2185.25 269.7 L2197.52 269.7 L2197.52 284.538 Q2194.81 286.459 2191.55 287.455 Q2188.29 288.427 2184.58 288.427 Q2176.48 288.427 2171.9 283.705 Q2167.34 278.959 2167.34 270.51 Q2167.34 262.038 2171.9 257.316 Q2176.48 252.571 2184.58 252.571 Q2187.96 252.571 2190.99 253.404 Q2194.05 254.237 2196.62 255.858 L2196.62 260.835 Q2194.03 258.636 2191.11 257.524 Q2188.19 256.413 2184.98 256.413 Q2178.63 256.413 2175.44 259.955 Q2172.27 263.497 2172.27 270.51 Q2172.27 277.501 2175.44 281.043 Q2178.63 284.584 2184.98 284.584 Q2187.45 284.584 2189.4 284.168 Q2191.34 283.728 2192.89 282.825 Z" fill="#000000" fill-rule="nonzero" fill-opacity="1" /><path clip-path="url(#clip690)" d="M2217.66 274.723 Q2212.5 274.723 2210.51 275.904 Q2208.52 277.084 2208.52 279.932 Q2208.52 282.2 2210 283.543 Q2211.5 284.862 2214.07 284.862 Q2217.61 284.862 2219.74 282.362 Q2221.9 279.839 2221.9 275.672 L2221.9 274.723 L2217.66 274.723 M2226.16 272.964 L2226.16 287.756 L2221.9 287.756 L2221.9 283.821 Q2220.44 286.182 2218.26 287.316 Q2216.09 288.427 2212.94 288.427 Q2208.96 288.427 2206.6 286.205 Q2204.26 283.959 2204.26 280.209 Q2204.26 275.834 2207.17 273.612 Q2210.11 271.39 2215.92 271.39 L2221.9 271.39 L2221.9 270.973 Q2221.9 268.034 2219.95 266.436 Q2218.03 264.816 2214.54 264.816 Q2212.31 264.816 2210.21 265.348 Q2208.1 265.881 2206.16 266.946 L2206.16 263.01 Q2208.49 262.108 2210.69 261.668 Q2212.89 261.205 2214.97 261.205 Q2220.6 261.205 2223.38 264.122 Q2226.16 267.038 2226.16 272.964 Z" fill="#000000" fill-rule="nonzero" fill-opacity="1" /><path clip-path="url(#clip690)" d="M2239.05 283.867 L2239.05 297.617 L2234.77 297.617 L2234.77 261.83 L2239.05 261.83 L2239.05 265.765 Q2240.39 263.45 2242.43 262.339 Q2244.49 261.205 2247.34 261.205 Q2252.06 261.205 2255 264.955 Q2257.96 268.705 2257.96 274.816 Q2257.96 280.927 2255 284.677 Q2252.06 288.427 2247.34 288.427 Q2244.49 288.427 2242.43 287.316 Q2240.39 286.182 2239.05 283.867 M2253.54 274.816 Q2253.54 270.117 2251.6 267.455 Q2249.67 264.77 2246.29 264.77 Q2242.91 264.77 2240.97 267.455 Q2239.05 270.117 2239.05 274.816 Q2239.05 279.515 2240.97 282.2 Q2242.91 284.862 2246.29 284.862 Q2249.67 284.862 2251.6 282.2 Q2253.54 279.515 2253.54 274.816 Z" fill="#000000" fill-rule="nonzero" fill-opacity="1" /></svg>
