<?xml version="1.0" encoding="utf-8"?>
<svg xmlns="http://www.w3.org/2000/svg" xmlns:xlink="http://www.w3.org/1999/xlink" width="600" height="400" viewBox="0 0 2400 1600">
<defs>
  <clipPath id="clip460">
    <rect x="0" y="0" width="2400" height="1600"/>
  </clipPath>
</defs>
<path clip-path="url(#clip460)" d="M0 1600 L2400 1600 L2400 0 L0 0  Z" fill="#ffffff" fill-rule="evenodd" fill-opacity="1"/>
<defs>
  <clipPath id="clip461">
    <rect x="202" y="123" width="2152" height="1301"/>
  </clipPath>
</defs>
<path clip-path="url(#clip460)" d="M202.227 1423.18 L2352.76 1423.18 L2352.76 123.472 L202.227 123.472  Z" fill="#ffffff" fill-rule="evenodd" fill-opacity="1"/>
<polyline clip-path="url(#clip461)" style="stroke:#000000; stroke-linecap:round; stroke-linejoin:round; stroke-width:2; stroke-opacity:0.1; fill:none" points="263.091,1423.18 263.091,123.472 "/>
<polyline clip-path="url(#clip461)" style="stroke:#000000; stroke-linecap:round; stroke-linejoin:round; stroke-width:2; stroke-opacity:0.1; fill:none" points="668.852,1423.18 668.852,123.472 "/>
<polyline clip-path="url(#clip461)" style="stroke:#000000; stroke-linecap:round; stroke-linejoin:round; stroke-width:2; stroke-opacity:0.1; fill:none" points="1074.61,1423.18 1074.61,123.472 "/>
<polyline clip-path="url(#clip461)" style="stroke:#000000; stroke-linecap:round; stroke-linejoin:round; stroke-width:2; stroke-opacity:0.1; fill:none" points="1480.37,1423.18 1480.37,123.472 "/>
<polyline clip-path="url(#clip461)" style="stroke:#000000; stroke-linecap:round; stroke-linejoin:round; stroke-width:2; stroke-opacity:0.1; fill:none" points="1886.13,1423.18 1886.13,123.472 "/>
<polyline clip-path="url(#clip461)" style="stroke:#000000; stroke-linecap:round; stroke-linejoin:round; stroke-width:2; stroke-opacity:0.1; fill:none" points="2291.89,1423.18 2291.89,123.472 "/>
<polyline clip-path="url(#clip461)" style="stroke:#000000; stroke-linecap:round; stroke-linejoin:round; stroke-width:2; stroke-opacity:0.1; fill:none" points="202.227,1172.12 2352.76,1172.12 "/>
<polyline clip-path="url(#clip461)" style="stroke:#000000; stroke-linecap:round; stroke-linejoin:round; stroke-width:2; stroke-opacity:0.1; fill:none" points="202.227,914.17 2352.76,914.17 "/>
<polyline clip-path="url(#clip461)" style="stroke:#000000; stroke-linecap:round; stroke-linejoin:round; stroke-width:2; stroke-opacity:0.1; fill:none" points="202.227,656.218 2352.76,656.218 "/>
<polyline clip-path="url(#clip461)" style="stroke:#000000; stroke-linecap:round; stroke-linejoin:round; stroke-width:2; stroke-opacity:0.1; fill:none" points="202.227,398.267 2352.76,398.267 "/>
<polyline clip-path="url(#clip461)" style="stroke:#000000; stroke-linecap:round; stroke-linejoin:round; stroke-width:2; stroke-opacity:0.1; fill:none" points="202.227,140.316 2352.76,140.316 "/>
<polyline clip-path="url(#clip460)" style="stroke:#000000; stroke-linecap:round; stroke-linejoin:round; stroke-width:4; stroke-opacity:1; fill:none" points="202.227,1423.18 2352.76,1423.18 "/>
<polyline clip-path="url(#clip460)" style="stroke:#000000; stroke-linecap:round; stroke-linejoin:round; stroke-width:4; stroke-opacity:1; fill:none" points="263.091,1423.18 263.091,1404.28 "/>
<polyline clip-path="url(#clip460)" style="stroke:#000000; stroke-linecap:round; stroke-linejoin:round; stroke-width:4; stroke-opacity:1; fill:none" points="668.852,1423.18 668.852,1404.28 "/>
<polyline clip-path="url(#clip460)" style="stroke:#000000; stroke-linecap:round; stroke-linejoin:round; stroke-width:4; stroke-opacity:1; fill:none" points="1074.61,1423.18 1074.61,1404.28 "/>
<polyline clip-path="url(#clip460)" style="stroke:#000000; stroke-linecap:round; stroke-linejoin:round; stroke-width:4; stroke-opacity:1; fill:none" points="1480.37,1423.18 1480.37,1404.28 "/>
<polyline clip-path="url(#clip460)" style="stroke:#000000; stroke-linecap:round; stroke-linejoin:round; stroke-width:4; stroke-opacity:1; fill:none" points="1886.13,1423.18 1886.13,1404.28 "/>
<polyline clip-path="url(#clip460)" style="stroke:#000000; stroke-linecap:round; stroke-linejoin:round; stroke-width:4; stroke-opacity:1; fill:none" points="2291.89,1423.18 2291.89,1404.28 "/>
<path clip-path="url(#clip460)" d="M263.091 1454.1 Q259.48 1454.1 257.652 1457.66 Q255.846 1461.2 255.846 1468.33 Q255.846 1475.44 257.652 1479.01 Q259.48 1482.55 263.091 1482.55 Q266.726 1482.55 268.531 1479.01 Q270.36 1475.44 270.36 1468.33 Q270.36 1461.2 268.531 1457.66 Q266.726 1454.1 263.091 1454.1 M263.091 1450.39 Q268.902 1450.39 271.957 1455 Q275.036 1459.58 275.036 1468.33 Q275.036 1477.06 271.957 1481.67 Q268.902 1486.25 263.091 1486.25 Q257.281 1486.25 254.203 1481.67 Q251.147 1477.06 251.147 1468.33 Q251.147 1459.58 254.203 1455 Q257.281 1450.39 263.091 1450.39 Z" fill="#000000" fill-rule="nonzero" fill-opacity="1" /><path clip-path="url(#clip460)" d="M643.539 1481.64 L651.178 1481.64 L651.178 1455.28 L642.868 1456.95 L642.868 1452.69 L651.132 1451.02 L655.808 1451.02 L655.808 1481.64 L663.447 1481.64 L663.447 1485.58 L643.539 1485.58 L643.539 1481.64 Z" fill="#000000" fill-rule="nonzero" fill-opacity="1" /><path clip-path="url(#clip460)" d="M682.891 1454.1 Q679.28 1454.1 677.451 1457.66 Q675.646 1461.2 675.646 1468.33 Q675.646 1475.44 677.451 1479.01 Q679.28 1482.55 682.891 1482.55 Q686.525 1482.55 688.331 1479.01 Q690.159 1475.44 690.159 1468.33 Q690.159 1461.2 688.331 1457.66 Q686.525 1454.1 682.891 1454.1 M682.891 1450.39 Q688.701 1450.39 691.757 1455 Q694.835 1459.58 694.835 1468.33 Q694.835 1477.06 691.757 1481.67 Q688.701 1486.25 682.891 1486.25 Q677.081 1486.25 674.002 1481.67 Q670.946 1477.06 670.946 1468.33 Q670.946 1459.58 674.002 1455 Q677.081 1450.39 682.891 1450.39 Z" fill="#000000" fill-rule="nonzero" fill-opacity="1" /><path clip-path="url(#clip460)" d="M1053.38 1481.64 L1069.7 1481.64 L1069.7 1485.58 L1047.76 1485.58 L1047.76 1481.64 Q1050.42 1478.89 1055.01 1474.26 Q1059.61 1469.61 1060.79 1468.27 Q1063.04 1465.74 1063.92 1464.01 Q1064.82 1462.25 1064.82 1460.56 Q1064.82 1457.8 1062.88 1456.07 Q1060.95 1454.33 1057.85 1454.33 Q1055.65 1454.33 1053.2 1455.09 Q1050.77 1455.86 1047.99 1457.41 L1047.99 1452.69 Q1050.82 1451.55 1053.27 1450.97 Q1055.72 1450.39 1057.76 1450.39 Q1063.13 1450.39 1066.32 1453.08 Q1069.52 1455.77 1069.52 1460.26 Q1069.52 1462.39 1068.71 1464.31 Q1067.92 1466.2 1065.82 1468.8 Q1065.24 1469.47 1062.13 1472.69 Q1059.03 1475.88 1053.38 1481.64 Z" fill="#000000" fill-rule="nonzero" fill-opacity="1" /><path clip-path="url(#clip460)" d="M1089.52 1454.1 Q1085.91 1454.1 1084.08 1457.66 Q1082.27 1461.2 1082.27 1468.33 Q1082.27 1475.44 1084.08 1479.01 Q1085.91 1482.55 1089.52 1482.55 Q1093.15 1482.55 1094.96 1479.01 Q1096.79 1475.44 1096.79 1468.33 Q1096.79 1461.2 1094.96 1457.66 Q1093.15 1454.1 1089.52 1454.1 M1089.52 1450.39 Q1095.33 1450.39 1098.38 1455 Q1101.46 1459.58 1101.46 1468.33 Q1101.46 1477.06 1098.38 1481.67 Q1095.33 1486.25 1089.52 1486.25 Q1083.71 1486.25 1080.63 1481.67 Q1077.57 1477.06 1077.57 1468.33 Q1077.57 1459.58 1080.63 1455 Q1083.71 1450.39 1089.52 1450.39 Z" fill="#000000" fill-rule="nonzero" fill-opacity="1" /><path clip-path="url(#clip460)" d="M1469.21 1466.95 Q1472.57 1467.66 1474.45 1469.93 Q1476.34 1472.2 1476.34 1475.53 Q1476.34 1480.65 1472.83 1483.45 Q1469.31 1486.25 1462.83 1486.25 Q1460.65 1486.25 1458.33 1485.81 Q1456.04 1485.39 1453.59 1484.54 L1453.59 1480.02 Q1455.53 1481.16 1457.85 1481.74 Q1460.16 1482.32 1462.69 1482.32 Q1467.08 1482.32 1469.38 1480.58 Q1471.69 1478.84 1471.69 1475.53 Q1471.69 1472.48 1469.54 1470.77 Q1467.41 1469.03 1463.59 1469.03 L1459.56 1469.03 L1459.56 1465.19 L1463.77 1465.19 Q1467.22 1465.19 1469.05 1463.82 Q1470.88 1462.43 1470.88 1459.84 Q1470.88 1457.18 1468.98 1455.77 Q1467.11 1454.33 1463.59 1454.33 Q1461.67 1454.33 1459.47 1454.75 Q1457.27 1455.16 1454.63 1456.04 L1454.63 1451.88 Q1457.29 1451.14 1459.61 1450.77 Q1461.95 1450.39 1464.01 1450.39 Q1469.33 1450.39 1472.43 1452.83 Q1475.53 1455.23 1475.53 1459.35 Q1475.53 1462.22 1473.89 1464.21 Q1472.25 1466.18 1469.21 1466.95 Z" fill="#000000" fill-rule="nonzero" fill-opacity="1" /><path clip-path="url(#clip460)" d="M1495.21 1454.1 Q1491.6 1454.1 1489.77 1457.66 Q1487.96 1461.2 1487.96 1468.33 Q1487.96 1475.44 1489.77 1479.01 Q1491.6 1482.55 1495.21 1482.55 Q1498.84 1482.55 1500.65 1479.01 Q1502.48 1475.44 1502.48 1468.33 Q1502.48 1461.2 1500.65 1457.66 Q1498.84 1454.1 1495.21 1454.1 M1495.21 1450.39 Q1501.02 1450.39 1504.08 1455 Q1507.15 1459.58 1507.15 1468.33 Q1507.15 1477.06 1504.08 1481.67 Q1501.02 1486.25 1495.21 1486.25 Q1489.4 1486.25 1486.32 1481.67 Q1483.27 1477.06 1483.27 1468.33 Q1483.27 1459.58 1486.32 1455 Q1489.4 1450.39 1495.21 1450.39 Z" fill="#000000" fill-rule="nonzero" fill-opacity="1" /><path clip-path="url(#clip460)" d="M1874.3 1455.09 L1862.5 1473.54 L1874.3 1473.54 L1874.3 1455.09 M1873.08 1451.02 L1878.96 1451.02 L1878.96 1473.54 L1883.89 1473.54 L1883.89 1477.43 L1878.96 1477.43 L1878.96 1485.58 L1874.3 1485.58 L1874.3 1477.43 L1858.7 1477.43 L1858.7 1472.92 L1873.08 1451.02 Z" fill="#000000" fill-rule="nonzero" fill-opacity="1" /><path clip-path="url(#clip460)" d="M1901.62 1454.1 Q1898.01 1454.1 1896.18 1457.66 Q1894.37 1461.2 1894.37 1468.33 Q1894.37 1475.44 1896.18 1479.01 Q1898.01 1482.55 1901.62 1482.55 Q1905.25 1482.55 1907.06 1479.01 Q1908.89 1475.44 1908.89 1468.33 Q1908.89 1461.2 1907.06 1457.66 Q1905.25 1454.1 1901.62 1454.1 M1901.62 1450.39 Q1907.43 1450.39 1910.48 1455 Q1913.56 1459.58 1913.56 1468.33 Q1913.56 1477.06 1910.48 1481.67 Q1907.43 1486.25 1901.62 1486.25 Q1895.81 1486.25 1892.73 1481.67 Q1889.67 1477.06 1889.67 1468.33 Q1889.67 1459.58 1892.73 1455 Q1895.81 1450.39 1901.62 1450.39 Z" fill="#000000" fill-rule="nonzero" fill-opacity="1" /><path clip-path="url(#clip460)" d="M2266.59 1451.02 L2284.95 1451.02 L2284.95 1454.96 L2270.87 1454.96 L2270.87 1463.43 Q2271.89 1463.08 2272.91 1462.92 Q2273.93 1462.73 2274.95 1462.73 Q2280.73 1462.73 2284.11 1465.9 Q2287.49 1469.08 2287.49 1474.49 Q2287.49 1480.07 2284.02 1483.17 Q2280.55 1486.25 2274.23 1486.25 Q2272.05 1486.25 2269.79 1485.88 Q2267.54 1485.51 2265.13 1484.77 L2265.13 1480.07 Q2267.22 1481.2 2269.44 1481.76 Q2271.66 1482.32 2274.14 1482.32 Q2278.14 1482.32 2280.48 1480.21 Q2282.82 1478.1 2282.82 1474.49 Q2282.82 1470.88 2280.48 1468.77 Q2278.14 1466.67 2274.14 1466.67 Q2272.26 1466.67 2270.39 1467.08 Q2268.54 1467.5 2266.59 1468.38 L2266.59 1451.02 Z" fill="#000000" fill-rule="nonzero" fill-opacity="1" /><path clip-path="url(#clip460)" d="M2306.71 1454.1 Q2303.1 1454.1 2301.27 1457.66 Q2299.46 1461.2 2299.46 1468.33 Q2299.46 1475.44 2301.27 1479.01 Q2303.1 1482.55 2306.71 1482.55 Q2310.34 1482.55 2312.15 1479.01 Q2313.98 1475.44 2313.98 1468.33 Q2313.98 1461.2 2312.15 1457.66 Q2310.34 1454.1 2306.71 1454.1 M2306.71 1450.39 Q2312.52 1450.39 2315.57 1455 Q2318.65 1459.58 2318.65 1468.33 Q2318.65 1477.06 2315.57 1481.67 Q2312.52 1486.25 2306.71 1486.25 Q2300.9 1486.25 2297.82 1481.67 Q2294.76 1477.06 2294.76 1468.33 Q2294.76 1459.58 2297.82 1455 Q2300.9 1450.39 2306.71 1450.39 Z" fill="#000000" fill-rule="nonzero" fill-opacity="1" /><path clip-path="url(#clip460)" d="M1183.66 1520.52 L1213.71 1520.52 L1213.71 1525.93 L1190.09 1525.93 L1190.09 1540 L1212.72 1540 L1212.72 1545.41 L1190.09 1545.41 L1190.09 1562.63 L1214.28 1562.63 L1214.28 1568.04 L1183.66 1568.04 L1183.66 1520.52 Z" fill="#000000" fill-rule="nonzero" fill-opacity="1" /><path clip-path="url(#clip460)" d="M1230.26 1562.7 L1230.26 1581.6 L1224.37 1581.6 L1224.37 1532.4 L1230.26 1532.4 L1230.26 1537.81 Q1232.1 1534.62 1234.91 1533.1 Q1237.74 1531.54 1241.65 1531.54 Q1248.15 1531.54 1252.19 1536.69 Q1256.26 1541.85 1256.26 1550.25 Q1256.26 1558.65 1252.19 1563.81 Q1248.15 1568.97 1241.65 1568.97 Q1237.74 1568.97 1234.91 1567.44 Q1232.1 1565.88 1230.26 1562.7 M1250.18 1550.25 Q1250.18 1543.79 1247.51 1540.13 Q1244.87 1536.44 1240.22 1536.44 Q1235.57 1536.44 1232.9 1540.13 Q1230.26 1543.79 1230.26 1550.25 Q1230.26 1556.71 1232.9 1560.4 Q1235.57 1564.07 1240.22 1564.07 Q1244.87 1564.07 1247.51 1560.4 Q1250.18 1556.71 1250.18 1550.25 Z" fill="#000000" fill-rule="nonzero" fill-opacity="1" /><path clip-path="url(#clip460)" d="M1279.78 1536.5 Q1275.07 1536.5 1272.34 1540.19 Q1269.6 1543.85 1269.6 1550.25 Q1269.6 1556.65 1272.3 1560.34 Q1275.04 1564 1279.78 1564 Q1284.46 1564 1287.2 1560.31 Q1289.94 1556.62 1289.94 1550.25 Q1289.94 1543.92 1287.2 1540.23 Q1284.46 1536.5 1279.78 1536.5 M1279.78 1531.54 Q1287.42 1531.54 1291.78 1536.5 Q1296.14 1541.47 1296.14 1550.25 Q1296.14 1559 1291.78 1564 Q1287.42 1568.97 1279.78 1568.97 Q1272.11 1568.97 1267.75 1564 Q1263.42 1559 1263.42 1550.25 Q1263.42 1541.47 1267.75 1536.5 Q1272.11 1531.54 1279.78 1531.54 Z" fill="#000000" fill-rule="nonzero" fill-opacity="1" /><path clip-path="url(#clip460)" d="M1331.5 1533.76 L1331.5 1539.24 Q1329.02 1537.87 1326.51 1537.2 Q1324.03 1536.5 1321.48 1536.5 Q1315.78 1536.5 1312.63 1540.13 Q1309.48 1543.73 1309.48 1550.25 Q1309.48 1556.78 1312.63 1560.4 Q1315.78 1564 1321.48 1564 Q1324.03 1564 1326.51 1563.33 Q1329.02 1562.63 1331.5 1561.26 L1331.5 1566.68 Q1329.05 1567.82 1326.41 1568.39 Q1323.8 1568.97 1320.84 1568.97 Q1312.79 1568.97 1308.05 1563.91 Q1303.3 1558.85 1303.3 1550.25 Q1303.3 1541.53 1308.08 1536.53 Q1312.89 1531.54 1321.22 1531.54 Q1323.93 1531.54 1326.51 1532.11 Q1329.09 1532.65 1331.5 1533.76 Z" fill="#000000" fill-rule="nonzero" fill-opacity="1" /><path clip-path="url(#clip460)" d="M1371.32 1546.53 L1371.32 1568.04 L1365.47 1568.04 L1365.47 1546.72 Q1365.47 1541.66 1363.49 1539.14 Q1361.52 1536.63 1357.57 1536.63 Q1352.83 1536.63 1350.09 1539.65 Q1347.36 1542.68 1347.36 1547.9 L1347.36 1568.04 L1341.47 1568.04 L1341.47 1518.52 L1347.36 1518.52 L1347.36 1537.93 Q1349.46 1534.72 1352.29 1533.13 Q1355.15 1531.54 1358.88 1531.54 Q1365.02 1531.54 1368.17 1535.36 Q1371.32 1539.14 1371.32 1546.53 Z" fill="#000000" fill-rule="nonzero" fill-opacity="1" /><polyline clip-path="url(#clip460)" style="stroke:#000000; stroke-linecap:round; stroke-linejoin:round; stroke-width:4; stroke-opacity:1; fill:none" points="202.227,1423.18 202.227,123.472 "/>
<polyline clip-path="url(#clip460)" style="stroke:#000000; stroke-linecap:round; stroke-linejoin:round; stroke-width:4; stroke-opacity:1; fill:none" points="202.227,1172.12 221.125,1172.12 "/>
<polyline clip-path="url(#clip460)" style="stroke:#000000; stroke-linecap:round; stroke-linejoin:round; stroke-width:4; stroke-opacity:1; fill:none" points="202.227,914.17 221.125,914.17 "/>
<polyline clip-path="url(#clip460)" style="stroke:#000000; stroke-linecap:round; stroke-linejoin:round; stroke-width:4; stroke-opacity:1; fill:none" points="202.227,656.218 221.125,656.218 "/>
<polyline clip-path="url(#clip460)" style="stroke:#000000; stroke-linecap:round; stroke-linejoin:round; stroke-width:4; stroke-opacity:1; fill:none" points="202.227,398.267 221.125,398.267 "/>
<polyline clip-path="url(#clip460)" style="stroke:#000000; stroke-linecap:round; stroke-linejoin:round; stroke-width:4; stroke-opacity:1; fill:none" points="202.227,140.316 221.125,140.316 "/>
<path clip-path="url(#clip460)" d="M149.908 1185.47 L166.227 1185.47 L166.227 1189.4 L144.283 1189.4 L144.283 1185.47 Q146.945 1182.71 151.528 1178.08 Q156.135 1173.43 157.315 1172.09 Q159.561 1169.56 160.44 1167.83 Q161.343 1166.07 161.343 1164.38 Q161.343 1161.62 159.399 1159.89 Q157.478 1158.15 154.376 1158.15 Q152.177 1158.15 149.723 1158.92 Q147.292 1159.68 144.515 1161.23 L144.515 1156.51 Q147.339 1155.37 149.792 1154.79 Q152.246 1154.22 154.283 1154.22 Q159.653 1154.22 162.848 1156.9 Q166.042 1159.59 166.042 1164.08 Q166.042 1166.21 165.232 1168.13 Q164.445 1170.03 162.339 1172.62 Q161.76 1173.29 158.658 1176.51 Q155.556 1179.7 149.908 1185.47 Z" fill="#000000" fill-rule="nonzero" fill-opacity="1" /><path clip-path="url(#clip460)" d="M156.644 900.964 L144.839 919.413 L156.644 919.413 L156.644 900.964 M155.417 896.89 L161.297 896.89 L161.297 919.413 L166.227 919.413 L166.227 923.302 L161.297 923.302 L161.297 931.45 L156.644 931.45 L156.644 923.302 L141.042 923.302 L141.042 918.788 L155.417 896.89 Z" fill="#000000" fill-rule="nonzero" fill-opacity="1" /><path clip-path="url(#clip460)" d="M154.7 654.355 Q151.552 654.355 149.7 656.508 Q147.871 658.661 147.871 662.41 Q147.871 666.137 149.7 668.313 Q151.552 670.466 154.7 670.466 Q157.848 670.466 159.677 668.313 Q161.528 666.137 161.528 662.41 Q161.528 658.661 159.677 656.508 Q157.848 654.355 154.7 654.355 M163.982 639.702 L163.982 643.962 Q162.223 643.128 160.417 642.688 Q158.635 642.249 156.876 642.249 Q152.246 642.249 149.792 645.374 Q147.362 648.499 147.015 654.818 Q148.38 652.804 150.441 651.739 Q152.501 650.651 154.978 650.651 Q160.186 650.651 163.195 653.823 Q166.227 656.971 166.227 662.41 Q166.227 667.735 163.079 670.952 Q159.931 674.17 154.7 674.17 Q148.704 674.17 145.533 669.586 Q142.362 664.98 142.362 656.253 Q142.362 648.059 146.251 643.198 Q150.14 638.313 156.69 638.313 Q158.45 638.313 160.232 638.661 Q162.038 639.008 163.982 639.702 Z" fill="#000000" fill-rule="nonzero" fill-opacity="1" /><path clip-path="url(#clip460)" d="M154.376 399.135 Q151.042 399.135 149.121 400.917 Q147.223 402.7 147.223 405.825 Q147.223 408.95 149.121 410.732 Q151.042 412.515 154.376 412.515 Q157.709 412.515 159.63 410.732 Q161.552 408.927 161.552 405.825 Q161.552 402.7 159.63 400.917 Q157.732 399.135 154.376 399.135 M149.7 397.144 Q146.691 396.404 145.001 394.343 Q143.334 392.283 143.334 389.32 Q143.334 385.177 146.274 382.769 Q149.237 380.362 154.376 380.362 Q159.538 380.362 162.477 382.769 Q165.417 385.177 165.417 389.32 Q165.417 392.283 163.727 394.343 Q162.061 396.404 159.075 397.144 Q162.454 397.931 164.329 400.223 Q166.227 402.515 166.227 405.825 Q166.227 410.848 163.149 413.533 Q160.093 416.218 154.376 416.218 Q148.658 416.218 145.579 413.533 Q142.524 410.848 142.524 405.825 Q142.524 402.515 144.422 400.223 Q146.32 397.931 149.7 397.144 M147.987 389.76 Q147.987 392.445 149.653 393.95 Q151.343 395.454 154.376 395.454 Q157.385 395.454 159.075 393.95 Q160.788 392.445 160.788 389.76 Q160.788 387.075 159.075 385.57 Q157.385 384.066 154.376 384.066 Q151.343 384.066 149.653 385.57 Q147.987 387.075 147.987 389.76 Z" fill="#000000" fill-rule="nonzero" fill-opacity="1" /><path clip-path="url(#clip460)" d="M114.931 153.66 L122.57 153.66 L122.57 127.295 L114.26 128.961 L114.26 124.702 L122.524 123.036 L127.2 123.036 L127.2 153.66 L134.839 153.66 L134.839 157.596 L114.931 157.596 L114.931 153.66 Z" fill="#000000" fill-rule="nonzero" fill-opacity="1" /><path clip-path="url(#clip460)" d="M154.283 126.114 Q150.672 126.114 148.843 129.679 Q147.038 133.221 147.038 140.35 Q147.038 147.457 148.843 151.021 Q150.672 154.563 154.283 154.563 Q157.917 154.563 159.723 151.021 Q161.552 147.457 161.552 140.35 Q161.552 133.221 159.723 129.679 Q157.917 126.114 154.283 126.114 M154.283 122.411 Q160.093 122.411 163.149 127.017 Q166.227 131.6 166.227 140.35 Q166.227 149.077 163.149 153.684 Q160.093 158.267 154.283 158.267 Q148.473 158.267 145.394 153.684 Q142.339 149.077 142.339 140.35 Q142.339 131.6 145.394 127.017 Q148.473 122.411 154.283 122.411 Z" fill="#000000" fill-rule="nonzero" fill-opacity="1" /><path clip-path="url(#clip460)" d="M16.4842 907.197 L16.4842 879.888 L21.895 879.888 L21.895 900.767 L35.8996 900.767 L35.8996 881.925 L41.3104 881.925 L41.3104 900.767 L64.0042 900.767 L64.0042 907.197 L16.4842 907.197 Z" fill="#000000" fill-rule="nonzero" fill-opacity="1" /><path clip-path="url(#clip460)" d="M16.4842 876.228 L16.4842 869.321 L36.0269 856.144 L16.4842 843.062 L16.4842 836.156 L41.3741 852.961 L64.0042 852.961 L64.0042 859.422 L41.3741 859.422 L16.4842 876.228 Z" fill="#000000" fill-rule="nonzero" fill-opacity="1" /><path clip-path="url(#clip460)" d="M16.4842 829.885 L16.4842 823.456 L58.5933 823.456 L58.5933 800.317 L64.0042 800.317 L64.0042 829.885 L16.4842 829.885 Z" fill="#000000" fill-rule="nonzero" fill-opacity="1" /><path clip-path="url(#clip460)" d="M16.4842 772.849 L16.4842 766.419 L58.5933 766.419 L58.5933 743.28 L64.0042 743.28 L64.0042 772.849 L16.4842 772.849 Z" fill="#000000" fill-rule="nonzero" fill-opacity="1" /><path clip-path="url(#clip460)" d="M32.4621 724.119 Q32.4621 728.83 36.1542 731.567 Q39.8145 734.304 46.212 734.304 Q52.6095 734.304 56.3017 731.599 Q59.9619 728.862 59.9619 724.119 Q59.9619 719.44 56.2698 716.703 Q52.5777 713.966 46.212 713.966 Q39.8781 713.966 36.186 716.703 Q32.4621 719.44 32.4621 724.119 M27.4968 724.119 Q27.4968 716.48 32.4621 712.12 Q37.4273 707.759 46.212 707.759 Q54.9649 707.759 59.9619 712.12 Q64.9272 716.48 64.9272 724.119 Q64.9272 731.79 59.9619 736.15 Q54.9649 740.479 46.212 740.479 Q37.4273 740.479 32.4621 736.15 Q27.4968 731.79 27.4968 724.119 Z" fill="#000000" fill-rule="nonzero" fill-opacity="1" /><path clip-path="url(#clip460)" d="M29.4065 675.326 L34.9447 675.326 Q33.6716 677.809 33.035 680.482 Q32.3984 683.156 32.3984 686.02 Q32.3984 690.381 33.7352 692.577 Q35.072 694.741 37.7456 694.741 Q39.7826 694.741 40.9603 693.182 Q42.1061 691.622 43.1565 686.912 L43.6021 684.906 Q44.9389 678.668 47.3897 676.058 Q49.8086 673.416 54.1691 673.416 Q59.1344 673.416 62.0308 677.363 Q64.9272 681.278 64.9272 688.153 Q64.9272 691.017 64.3543 694.137 Q63.8132 697.224 62.6992 700.661 L56.6518 700.661 Q58.3387 697.415 59.198 694.264 Q60.0256 691.113 60.0256 688.026 Q60.0256 683.888 58.6251 681.66 Q57.1929 679.432 54.6147 679.432 Q52.2276 679.432 50.9545 681.055 Q49.6813 682.646 48.5037 688.089 L48.0262 690.126 Q46.8804 695.569 44.5251 697.988 Q42.138 700.407 38.0002 700.407 Q32.9713 700.407 30.2341 696.842 Q27.4968 693.277 27.4968 686.721 Q27.4968 683.474 27.9743 680.609 Q28.4517 677.745 29.4065 675.326 Z" fill="#000000" fill-rule="nonzero" fill-opacity="1" /><path clip-path="url(#clip460)" d="M29.4065 641.365 L34.9447 641.365 Q33.6716 643.848 33.035 646.521 Q32.3984 649.195 32.3984 652.059 Q32.3984 656.42 33.7352 658.616 Q35.072 660.78 37.7456 660.78 Q39.7826 660.78 40.9603 659.221 Q42.1061 657.661 43.1565 652.95 L43.6021 650.945 Q44.9389 644.707 47.3897 642.097 Q49.8086 639.455 54.1691 639.455 Q59.1344 639.455 62.0308 643.402 Q64.9272 647.317 64.9272 654.192 Q64.9272 657.056 64.3543 660.176 Q63.8132 663.263 62.6992 666.7 L56.6518 666.7 Q58.3387 663.454 59.198 660.303 Q60.0256 657.152 60.0256 654.064 Q60.0256 649.927 58.6251 647.699 Q57.1929 645.471 54.6147 645.471 Q52.2276 645.471 50.9545 647.094 Q49.6813 648.685 48.5037 654.128 L48.0262 656.165 Q46.8804 661.608 44.5251 664.027 Q42.138 666.446 38.0002 666.446 Q32.9713 666.446 30.2341 662.881 Q27.4968 659.316 27.4968 652.76 Q27.4968 649.513 27.9743 646.648 Q28.4517 643.784 29.4065 641.365 Z" fill="#000000" fill-rule="nonzero" fill-opacity="1" /><path clip-path="url(#clip460)" d="M925.509 12.096 L976.672 12.096 L976.672 18.9825 L955.202 18.9825 L955.202 72.576 L946.978 72.576 L946.978 18.9825 L925.509 18.9825 L925.509 12.096 Z" fill="#000000" fill-rule="nonzero" fill-opacity="1" /><path clip-path="url(#clip460)" d="M998.344 34.1734 Q997.088 33.4443 995.589 33.1202 Q994.131 32.7556 992.349 32.7556 Q986.029 32.7556 982.626 36.8875 Q979.264 40.9789 979.264 48.6757 L979.264 72.576 L971.77 72.576 L971.77 27.2059 L979.264 27.2059 L979.264 34.2544 Q981.614 30.1225 985.381 28.1376 Q989.148 26.1121 994.536 26.1121 Q995.306 26.1121 996.237 26.2337 Q997.169 26.3147 998.303 26.5172 L998.344 34.1734 Z" fill="#000000" fill-rule="nonzero" fill-opacity="1" /><path clip-path="url(#clip460)" d="M1026.78 49.7694 Q1017.75 49.7694 1014.26 51.8354 Q1010.78 53.9013 1010.78 58.8839 Q1010.78 62.8538 1013.37 65.2034 Q1016.01 67.5124 1020.5 67.5124 Q1026.7 67.5124 1030.43 63.1374 Q1034.19 58.7219 1034.19 51.4303 L1034.19 49.7694 L1026.78 49.7694 M1041.65 46.6907 L1041.65 72.576 L1034.19 72.576 L1034.19 65.6895 Q1031.64 69.8214 1027.83 71.8063 Q1024.03 73.7508 1018.52 73.7508 Q1011.55 73.7508 1007.42 69.8619 Q1003.33 65.9325 1003.33 59.3701 Q1003.33 51.7138 1008.43 47.825 Q1013.58 43.9361 1023.74 43.9361 L1034.19 43.9361 L1034.19 43.2069 Q1034.19 38.0623 1030.79 35.2672 Q1027.43 32.4315 1021.31 32.4315 Q1017.42 32.4315 1013.74 33.3632 Q1010.05 34.295 1006.65 36.1584 L1006.65 29.2718 Q1010.74 27.692 1014.59 26.9223 Q1018.44 26.1121 1022.08 26.1121 Q1031.93 26.1121 1036.79 31.2163 Q1041.65 36.3204 1041.65 46.6907 Z" fill="#000000" fill-rule="nonzero" fill-opacity="1" /><path clip-path="url(#clip460)" d="M1057 27.2059 L1064.45 27.2059 L1064.45 72.576 L1057 72.576 L1057 27.2059 M1057 9.54393 L1064.45 9.54393 L1064.45 18.9825 L1057 18.9825 L1057 9.54393 Z" fill="#000000" fill-rule="nonzero" fill-opacity="1" /><path clip-path="url(#clip460)" d="M1117.76 45.1919 L1117.76 72.576 L1110.31 72.576 L1110.31 45.4349 Q1110.31 38.994 1107.8 35.7938 Q1105.29 32.5936 1100.26 32.5936 Q1094.23 32.5936 1090.75 36.4419 Q1087.26 40.2903 1087.26 46.9338 L1087.26 72.576 L1079.77 72.576 L1079.77 27.2059 L1087.26 27.2059 L1087.26 34.2544 Q1089.93 30.163 1093.54 28.1376 Q1097.19 26.1121 1101.93 26.1121 Q1109.74 26.1121 1113.75 30.9732 Q1117.76 35.7938 1117.76 45.1919 Z" fill="#000000" fill-rule="nonzero" fill-opacity="1" /><path clip-path="url(#clip460)" d="M1132.63 27.2059 L1140.09 27.2059 L1140.09 72.576 L1132.63 72.576 L1132.63 27.2059 M1132.63 9.54393 L1140.09 9.54393 L1140.09 18.9825 L1132.63 18.9825 L1132.63 9.54393 Z" fill="#000000" fill-rule="nonzero" fill-opacity="1" /><path clip-path="url(#clip460)" d="M1193.39 45.1919 L1193.39 72.576 L1185.94 72.576 L1185.94 45.4349 Q1185.94 38.994 1183.43 35.7938 Q1180.92 32.5936 1175.9 32.5936 Q1169.86 32.5936 1166.38 36.4419 Q1162.89 40.2903 1162.89 46.9338 L1162.89 72.576 L1155.4 72.576 L1155.4 27.2059 L1162.89 27.2059 L1162.89 34.2544 Q1165.57 30.163 1169.17 28.1376 Q1172.82 26.1121 1177.56 26.1121 Q1185.37 26.1121 1189.38 30.9732 Q1193.39 35.7938 1193.39 45.1919 Z" fill="#000000" fill-rule="nonzero" fill-opacity="1" /><path clip-path="url(#clip460)" d="M1238.12 49.3643 Q1238.12 41.2625 1234.75 36.8065 Q1231.43 32.3505 1225.4 32.3505 Q1219.4 32.3505 1216.04 36.8065 Q1212.72 41.2625 1212.72 49.3643 Q1212.72 57.4256 1216.04 61.8816 Q1219.4 66.3376 1225.4 66.3376 Q1231.43 66.3376 1234.75 61.8816 Q1238.12 57.4256 1238.12 49.3643 M1245.57 66.9452 Q1245.57 78.5308 1240.43 84.1616 Q1235.28 89.8329 1224.67 89.8329 Q1220.74 89.8329 1217.25 89.2252 Q1213.77 88.6581 1210.49 87.4428 L1210.49 80.1917 Q1213.77 81.9741 1216.97 82.8248 Q1220.17 83.6755 1223.49 83.6755 Q1230.83 83.6755 1234.47 79.8271 Q1238.12 76.0193 1238.12 68.282 L1238.12 64.5957 Q1235.81 68.6061 1232.2 70.5911 Q1228.6 72.576 1223.57 72.576 Q1215.23 72.576 1210.13 66.2161 Q1205.02 59.8562 1205.02 49.3643 Q1205.02 38.832 1210.13 32.472 Q1215.23 26.1121 1223.57 26.1121 Q1228.6 26.1121 1232.2 28.0971 Q1235.81 30.082 1238.12 34.0924 L1238.12 27.2059 L1245.57 27.2059 L1245.57 66.9452 Z" fill="#000000" fill-rule="nonzero" fill-opacity="1" /><path clip-path="url(#clip460)" d="M1295.8 18.8205 L1295.8 41.5461 L1306.09 41.5461 Q1311.8 41.5461 1314.92 38.5889 Q1318.04 35.6318 1318.04 30.163 Q1318.04 24.7348 1314.92 21.7777 Q1311.8 18.8205 1306.09 18.8205 L1295.8 18.8205 M1287.62 12.096 L1306.09 12.096 Q1316.26 12.096 1321.44 16.714 Q1326.67 21.2916 1326.67 30.163 Q1326.67 39.1155 1321.44 43.6931 Q1316.26 48.2706 1306.09 48.2706 L1295.8 48.2706 L1295.8 72.576 L1287.62 72.576 L1287.62 12.096 Z" fill="#000000" fill-rule="nonzero" fill-opacity="1" /><path clip-path="url(#clip460)" d="M1362.16 34.1734 Q1360.9 33.4443 1359.4 33.1202 Q1357.94 32.7556 1356.16 32.7556 Q1349.84 32.7556 1346.44 36.8875 Q1343.08 40.9789 1343.08 48.6757 L1343.08 72.576 L1335.58 72.576 L1335.58 27.2059 L1343.08 27.2059 L1343.08 34.2544 Q1345.43 30.1225 1349.19 28.1376 Q1352.96 26.1121 1358.35 26.1121 Q1359.12 26.1121 1360.05 26.2337 Q1360.98 26.3147 1362.12 26.5172 L1362.16 34.1734 Z" fill="#000000" fill-rule="nonzero" fill-opacity="1" /><path clip-path="url(#clip460)" d="M1385.73 32.4315 Q1379.74 32.4315 1376.25 37.1306 Q1372.77 41.7891 1372.77 49.9314 Q1372.77 58.0738 1376.21 62.7728 Q1379.7 67.4314 1385.73 67.4314 Q1391.69 67.4314 1395.17 62.7323 Q1398.65 58.0333 1398.65 49.9314 Q1398.65 41.8701 1395.17 37.1711 Q1391.69 32.4315 1385.73 32.4315 M1385.73 26.1121 Q1395.45 26.1121 1401 32.4315 Q1406.55 38.7509 1406.55 49.9314 Q1406.55 61.0714 1401 67.4314 Q1395.45 73.7508 1385.73 73.7508 Q1375.97 73.7508 1370.42 67.4314 Q1364.91 61.0714 1364.91 49.9314 Q1364.91 38.7509 1370.42 32.4315 Q1375.97 26.1121 1385.73 26.1121 Z" fill="#000000" fill-rule="nonzero" fill-opacity="1" /><path clip-path="url(#clip460)" d="M1448.76 49.3643 Q1448.76 41.2625 1445.4 36.8065 Q1442.08 32.3505 1436.04 32.3505 Q1430.05 32.3505 1426.69 36.8065 Q1423.36 41.2625 1423.36 49.3643 Q1423.36 57.4256 1426.69 61.8816 Q1430.05 66.3376 1436.04 66.3376 Q1442.08 66.3376 1445.4 61.8816 Q1448.76 57.4256 1448.76 49.3643 M1456.22 66.9452 Q1456.22 78.5308 1451.07 84.1616 Q1445.93 89.8329 1435.31 89.8329 Q1431.39 89.8329 1427.9 89.2252 Q1424.42 88.6581 1421.14 87.4428 L1421.14 80.1917 Q1424.42 81.9741 1427.62 82.8248 Q1430.82 83.6755 1434.14 83.6755 Q1441.47 83.6755 1445.12 79.8271 Q1448.76 76.0193 1448.76 68.282 L1448.76 64.5957 Q1446.45 68.6061 1442.85 70.5911 Q1439.24 72.576 1434.22 72.576 Q1425.88 72.576 1420.77 66.2161 Q1415.67 59.8562 1415.67 49.3643 Q1415.67 38.832 1420.77 32.472 Q1425.88 26.1121 1434.22 26.1121 Q1439.24 26.1121 1442.85 28.0971 Q1446.45 30.082 1448.76 34.0924 L1448.76 27.2059 L1456.22 27.2059 L1456.22 66.9452 Z" fill="#000000" fill-rule="nonzero" fill-opacity="1" /><path clip-path="url(#clip460)" d="M1497.86 34.1734 Q1496.61 33.4443 1495.11 33.1202 Q1493.65 32.7556 1491.87 32.7556 Q1485.55 32.7556 1482.14 36.8875 Q1478.78 40.9789 1478.78 48.6757 L1478.78 72.576 L1471.29 72.576 L1471.29 27.2059 L1478.78 27.2059 L1478.78 34.2544 Q1481.13 30.1225 1484.9 28.1376 Q1488.67 26.1121 1494.05 26.1121 Q1494.82 26.1121 1495.75 26.2337 Q1496.69 26.3147 1497.82 26.5172 L1497.86 34.1734 Z" fill="#000000" fill-rule="nonzero" fill-opacity="1" /><path clip-path="url(#clip460)" d="M1542.66 48.0275 L1542.66 51.6733 L1508.39 51.6733 Q1508.88 59.3701 1513.01 63.421 Q1517.18 67.4314 1524.6 67.4314 Q1528.89 67.4314 1532.9 66.3781 Q1536.95 65.3249 1540.92 63.2184 L1540.92 70.267 Q1536.91 71.9684 1532.7 72.8596 Q1528.49 73.7508 1524.15 73.7508 Q1513.29 73.7508 1506.93 67.4314 Q1500.62 61.1119 1500.62 50.3365 Q1500.62 39.1965 1506.61 32.6746 Q1512.65 26.1121 1522.85 26.1121 Q1532.01 26.1121 1537.32 32.0264 Q1542.66 37.9003 1542.66 48.0275 M1535.21 45.84 Q1535.13 39.7232 1531.77 36.0774 Q1528.45 32.4315 1522.94 32.4315 Q1516.7 32.4315 1512.93 35.9558 Q1509.2 39.4801 1508.64 45.8805 L1535.21 45.84 Z" fill="#000000" fill-rule="nonzero" fill-opacity="1" /><path clip-path="url(#clip460)" d="M1583.82 28.5427 L1583.82 35.5912 Q1580.66 33.9709 1577.26 33.1607 Q1573.86 32.3505 1570.21 32.3505 Q1564.66 32.3505 1561.87 34.0519 Q1559.11 35.7533 1559.11 39.156 Q1559.11 41.7486 1561.1 43.2475 Q1563.08 44.7058 1569.08 46.0426 L1571.63 46.6097 Q1579.57 48.3111 1582.89 51.4303 Q1586.25 54.509 1586.25 60.0587 Q1586.25 66.3781 1581.23 70.0644 Q1576.25 73.7508 1567.5 73.7508 Q1563.85 73.7508 1559.88 73.0216 Q1555.95 72.3329 1551.58 70.9151 L1551.58 63.2184 Q1555.71 65.3654 1559.72 66.4591 Q1563.73 67.5124 1567.66 67.5124 Q1572.92 67.5124 1575.76 65.73 Q1578.6 63.9071 1578.6 60.6258 Q1578.6 57.5877 1576.53 55.9673 Q1574.5 54.3469 1567.58 52.8481 L1564.98 52.2405 Q1558.06 50.7821 1554.98 47.7845 Q1551.9 44.7463 1551.9 39.4801 Q1551.9 33.0797 1556.44 29.5959 Q1560.97 26.1121 1569.32 26.1121 Q1573.45 26.1121 1577.1 26.7198 Q1580.74 27.3274 1583.82 28.5427 Z" fill="#000000" fill-rule="nonzero" fill-opacity="1" /><path clip-path="url(#clip460)" d="M1627.04 28.5427 L1627.04 35.5912 Q1623.88 33.9709 1620.48 33.1607 Q1617.08 32.3505 1613.43 32.3505 Q1607.88 32.3505 1605.09 34.0519 Q1602.33 35.7533 1602.33 39.156 Q1602.33 41.7486 1604.32 43.2475 Q1606.3 44.7058 1612.3 46.0426 L1614.85 46.6097 Q1622.79 48.3111 1626.11 51.4303 Q1629.47 54.509 1629.47 60.0587 Q1629.47 66.3781 1624.45 70.0644 Q1619.47 73.7508 1610.72 73.7508 Q1607.07 73.7508 1603.1 73.0216 Q1599.17 72.3329 1594.8 70.9151 L1594.8 63.2184 Q1598.93 65.3654 1602.94 66.4591 Q1606.95 67.5124 1610.88 67.5124 Q1616.15 67.5124 1618.98 65.73 Q1621.82 63.9071 1621.82 60.6258 Q1621.82 57.5877 1619.75 55.9673 Q1617.73 54.3469 1610.8 52.8481 L1608.21 52.2405 Q1601.28 50.7821 1598.2 47.7845 Q1595.12 44.7463 1595.12 39.4801 Q1595.12 33.0797 1599.66 29.5959 Q1604.2 26.1121 1612.54 26.1121 Q1616.67 26.1121 1620.32 26.7198 Q1623.97 27.3274 1627.04 28.5427 Z" fill="#000000" fill-rule="nonzero" fill-opacity="1" /><polyline clip-path="url(#clip461)" style="stroke:#009af9; stroke-linecap:round; stroke-linejoin:round; stroke-width:8; stroke-opacity:1; fill:none" points="263.091,1007.5 303.667,160.256 344.244,515.71 384.82,742.652 425.396,887.788 465.972,982.22 506.548,1046.51 547.124,1093.46 587.7,1126.4 628.276,1148.91 668.852,1165.71 709.428,1179.6 750.004,1191.92 790.58,1203.19 831.156,1213.08 871.732,1221.57 912.308,1229.65 952.884,1237.51 993.46,1245.44 1034.04,1253.11 1074.61,1260.13 1115.19,1266.57 1155.76,1272.52 1196.34,1278.51 1236.92,1284.37 1277.49,1290.07 1318.07,1295.61 1358.64,1300.95 1399.22,1305.88 1439.8,1310.89 1480.37,1316.25 1520.95,1321.34 1561.52,1325.97 1602.1,1330.27 1642.68,1334.63 1683.25,1339.07 1723.83,1343.18 1764.4,1347.21 1804.98,1351.04 1845.56,1354.58 1886.13,1357.94 1926.71,1361.02 1967.28,1364.24 2007.86,1367.58 2048.44,1370.68 2089.01,1373.73 2129.59,1376.49 2170.16,1379.05 2210.74,1381.51 2251.32,1383.98 2291.89,1386.4 "/>
<polyline clip-path="url(#clip461)" style="stroke:#e26f46; stroke-linecap:round; stroke-linejoin:round; stroke-width:8; stroke-opacity:1; fill:none" points="263.091,1093.74 303.667,988.655 344.244,970.167 384.82,1038.23 425.396,1098.32 465.972,1142.32 506.548,1171.53 547.124,1189.15 587.7,1200.85 628.276,1207.42 668.852,1211.59 709.428,1217.9 750.004,1227.28 790.58,1237.95 831.156,1248.2 871.732,1256.57 912.308,1261.62 952.884,1263.03 993.46,1260.96 1034.04,1257.93 1074.61,1256.04 1115.19,1258.39 1155.76,1264.39 1196.34,1272.51 1236.92,1280.27 1277.49,1285.64 1318.07,1289 1358.64,1291.85 1399.22,1295.12 1439.8,1299.13 1480.37,1303.71 1520.95,1308.6 1561.52,1313.38 1602.1,1316.29 1642.68,1318.25 1683.25,1322.07 1723.83,1328.93 1764.4,1335.63 1804.98,1339.12 1845.56,1340.35 1886.13,1342.98 1926.71,1347.58 1967.28,1353.26 2007.86,1356.04 2048.44,1354.68 2089.01,1353.69 2129.59,1357 2170.16,1359.93 2210.74,1361.91 2251.32,1363.01 2291.89,1362.03 "/>
<path clip-path="url(#clip460)" d="M1836.32 322.316 L2281.07 322.316 L2281.07 166.796 L1836.32 166.796  Z" fill="#ffffff" fill-rule="evenodd" fill-opacity="1"/>
<polyline clip-path="url(#clip460)" style="stroke:#000000; stroke-linecap:round; stroke-linejoin:round; stroke-width:4; stroke-opacity:1; fill:none" points="1836.32,322.316 2281.07,322.316 2281.07,166.796 1836.32,166.796 1836.32,322.316 "/>
<polyline clip-path="url(#clip460)" style="stroke:#009af9; stroke-linecap:round; stroke-linejoin:round; stroke-width:8; stroke-opacity:1; fill:none" points="1860.22,218.636 2003.58,218.636 "/>
<path clip-path="url(#clip460)" d="M2027.48 201.356 L2056.71 201.356 L2056.71 205.291 L2044.45 205.291 L2044.45 235.916 L2039.75 235.916 L2039.75 205.291 L2027.48 205.291 L2027.48 201.356 Z" fill="#000000" fill-rule="nonzero" fill-opacity="1" /><path clip-path="url(#clip460)" d="M2069.1 213.971 Q2068.38 213.555 2067.53 213.37 Q2066.69 213.161 2065.67 213.161 Q2062.06 213.161 2060.12 215.522 Q2058.2 217.86 2058.2 222.258 L2058.2 235.916 L2053.91 235.916 L2053.91 209.99 L2058.2 209.99 L2058.2 214.018 Q2059.54 211.657 2061.69 210.522 Q2063.84 209.365 2066.92 209.365 Q2067.36 209.365 2067.9 209.434 Q2068.43 209.481 2069.08 209.596 L2069.1 213.971 Z" fill="#000000" fill-rule="nonzero" fill-opacity="1" /><path clip-path="url(#clip460)" d="M2085.35 222.883 Q2080.19 222.883 2078.2 224.064 Q2076.21 225.244 2076.21 228.092 Q2076.21 230.36 2077.69 231.703 Q2079.19 233.022 2081.76 233.022 Q2085.3 233.022 2087.43 230.522 Q2089.59 227.999 2089.59 223.832 L2089.59 222.883 L2085.35 222.883 M2093.84 221.124 L2093.84 235.916 L2089.59 235.916 L2089.59 231.981 Q2088.13 234.342 2085.95 235.476 Q2083.78 236.587 2080.63 236.587 Q2076.65 236.587 2074.28 234.365 Q2071.95 232.119 2071.95 228.369 Q2071.95 223.994 2074.86 221.772 Q2077.8 219.55 2083.61 219.55 L2089.59 219.55 L2089.59 219.133 Q2089.59 216.194 2087.64 214.596 Q2085.72 212.976 2082.22 212.976 Q2080 212.976 2077.9 213.508 Q2075.79 214.041 2073.84 215.106 L2073.84 211.17 Q2076.18 210.268 2078.38 209.828 Q2080.58 209.365 2082.66 209.365 Q2088.29 209.365 2091.07 212.282 Q2093.84 215.198 2093.84 221.124 Z" fill="#000000" fill-rule="nonzero" fill-opacity="1" /><path clip-path="url(#clip460)" d="M2102.62 209.99 L2106.88 209.99 L2106.88 235.916 L2102.62 235.916 L2102.62 209.99 M2102.62 199.897 L2106.88 199.897 L2106.88 205.291 L2102.62 205.291 L2102.62 199.897 Z" fill="#000000" fill-rule="nonzero" fill-opacity="1" /><path clip-path="url(#clip460)" d="M2137.34 220.268 L2137.34 235.916 L2133.08 235.916 L2133.08 220.407 Q2133.08 216.726 2131.65 214.897 Q2130.21 213.069 2127.34 213.069 Q2123.89 213.069 2121.9 215.268 Q2119.91 217.467 2119.91 221.263 L2119.91 235.916 L2115.63 235.916 L2115.63 209.99 L2119.91 209.99 L2119.91 214.018 Q2121.44 211.68 2123.5 210.522 Q2125.58 209.365 2128.29 209.365 Q2132.76 209.365 2135.05 212.143 Q2137.34 214.897 2137.34 220.268 Z" fill="#000000" fill-rule="nonzero" fill-opacity="1" /><path clip-path="url(#clip460)" d="M2145.83 209.99 L2150.09 209.99 L2150.09 235.916 L2145.83 235.916 L2145.83 209.99 M2145.83 199.897 L2150.09 199.897 L2150.09 205.291 L2145.83 205.291 L2145.83 199.897 Z" fill="#000000" fill-rule="nonzero" fill-opacity="1" /><path clip-path="url(#clip460)" d="M2180.56 220.268 L2180.56 235.916 L2176.3 235.916 L2176.3 220.407 Q2176.3 216.726 2174.86 214.897 Q2173.43 213.069 2170.56 213.069 Q2167.11 213.069 2165.12 215.268 Q2163.13 217.467 2163.13 221.263 L2163.13 235.916 L2158.84 235.916 L2158.84 209.99 L2163.13 209.99 L2163.13 214.018 Q2164.65 211.68 2166.71 210.522 Q2168.8 209.365 2171.51 209.365 Q2175.97 209.365 2178.27 212.143 Q2180.56 214.897 2180.56 220.268 Z" fill="#000000" fill-rule="nonzero" fill-opacity="1" /><path clip-path="url(#clip460)" d="M2206.11 222.652 Q2206.11 218.022 2204.19 215.476 Q2202.29 212.93 2198.84 212.93 Q2195.42 212.93 2193.5 215.476 Q2191.6 218.022 2191.6 222.652 Q2191.6 227.258 2193.5 229.805 Q2195.42 232.351 2198.84 232.351 Q2202.29 232.351 2204.19 229.805 Q2206.11 227.258 2206.11 222.652 M2210.37 232.698 Q2210.37 239.318 2207.43 242.536 Q2204.49 245.777 2198.43 245.777 Q2196.18 245.777 2194.19 245.43 Q2192.2 245.105 2190.33 244.411 L2190.33 240.268 Q2192.2 241.286 2194.03 241.772 Q2195.86 242.258 2197.76 242.258 Q2201.95 242.258 2204.03 240.059 Q2206.11 237.883 2206.11 233.462 L2206.11 231.356 Q2204.79 233.647 2202.73 234.781 Q2200.67 235.916 2197.8 235.916 Q2193.03 235.916 2190.12 232.281 Q2187.2 228.647 2187.2 222.652 Q2187.2 216.633 2190.12 212.999 Q2193.03 209.365 2197.8 209.365 Q2200.67 209.365 2202.73 210.499 Q2204.79 211.633 2206.11 213.925 L2206.11 209.99 L2210.37 209.99 L2210.37 232.698 Z" fill="#000000" fill-rule="nonzero" fill-opacity="1" /><polyline clip-path="url(#clip460)" style="stroke:#e26f46; stroke-linecap:round; stroke-linejoin:round; stroke-width:8; stroke-opacity:1; fill:none" points="1860.22,270.476 2003.58,270.476 "/>
<path clip-path="url(#clip460)" d="M2040.67 287.756 L2027.48 253.196 L2032.36 253.196 L2043.31 282.293 L2054.28 253.196 L2059.15 253.196 L2045.97 287.756 L2040.67 287.756 Z" fill="#000000" fill-rule="nonzero" fill-opacity="1" /><path clip-path="url(#clip460)" d="M2072.11 274.723 Q2066.95 274.723 2064.96 275.904 Q2062.96 277.084 2062.96 279.932 Q2062.96 282.2 2064.45 283.543 Q2065.95 284.862 2068.52 284.862 Q2072.06 284.862 2074.19 282.362 Q2076.34 279.839 2076.34 275.672 L2076.34 274.723 L2072.11 274.723 M2080.6 272.964 L2080.6 287.756 L2076.34 287.756 L2076.34 283.821 Q2074.89 286.182 2072.71 287.316 Q2070.53 288.427 2067.39 288.427 Q2063.4 288.427 2061.04 286.205 Q2058.71 283.959 2058.71 280.209 Q2058.71 275.834 2061.62 273.612 Q2064.56 271.39 2070.37 271.39 L2076.34 271.39 L2076.34 270.973 Q2076.34 268.034 2074.4 266.436 Q2072.48 264.816 2068.98 264.816 Q2066.76 264.816 2064.65 265.348 Q2062.55 265.881 2060.6 266.946 L2060.6 263.01 Q2062.94 262.108 2065.14 261.668 Q2067.34 261.205 2069.42 261.205 Q2075.05 261.205 2077.83 264.122 Q2080.6 267.038 2080.6 272.964 Z" fill="#000000" fill-rule="nonzero" fill-opacity="1" /><path clip-path="url(#clip460)" d="M2089.38 251.737 L2093.64 251.737 L2093.64 287.756 L2089.38 287.756 L2089.38 251.737 Z" fill="#000000" fill-rule="nonzero" fill-opacity="1" /><path clip-path="url(#clip460)" d="M2102.55 261.83 L2106.81 261.83 L2106.81 287.756 L2102.55 287.756 L2102.55 261.83 M2102.55 251.737 L2106.81 251.737 L2106.81 257.131 L2102.55 257.131 L2102.55 251.737 Z" fill="#000000" fill-rule="nonzero" fill-opacity="1" /><path clip-path="url(#clip460)" d="M2132.78 265.765 L2132.78 251.737 L2137.04 251.737 L2137.04 287.756 L2132.78 287.756 L2132.78 283.867 Q2131.44 286.182 2129.38 287.316 Q2127.34 288.427 2124.47 288.427 Q2119.77 288.427 2116.81 284.677 Q2113.87 280.927 2113.87 274.816 Q2113.87 268.705 2116.81 264.955 Q2119.77 261.205 2124.47 261.205 Q2127.34 261.205 2129.38 262.339 Q2131.44 263.45 2132.78 265.765 M2118.27 274.816 Q2118.27 279.515 2120.19 282.2 Q2122.13 284.862 2125.51 284.862 Q2128.89 284.862 2130.83 282.2 Q2132.78 279.515 2132.78 274.816 Q2132.78 270.117 2130.83 267.455 Q2128.89 264.77 2125.51 264.77 Q2122.13 264.77 2120.19 267.455 Q2118.27 270.117 2118.27 274.816 Z" fill="#000000" fill-rule="nonzero" fill-opacity="1" /><path clip-path="url(#clip460)" d="M2157.59 274.723 Q2152.43 274.723 2150.44 275.904 Q2148.45 277.084 2148.45 279.932 Q2148.45 282.2 2149.93 283.543 Q2151.44 284.862 2154.01 284.862 Q2157.55 284.862 2159.68 282.362 Q2161.83 279.839 2161.83 275.672 L2161.83 274.723 L2157.59 274.723 M2166.09 272.964 L2166.09 287.756 L2161.83 287.756 L2161.83 283.821 Q2160.37 286.182 2158.2 287.316 Q2156.02 288.427 2152.87 288.427 Q2148.89 288.427 2146.53 286.205 Q2144.19 283.959 2144.19 280.209 Q2144.19 275.834 2147.11 273.612 Q2150.05 271.39 2155.86 271.39 L2161.83 271.39 L2161.83 270.973 Q2161.83 268.034 2159.89 266.436 Q2157.96 264.816 2154.47 264.816 Q2152.25 264.816 2150.14 265.348 Q2148.03 265.881 2146.09 266.946 L2146.09 263.01 Q2148.43 262.108 2150.63 261.668 Q2152.83 261.205 2154.91 261.205 Q2160.53 261.205 2163.31 264.122 Q2166.09 267.038 2166.09 272.964 Z" fill="#000000" fill-rule="nonzero" fill-opacity="1" /><path clip-path="url(#clip460)" d="M2179.08 254.469 L2179.08 261.83 L2187.85 261.83 L2187.85 265.14 L2179.08 265.14 L2179.08 279.214 Q2179.08 282.385 2179.93 283.288 Q2180.81 284.191 2183.47 284.191 L2187.85 284.191 L2187.85 287.756 L2183.47 287.756 Q2178.54 287.756 2176.67 285.927 Q2174.79 284.075 2174.79 279.214 L2174.79 265.14 L2171.67 265.14 L2171.67 261.83 L2174.79 261.83 L2174.79 254.469 L2179.08 254.469 Z" fill="#000000" fill-rule="nonzero" fill-opacity="1" /><path clip-path="url(#clip460)" d="M2193.45 261.83 L2197.71 261.83 L2197.71 287.756 L2193.45 287.756 L2193.45 261.83 M2193.45 251.737 L2197.71 251.737 L2197.71 257.131 L2193.45 257.131 L2193.45 251.737 Z" fill="#000000" fill-rule="nonzero" fill-opacity="1" /><path clip-path="url(#clip460)" d="M2216.67 264.816 Q2213.24 264.816 2211.25 267.501 Q2209.26 270.163 2209.26 274.816 Q2209.26 279.469 2211.23 282.154 Q2213.22 284.816 2216.67 284.816 Q2220.07 284.816 2222.06 282.131 Q2224.05 279.446 2224.05 274.816 Q2224.05 270.21 2222.06 267.524 Q2220.07 264.816 2216.67 264.816 M2216.67 261.205 Q2222.22 261.205 2225.39 264.816 Q2228.57 268.427 2228.57 274.816 Q2228.57 281.182 2225.39 284.816 Q2222.22 288.427 2216.67 288.427 Q2211.09 288.427 2207.92 284.816 Q2204.77 281.182 2204.77 274.816 Q2204.77 268.427 2207.92 264.816 Q2211.09 261.205 2216.67 261.205 Z" fill="#000000" fill-rule="nonzero" fill-opacity="1" /><path clip-path="url(#clip460)" d="M2257.18 272.108 L2257.18 287.756 L2252.92 287.756 L2252.92 272.247 Q2252.92 268.566 2251.48 266.737 Q2250.05 264.909 2247.18 264.909 Q2243.73 264.909 2241.74 267.108 Q2239.75 269.307 2239.75 273.103 L2239.75 287.756 L2235.46 287.756 L2235.46 261.83 L2239.75 261.83 L2239.75 265.858 Q2241.27 263.52 2243.33 262.362 Q2245.42 261.205 2248.13 261.205 Q2252.59 261.205 2254.89 263.983 Q2257.18 266.737 2257.18 272.108 Z" fill="#000000" fill-rule="nonzero" fill-opacity="1" /></svg>
